<svg width="80" height="80" viewBox="0 0 80 80" fill="none" xmlns="http://www.w3.org/2000/svg">
<path d="M40 80C17.9505 80 0 62.0495 0 40C0 17.9505 17.9505 0 40 0C62.0495 0 80 17.9505 80 40C80 62.0495 62.0495 80 40 80ZM40 4.09894C20.212 4.09894 4.09894 20.212 4.09894 40C4.09894 59.788 20.212 75.9011 40 75.9011C59.788 75.9011 75.9011 59.788 75.9011 40C75.9011 20.0707 59.788 4.09894 40 4.09894ZM31.6608 39.576C29.9647 42.9682 26.9965 45.371 22.8975 45.371C17.1025 45.371 12.8622 40.8481 12.8622 34.2049C12.8622 27.7032 17.1025 23.1802 22.7562 23.1802C26.2898 23.1802 28.9753 25.0177 30.53 27.8445L26.9965 29.8233C26.0071 27.9859 24.311 26.9965 22.6148 26.9965C19.2226 26.9965 16.8198 30.3887 16.8198 34.3463C16.8198 38.4452 19.2226 41.6961 22.7562 41.6961C25.159 41.6961 27.1378 40.1413 28.2686 37.7385L31.6608 39.576ZM47.0671 47.6325V51.3074H34.629V30.3887H38.5866V47.6325H47.0671ZM57.3852 45.371C51.1661 45.371 47.2085 40.5654 47.2085 34.3463C47.2085 28.1272 51.1661 23.3216 57.3852 23.3216C63.6042 23.3216 67.5618 28.1272 67.5618 34.3463C67.7032 40.5654 63.7456 45.371 57.3852 45.371ZM57.3852 26.9965C53.7102 26.9965 51.3074 30.2474 51.3074 34.3463C51.3074 38.4452 53.7102 41.6961 57.3852 41.6961C61.0601 41.6961 63.4629 38.4452 63.4629 34.3463C63.6042 30.2474 61.2014 26.9965 57.3852 26.9965ZM40.1413 62.3322C35.053 62.3322 24.8763 60.7774 23.8869 50.6007H19.9293C20.7774 63.1802 32.6502 66.4311 40.1413 66.4311C47.6325 66.4311 59.5053 63.1802 60.4947 50.6007H56.3958C55.4064 60.636 45.371 62.3322 40.1413 62.3322Z" fill="black"/>
</svg>
