<svg xmlns:xlink="http://www.w3.org/1999/xlink" xmlns="http://www.w3.org/2000/svg" width="166" height="24" viewBox="0 0 166 24" fill="none">
<path d="M0 16.4706H4.07987C4.48786 19.2941 6.64436 20.7059 9.50027 20.7059C13.1722 20.7059 15.2121 19.2353 15.2121 17.1176C15.2121 14.9412 13.5219 14.3529 10.1414 13.5882L7.05235 12.9412C3.32218 12.1176 0.75769 10.2353 0.75769 6.64706C0.75769 2.76471 4.54614 0 9.3837 0C14.6292 0 17.8931 2.64706 18.5343 6.47059H14.4544C13.8133 4.17647 11.8899 3.17647 9.3837 3.17647C6.76093 3.17647 4.66271 4.35294 4.66271 6.29412C4.66271 8.23529 6.00324 8.88235 9.3837 9.64706L12.4727 10.2941C16.9606 11.2941 19.1171 13.1176 19.1171 16.7647C19.1171 21.1176 15.2704 24 9.44199 24C4.31301 23.8824 0.641123 21.1176 0 16.4706Z" fill="#FCFCFC"/>
<path d="M22.9056 0.294118H31.7064C37.4182 0.294118 40.7987 3 40.7987 7.70588C40.7987 12.4118 37.4765 15.1176 31.7064 15.1176H26.8106V23.5294H22.9056V0.294118ZM31.823 11.7647C35.0286 11.7647 36.7188 10.4118 36.7188 7.70588C36.7188 5 34.9703 3.64706 31.823 3.64706H26.8689V11.7647H31.823Z" fill="#FCFCFC"/>
<path d="M99.374 0.294118H114.819V3.70588H103.279V9.94118H114.586V13.3529H103.279V20.2353H115.052V23.5294H99.374V0.294118Z" fill="#FCFCFC"/>
<path d="M119.365 0.294118H128.166C133.47 0.294118 136.792 3.05882 136.792 7.41177C136.792 10.5294 135.102 12.8235 132.13 13.8824L137.9 23.5882H133.353L128.05 14.5294H123.154V23.5294H119.365V0.294118ZM128.283 11.0588C131.08 11.0588 132.829 9.70588 132.829 7.35294C132.829 5 131.139 3.64706 128.283 3.64706H123.27V11.0588H128.283Z" fill="#FCFCFC"/>
<path d="M141.338 0.294118H156.784V3.70588H145.243V9.94118H156.55V13.3529H145.243V20.2353H157.017V23.5294H141.338V0.294118Z" fill="#FCFCFC"/>
<path d="M161.271 0.294118H165.176V23.5294H161.271V0.294118Z" fill="#FCFCFC"/>
<path d="M43.7129 0.294118H47.6179V23.5294H43.7129V0.294118Z" fill="#FCFCFC"/>
<path d="M90.8063 0.294118V20.1176H88.4749L80.6066 0.294118H71.8057V20.1176H69.4744L61.606 0.294118H52.8052V23.5294H56.7102V3.70588H58.8667L66.735 23.5294H75.7107V3.70588H77.8672L85.7356 23.5294H94.7113V0.294118H90.8063Z" fill="#FCFCFC"/>
</svg>