<?xml version="1.0" encoding="utf-8"?>
<!-- Generator: Adobe Illustrator 28.0.0, SVG Export Plug-In . SVG Version: 6.00 Build 0)  -->
<svg version="1.1" id="Logo" xmlns="http://www.w3.org/2000/svg" xmlns:xlink="http://www.w3.org/1999/xlink" x="0px" y="0px"
	 viewBox="0 0 800 300" style="enable-background:new 0 0 800 300;" xml:space="preserve">
<style type="text/css">
	.st0{fill:#FFFFFF;}
</style>
<g>
	<g>
		<path class="st0" d="M507.6,70.2h5.3V116c0,3.9,0.2,8.9,0.8,10.5h-6.1V70.2z"/>
		<path class="st0" d="M526.8,70.1h6.4V77h-6.4V70.1z M527.2,85.9h5.3v40.5h-5.3V85.9z"/>
		<path class="st0" d="M561,68.4c4.5,0,8.7,2.7,10.2,8l-5,1.7c-0.7-3.3-2.6-4.9-5.2-4.9c-4.1,0-6.2,3-6.2,8V86h12.5v4.5h-12.5v36
			h-5.2v-36h-8.2V86h8.2v-4.8C549.5,73,554.5,68.4,561,68.4z"/>
		<path class="st0" d="M569.9,106.1c0-11.9,8.9-21,20.3-21c11,0,19.3,8.3,19.3,19.2c0,0.7-0.1,1.9-0.2,2.4h-34.1
			c0.4,9.6,6.9,15.5,15.4,15.5c7.1,0,12.3-3,13.6-9.2l5.3,0.6c-2.3,8.6-8.9,13.5-18.8,13.5C579.1,127.2,569.9,118.4,569.9,106.1z
			 M603.8,102c-0.2-6.6-5.7-11.9-13.6-11.9c-7.5,0-13.1,4.8-14.5,11.9H603.8z"/>
		<path class="st0" d="M507.2,154h6.4v6.9h-6.4L507.2,154L507.2,154z M507.6,169.8h5.3v40.5h-5.3L507.6,169.8L507.6,169.8z"/>
		<path class="st0" d="M543.9,174.1c-7.8,0-13.1,5.2-13.5,16.4v19.9h-5.3v-40.5h4.8v7.7c3-5.2,8.3-8.6,14.5-8.6
			c10.2,0,17.3,7.9,17.3,18.1v23.2h-5.4v-23C556.4,179.6,551.3,174.1,543.9,174.1z"/>
		<path class="st0" d="M570,198.3l5.8-0.5c0.8,5.4,5.2,8.6,11.3,8.6c6,0,9.3-3,9.3-7.1c0-3.6-2.2-5.8-6.3-6.7l-8.3-2
			c-5.2-1.2-9.7-3.6-9.7-10c0-6.7,5.7-11.5,14-11.5c7.8,0,13.3,3.9,14.9,10.5l-5.5,0.8c-0.9-4.2-4.3-6.5-9.4-6.5
			c-5.2,0-8.3,2.9-8.3,6.2s2.9,5.1,6.4,5.9l8.6,2c5.7,1.4,9.3,4.3,9.3,10.4c0,7.7-5.7,12.7-15.3,12.7
			C577.5,211.1,571.2,206.1,570,198.3z"/>
		<path class="st0" d="M617.2,202.5v20.9h-5.3v-53.6h4.8v8.6c3.3-6,9.5-9.5,17-9.5c11.3,0,20.2,9.2,20.2,21S645,211,633.7,211
			C626.4,211.1,620.6,208,617.2,202.5z M632.9,206.1c8.7,0,15.5-7.1,15.5-16.1c0-8.9-6.8-15.9-15.5-15.9c-9.1,0-15.7,6.7-15.7,15.9
			C617.2,199.4,623.8,206.1,632.9,206.1z"/>
		<path class="st0" d="M662.9,154h6.4v6.9h-6.4V154z M663.4,169.8h5.3v40.5h-5.3V169.8z"/>
		<path class="st0" d="M680.9,169.8h4.8v7.9c2.2-5.5,6.6-8.7,11.8-8.7c5.5,0,9,3.4,9.9,9.2l-5.2,1.1c-0.5-3.2-2.7-5.2-6-5.2
			c-4.8,0-10.2,5.8-10.2,17.9v18.3h-5.3v-40.5H680.9z"/>
		<path class="st0" d="M710.8,190c0-11.9,8.9-21,20.3-21c11,0,19.3,8.3,19.3,19.2c0,0.7-0.1,1.9-0.2,2.4h-34.1
			c0.4,9.6,6.9,15.5,15.4,15.5c7.1,0,12.3-3,13.6-9.2l5.3,0.6c-2.3,8.6-8.9,13.5-18.8,13.5C720,211.1,710.8,202.3,710.8,190z
			 M744.7,185.9c-0.2-6.6-5.7-11.9-13.6-11.9c-7.5,0-13.1,4.8-14.5,11.9H744.7z"/>
		<path class="st0" d="M757.4,190c0-11.8,8.9-21,20.2-21c7,0,13,3.1,16.4,8.6v-23.5h5.4v45.8c0,3.9,0.2,8.9,0.6,10.5h-5.5v-8.6
			c-3.3,6-9.4,9.5-16.9,9.5C766.4,211.1,757.4,201.8,757.4,190z M778.4,206.1c9,0,15.6-6.7,15.6-16.1c0-9.2-6.6-16-15.6-16
			c-8.7,0-15.5,7.1-15.5,16C762.9,199,769.7,206.1,778.4,206.1z"/>
		<path class="st0" d="M502.4,253.8h5.8l10.7,25.5c2.2,5.5,3.3,9.4,3.3,9.4s1.1-3.9,3.3-9.4l10.6-25.5h5.8l-17,40.5h-5.5
			L502.4,253.8z"/>
		<path class="st0" d="M574.7,285.7c-2.8,6-8,9.3-14.8,9.3c-8.4,0-13.6-4.7-13.6-11.5c0-9.5,8.7-11.7,19.2-13.6
			c2.9-0.5,6.7-1.4,8.6-2c-0.4-5.8-5-10.2-11.4-10.2c-6.7,0-10.9,3.6-11.3,9.5l-5.5-0.8c1-8.3,7.4-13.6,16.7-13.6
			c9.9,0,17.2,6.7,17.2,16.1v14.6c0,3.9,0.2,8.9,0.8,10.5h-6L574.7,285.7L574.7,285.7z M560.3,290.3c8.3,0,13.8-7.2,13.8-17.4v-0.5
			c-1.7,1-5.3,1.7-8.6,2.3c-7.9,1.5-13.7,2.9-13.7,8.5C551.8,287.4,555,290.3,560.3,290.3z"/>
		<path class="st0" d="M591.7,238h5.3v45.8c0,3.9,0.2,8.9,0.8,10.5h-6.1V238z"/>
		<path class="st0" d="M608.5,276.9v-23.2h5.3v23c0,7.7,5.1,13.3,12.5,13.3c7.9,0,13.1-5.3,13.5-16.4v-19.9h5.4v40.5h-4.8v-7.7
			c-3,5.2-8.3,8.6-14.5,8.6C615.6,295.1,608.5,287.2,608.5,276.9z"/>
		<path class="st0" d="M654.9,273.9c0-11.9,8.9-21,20.3-21c11,0,19.3,8.3,19.3,19.2c0,0.7-0.1,1.9-0.2,2.4h-34.1
			c0.4,9.6,6.9,15.5,15.4,15.5c7.1,0,12.3-3,13.6-9.2l5.3,0.6c-2.3,8.6-8.9,13.5-18.8,13.5C664,295.1,654.9,286.3,654.9,273.9z
			 M688.7,269.8c-0.2-6.6-5.7-11.9-13.6-11.9c-7.5,0-13.1,4.8-14.5,11.9H688.7z"/>
		<path class="st0" d="M701.1,282.2l5.8-0.5c0.8,5.4,5.2,8.6,11.3,8.6c6,0,9.3-3,9.3-7.1c0-3.6-2.2-5.8-6.3-6.7l-8.3-2
			c-5.2-1.2-9.7-3.6-9.7-10c0-6.7,5.7-11.5,14-11.5c7.8,0,13.3,3.9,14.9,10.5l-5.5,0.8c-0.9-4.2-4.3-6.5-9.4-6.5
			c-5.2,0-8.3,2.9-8.3,6.2c0,3.3,2.9,5.1,6.4,5.9l8.6,2c5.7,1.4,9.3,4.3,9.3,10.4c0,7.7-5.7,12.7-15.3,12.7
			C708.5,295.1,702.3,290,701.1,282.2z"/>
	</g>
	<g>
		<g>
			<path class="st0" d="M417.9,151.3c-8.6,12.1-20.2,26.8-31.4,32.8c0.8-17.6-1.1-32.5-4.6-41.6c-3.7-9.7-10-17.2-18.2-21.7
				c-7.5-4.1-16.3-5.5-25-3.9c-8.6,1.6-16.6,6.1-22.4,12.6c-6.3,7.1-9.8,16.3-9.8,26c0,9.9,3.8,22,10.3,32.4
				c5.5,8.8,15.3,20.5,30.9,26c2,0.7,4,1.3,6.1,1.7c-3.8,18.3-9.7,34.4-16.6,44.5c-3.4,5-8.8,11-14.7,11c-2.3,0-9.2,0-17.9-13.6
				c-6.1-9.4-11.5-23-16-40.3c-8-30.7-10.5-61.7-10.5-66.1h-28.8v29.7c0,27.4-4.4,52-12.3,69.3c-5.9,13-13.5,20.7-20.1,20.7
				c-2.8,0-9.3,0-15-16.2c-5.4-15.2-8.1-40.1-8.1-73.8v-42H165c-1.9,37.2-5.5,64.4-10.9,82.3c-5.8,19.3-14.1,33.8-24,42.2
				c-7.7,6.5-16,8.9-24.6,7.1c-10.3-2.1-20.6-10.1-29.2-22.3c1.8-2.3,3.5-4.6,5.2-7c20.1-28.8,33.4-67.1,40.6-117.4
				c4-28.3,4.5-53.9,1.5-74.1c-3.2-21.1-10-35.7-20.1-43.6C95-0.4,84.7-1.8,75.1,2.3c-12.1,5.1-22.5,18.2-31,39
				c-8.4,20.5-14.6,47.4-18.4,79.9c-5.4,45.8-0.5,87.5,14.1,120.5c0.4,0.8,0.7,1.6,1.1,2.4C29.2,254.6,15.7,262.3,0,267.4l8.8,27.4
				c17.9-5.8,33.5-14.3,47.1-25.7c12.3,15.8,27.4,26.1,43.5,29.5c3.8,0.8,7.5,1.2,11.3,1.2c13.4,0,26.5-5,37.8-14.4
				c9-7.6,16.8-17.9,23.2-30.7c0.9,3.4,1.8,6.6,2.9,9.6c10.3,29.3,28.6,35.4,42.2,35.4c10.9,0,31.4-4.9,46.3-37.5
				c1.9-4.2,3.6-8.6,5.2-13.3c3.6,9.4,7.6,17.5,11.9,24.2c7.9,12.3,21.6,26.9,42.2,26.9c10.2,0,25.2-4.1,38.5-23.5
				c6.1-8.9,16.8-28.5,22.5-62.7c2.7-0.9,5.4-1.9,8-3.2c15.8-7.4,32-21.9,45.7-43.8L417.9,151.3z M61.7,218.7
				c-7-20.5-12.4-51.4-7.4-94.2C62,59.1,77.8,35.1,84.4,29.6c0.9-0.7,2.2-0.6,2.9,0.4c2.1,2.9,5.1,9.4,7.2,21.2
				c2.2,12.4,3.8,34.4-1,68.5C87.5,161.2,76.8,194.5,61.7,218.7z M358.1,187.6c-0.1,0-0.2-0.1-0.3-0.1c-15.1-5.2-22.5-23-22.5-31.9
				c0-6,4.2-10.3,8.3-11.1c0.6-0.1,1.2-0.2,1.8-0.2c4,0,7.5,3.4,9.5,8.6C357.2,158.7,359.4,170.5,358.1,187.6z"/>
			<path class="st0" d="M178.9,111.6c12.1,0,22-9.8,22-21.9s-9.8-21.9-22-21.9c-12.1,0-22,9.8-22,21.9
				C156.9,101.7,166.8,111.6,178.9,111.6z"/>
		</g>
	</g>
</g>
</svg>
