<?xml version="1.0" encoding="utf-8"?>
<!-- Generator: Adobe Illustrator 28.0.0, SVG Export Plug-In . SVG Version: 6.00 Build 0)  -->
<svg version="1.1" id="Ebene_1" xmlns="http://www.w3.org/2000/svg" xmlns:xlink="http://www.w3.org/1999/xlink" x="0px" y="0px"
	 viewBox="0 0 330.3 94.6" style="enable-background:new 0 0 330.3 94.6;" xml:space="preserve">
<style type="text/css">
	.st0{clip-path:url(#SVGID_00000170278203684581375380000014794004159362555556_);}
	.st1{fill:#FFFFFF;}
</style>
<g>
	<defs>
		<rect id="SVGID_1_" y="0" width="330.3" height="94.6"/>
	</defs>
	<clipPath id="SVGID_00000065791585356060154170000009497996689849304193_">
		<use xlink:href="#SVGID_1_"  style="overflow:visible;"/>
	</clipPath>
	<g id="Gruppe_1" transform="translate(0 0)" style="clip-path:url(#SVGID_00000065791585356060154170000009497996689849304193_);">
		<path id="Pfad_1" class="st1" d="M65,45.2c3.3,18.2-8.1,38.1-22.7,49.4c10.8-4.1,22.5-10.9,33.6-20.2
			c28.1-23.6,41.4-53.8,29.9-67.6c-2-2.4-4.6-4.1-7.6-5.2C81.8,7.9,61.7,27.4,65,45.2"/>
		<path id="Pfad_2" class="st1" d="M48.7,46.7C48.8,30.9,67.3,9.8,91.5,0.1C76.2-1.2,54.1,7.6,34,24.5C6,48-7.4,78.3,4.2,92.1
			c0.1,0.1,0.2,0.2,0.3,0.3C19.3,93.5,48.4,73.4,48.7,46.7"/>
		<path id="Pfad_3" class="st1" d="M141.4,62.6c-4.5,0-7.9-1-10.9-3.9l3.8-3.8c1.9,1.9,4.4,2.5,7.2,2.5c3.4,0,5.3-1.3,5.3-3.7
			c0.1-0.9-0.3-1.8-0.9-2.5c-0.7-0.6-1.7-1-2.6-1l-3.6-0.5c-2.1-0.2-4.2-1.1-5.8-2.5c-1.5-1.6-2.3-3.7-2.1-5.8c0-5.3,3.9-9,10.4-9
			c4.1,0,7.1,1,9.6,3.5l-3.7,3.6c-1.7-1.5-3.9-2.2-6.1-2c-3.1,0-4.6,1.7-4.6,3.8c0,0.8,0.3,1.6,0.9,2.1c0.8,0.7,1.7,1.1,2.8,1.2
			l3.5,0.5c2.1,0.1,4.1,0.9,5.7,2.3c1.6,1.7,2.5,4,2.3,6.3C152.5,59.3,147.7,62.6,141.4,62.6"/>
		<path id="Pfad_4" class="st1" d="M182,51.2h-5.7v11.2h-5.8V32.6H182c6.1,0,9.8,4.2,9.8,9.3S188.2,51.2,182,51.2 M181.7,37.8h-5.4
			v8.1h5.4c2.6,0,4.3-1.6,4.3-4.1c0.1-2.2-1.6-4-3.8-4.1C182.1,37.8,181.9,37.8,181.7,37.8"/>
		<rect id="Rechteck_1" x="209.3" y="32.6" class="st1" width="5.8" height="29.8"/>
		<path id="Pfad_5" class="st1" d="M245.9,37.8v24.6h-5.8V37.8h-7.8v-5.2h21.4v5.2L245.9,37.8z"/>
		<path id="Pfad_6" class="st1" d="M271,62.4V32.6h19.6v5.2h-13.8v7h11.7v5.2h-11.7v7.2h13.8v5.2L271,62.4z"/>
		<path id="Pfad_7" class="st1" d="M323.7,62.4L317.9,52l-5.7,10.4h-6.6l9.2-15.3l-8.6-14.5h6.6l5.2,9.6l5.2-9.6h6.6L321,47.1
			l9.3,15.3L323.7,62.4z"/>
		<rect id="Rechteck_2" x="131.8" y="24.3" class="st1" width="198.4" height="0.8"/>
		<path id="Pfad_8" class="st1" d="M135.6,17c-2,0.1-3.6-1.4-3.7-3.3c0-0.1,0-0.2,0-0.3V6.2h1.1v7.1c-0.1,1.4,1,2.7,2.5,2.7
			c1.4,0.1,2.7-1,2.7-2.5c0-0.1,0-0.2,0-0.3V6.2h1.1v7.2c0,2-1.5,3.6-3.5,3.6C135.8,17,135.7,17,135.6,17 M133.4,3.7h1.1v1.3h-1.1
			V3.7z M136.6,3.7h1.1v1.3h-1.1V3.7z"/>
		<path id="Pfad_9" class="st1" d="M147.4,16.4c-0.5,0.4-1.1,0.7-1.8,0.6c-0.8,0.1-1.6-0.3-2.1-1V17h-1.1V6.2h1.1v4.2
			c0.5-0.7,1.3-1,2.1-0.9c0.7,0,1.3,0.2,1.8,0.6c0.7,0.9,1,2,0.9,3.1C148.4,14.4,148.1,15.5,147.4,16.4 M145.4,10.4
			c-1.6,0-1.9,1.4-1.9,2.8s0.3,2.8,1.9,2.8s1.9-1.4,1.9-2.8S147,10.4,145.4,10.4"/>
		<path id="Pfad_10" class="st1" d="M151.7,13.5c0,1.6,0.8,2.6,2.2,2.6c0.7,0,1.5-0.3,1.9-0.8l0.7,0.6c-0.7,0.8-1.7,1.2-2.7,1.1
			c-2,0-3.2-1.2-3.2-3.8c0-2.4,1.2-3.8,3-3.8c1.9,0,3,1.4,3,3.6v0.5L151.7,13.5z M155.4,11.5c-0.4-1-1.6-1.4-2.5-0.9
			c-0.4,0.2-0.8,0.5-0.9,0.9c-0.2,0.4-0.2,0.8-0.2,1.2h3.9C155.6,12.3,155.5,11.9,155.4,11.5"/>
		<path id="Pfad_11" class="st1" d="M163.5,11c-0.3-0.4-0.8-0.6-1.3-0.5c-1,0-1.8,0.8-1.8,1.8c0,0.1,0,0.1,0,0.2V17h-1.1V9.5h1.1
			v0.9c0.5-0.7,1.3-1,2.1-1c0.7,0,1.3,0.2,1.8,0.7L163.5,11z"/>
		<path id="Pfad_12" class="st1" d="M170.1,17v-0.7c-0.6,0.6-1.3,0.9-2.1,0.8c-0.8,0.1-1.5-0.2-2.1-0.7c-0.4-0.4-0.6-0.9-0.6-1.5
			c0-1.3,0.9-2.1,2.6-2.1h2.2V12c0-1.1-0.5-1.6-1.9-1.6c-0.7-0.1-1.5,0.2-1.9,0.8l-0.7-0.7c0.6-0.8,1.6-1.2,2.6-1.1c2,0,3,0.9,3,2.5
			v5L170.1,17z M170.1,13.5h-2.1c-1.1,0-1.7,0.5-1.7,1.3s0.5,1.3,1.7,1.3c0.6,0.1,1.2-0.1,1.7-0.5c0.3-0.4,0.4-0.8,0.4-1.3
			L170.1,13.5z"/>
		<path id="Pfad_13" class="st1" d="M176.1,17c-1,0.1-1.8-0.7-1.9-1.6c0-0.1,0-0.2,0-0.3V6.2h1.1v8.7c0,0.7,0.2,1.1,1,1.1h0.6V17
			L176.1,17z"/>
		<path id="Pfad_14" class="st1" d="M180.9,17c-1,0.1-1.8-0.7-1.9-1.6c0-0.1,0-0.2,0-0.3V6.2h1.1v8.7c0,0.7,0.2,1.1,1,1.1h0.6V17
			L180.9,17z"/>
		<path id="Pfad_15" class="st1" d="M189.4,10.4V17h-1.1v-6.5h-0.9V9.6h0.9V8.2c-0.1-1,0.6-1.9,1.6-2c0.1,0,0.2,0,0.3,0h0.8v0.9
			h-0.6c-0.7,0-1,0.4-1,1.1v1.4h1.6v0.8L189.4,10.4z"/>
		<path id="Pfad_16" class="st1" d="M197.8,17v-0.8c-0.5,0.6-1.3,0.9-2.1,0.9c-0.7,0-1.4-0.2-1.9-0.7c-0.5-0.6-0.8-1.3-0.8-2.1V9.5
			h1.1v4.6c0,1.3,0.7,2,1.8,2c1,0.1,1.8-0.7,1.9-1.6c0-0.1,0-0.2,0-0.3V9.5h1.1V17H197.8z M193.8,6.6h1.1v1.3h-1.1L193.8,6.6z
			 M197,6.6h1.1v1.3H197V6.6z"/>
		<path id="Pfad_17" class="st1" d="M206.1,11c-0.3-0.4-0.8-0.6-1.3-0.5c-1,0-1.8,0.8-1.8,1.8c0,0.1,0,0.1,0,0.2V17H202V9.5h1.1v0.9
			c0.5-0.7,1.3-1,2.1-1c0.7,0,1.3,0.2,1.8,0.7L206.1,11z"/>
		<path id="Pfad_18" class="st1" d="M217,17v-0.7c-0.6,0.6-1.3,0.9-2.1,0.8c-0.8,0.1-1.5-0.2-2.1-0.7c-0.4-0.4-0.6-0.9-0.6-1.5
			c0-1.3,0.9-2.1,2.6-2.1h2.2V12c0-1.1-0.5-1.6-1.9-1.6c-0.7-0.1-1.5,0.2-1.9,0.8l-0.7-0.7c0.6-0.8,1.6-1.2,2.6-1.1c2,0,3,0.9,3,2.5
			v5L217,17z M217,13.5h-2.1c-1.1,0-1.7,0.5-1.7,1.3s0.5,1.3,1.7,1.3c0.6,0.1,1.2-0.1,1.7-0.5c0.3-0.4,0.4-0.8,0.4-1.3L217,13.5z"/>
		<path id="Pfad_19" class="st1" d="M222.9,17c-1,0.1-1.8-0.7-1.9-1.6c0-0.1,0-0.2,0-0.3V6.2h1.1v8.7c0,0.7,0.2,1.1,1,1.1h0.6V17
			L222.9,17z"/>
		<path id="Pfad_20" class="st1" d="M227.8,17c-1,0.1-1.8-0.7-1.9-1.6c0-0.1,0-0.2,0-0.3V6.2h1.1v8.7c0,0.7,0.2,1.1,1,1.1h0.6V17
			L227.8,17z"/>
		<path id="Pfad_21" class="st1" d="M231.1,13.5c0,1.6,0.8,2.6,2.2,2.6c0.7,0,1.5-0.3,1.9-0.8l0.7,0.6c-0.7,0.8-1.7,1.2-2.7,1.1
			c-2,0-3.2-1.2-3.2-3.8c0-2.4,1.2-3.8,3-3.8c1.9,0,3,1.4,3,3.6v0.5L231.1,13.5z M234.8,11.5c-0.4-1-1.6-1.4-2.5-0.9
			c-0.4,0.2-0.8,0.5-0.9,0.9c-0.2,0.4-0.2,0.8-0.2,1.2h3.9C235,12.3,234.9,11.9,234.8,11.5"/>
		<path id="Pfad_22" class="st1" d="M262.5,92l-3.8-6.8l-1.9,2.3V92h-2.9V77.1h2.9v6.5l5.2-6.5h3.5l-4.9,5.9l5.3,9H262.5z"/>
		<path id="Pfad_23" class="st1" d="M276.6,84c-0.6-0.8-1.8-0.9-2.6-0.2c-0.5,0.4-0.7,1-0.6,1.6V92h-2.7V81.1h2.7v1
			c0.7-0.8,1.7-1.2,2.7-1.2c1-0.1,1.9,0.3,2.6,1L276.6,84z"/>
		<path id="Pfad_24" class="st1" d="M283.3,77h2.8v2.2h-2.8V77z M283.3,81.1h2.7V92h-2.7V81.1z"/>
		<path id="Pfad_25" class="st1" d="M294.3,87.4c-0.1,1.2,0.8,2.3,2.1,2.4c0.1,0,0.2,0,0.3,0c0.9,0.1,1.8-0.3,2.5-1l1.7,1.6
			c-1,1.2-2.6,1.8-4.1,1.7c-2.6,0-5-1.2-5-5.6c0-3.6,1.9-5.6,4.7-5.6c3,0,4.7,2.2,4.7,5.2v1.2H294.3z M298.2,84.3
			c-0.5-1-1.7-1.4-2.7-0.9c-0.4,0.2-0.7,0.5-0.9,0.9c-0.2,0.4-0.2,0.8-0.3,1.2h4.1C298.5,85.1,298.4,84.7,298.2,84.3"/>
		<path id="Pfad_26" class="st1" d="M313.1,92v-6.6c0.1-1-0.6-1.9-1.6-2c-1-0.1-1.9,0.6-2,1.6c0,0.1,0,0.2,0,0.3V92h-2.7V81.1h2.7v1
			c0.7-0.7,1.7-1.1,2.7-1.1c1,0,1.9,0.3,2.6,1c0.8,0.8,1.2,2,1.1,3.1v7L313.1,92z"/>
		<path id="Pfad_27" class="st1" d="M325.5,92.1c-1.7,0.2-3.4-0.4-4.6-1.6l1.8-1.8c0.8,0.7,1.8,1.1,2.9,1c0.9,0,1.9-0.3,1.9-1.1
			c0-0.5-0.3-0.9-1.1-1l-1.7-0.2c-2-0.2-3.2-1-3.2-3.1c0-2.3,2-3.5,4.2-3.5c1.5-0.1,3,0.3,4.2,1.3l-1.7,1.7
			c-0.7-0.5-1.6-0.8-2.5-0.7c-1.1,0-1.5,0.5-1.5,1c0,0.4,0.2,0.9,1.1,0.9l1.7,0.2c2.2,0.2,3.2,1.4,3.2,3.2
			C330.1,90.9,328,92.1,325.5,92.1"/>
	</g>
</g>
</svg>
