<?xml version="1.0" encoding="utf-8"?>
<!-- Generator: Adobe Illustrator 28.0.0, SVG Export Plug-In . SVG Version: 6.00 Build 0)  -->
<svg version="1.1" id="Ebene_1" xmlns="http://www.w3.org/2000/svg" xmlns:xlink="http://www.w3.org/1999/xlink" x="0px" y="0px"
	 viewBox="0 0 211.5 29.5" style="enable-background:new 0 0 211.5 29.5;" xml:space="preserve">
<style type="text/css">
	.st0{fill-rule:evenodd;clip-rule:evenodd;fill:#FFFFFF;}
	.st1{fill:#FFFFFF;}
</style>
<g>
	<path class="st0" d="M105.9,14.7c-1.2,1.1-2.4,1.4-4.7,1.4h-3.4v6.7h-2.3V5.7h5c2.9,0,3.7,0.2,4.7,0.8c1.6,0.9,2.5,2.4,2.5,4.2
		C107.7,12.6,107,13.8,105.9,14.7L105.9,14.7z M100.4,7.7h-2.6v6.6h3.2c2.1,0,4-0.7,4-3.3C105.1,8,102.7,7.7,100.4,7.7L100.4,7.7z"
		/>
	<polygon class="st1" points="111.6,22.9 111.6,5.7 114,5.7 114,22.9 	"/>
	<path class="st1" d="M126.4,23.1c-4.8,0-8.2-3.6-8.2-8.7s3.6-9,8.3-9c1.7,0,3.5,0.5,4.7,1.3L130,8.3c-1.1-0.7-2.2-1-3.5-1
		c-2.1,0-4,1.1-5,3c-0.5,1.1-0.7,2.4-0.7,4.2c0,2.4,0.4,3.7,1.6,5c1.1,1.2,2.5,1.8,4.2,1.8c1.4,0,2.6-0.4,3.7-1.1l1.1,1.5
		C130.4,22.6,128.4,23.1,126.4,23.1L126.4,23.1z"/>
	<polygon class="st1" points="146,7.7 140.8,7.7 140.8,22.9 138.5,22.9 138.5,7.7 133.3,7.7 133.3,5.7 146.3,5.7 	"/>
	<path class="st1" d="M160.9,21.6c-1.2,1.1-2.7,1.6-5,1.6c-3.5,0-5.2-1.4-5.9-2.9c-0.4-1-0.6-1.6-0.6-3.6V5.8h2.4V16
		c0,1.4,0.1,2.5,0.2,3c0.5,1.4,2,2.2,3.9,2.2c1.6,0,2.8-0.4,3.4-1.3c0.6-0.8,0.7-1.5,0.7-3.2v-11h2.4v10.9
		C162.4,19.5,162.1,20.5,160.9,21.6L160.9,21.6z"/>
	<path class="st0" d="M177.2,22.9c-0.4-0.7-1-1.7-1.5-2.6c-1.3-2-2.4-3.3-3.4-4.2c-0.7-0.6-1.3-0.9-2.1-0.9H170v7.7h-2.4V5.7h4.5
		c2.9,0,4,0.3,4.9,0.9c1.2,0.8,2.1,2.2,2.1,3.8c0,3-1.9,4.8-5.1,4.8h-0.4c0.4,0.2,1,0.8,1.2,1.1c0.5,0.7,1.6,2,2.6,3.2
		c0.8,1.1,2.1,2.8,2.6,3.4H177.2L177.2,22.9z M172.3,7.6H170v6h1.9c2.2,0,4.7-0.2,4.7-3.1C176.7,7.9,174.1,7.6,172.3,7.6L172.3,7.6z
		"/>
	<polygon class="st1" points="184.1,22.9 184.1,5.7 194.7,5.7 194.4,7.7 186.5,7.7 186.5,12.9 193.1,12.9 193.1,14.9 186.5,14.9 
		186.5,20.8 195,20.8 195,22.9 	"/>
	<path class="st1" d="M208.8,22.3c-1.2,0.6-2.7,1-4.4,1c-2.2,0-4.4-0.5-6.3-1.5l1-1.8c1.8,1,3.5,1.4,5.4,1.4c1.3,0,2.1-0.2,2.9-0.7
		c0.9-0.5,1.4-1.3,1.4-2.3c0-1.5-1-2.4-3.5-3l-2.6-0.7c-2.5-0.6-4.1-2.4-4.1-4.4c0-2.9,2.6-5,6.3-5c2.2,0,4.5,0.6,5.9,1.6l-1.1,1.7
		c-1.5-0.9-3.1-1.4-4.7-1.4c-2.2,0-3.8,1-3.8,2.6c0,1.3,1,2,3.2,2.6l2.4,0.6c1.3,0.4,2.7,1,3.4,1.7s1.2,1.9,1.2,3
		C211.5,19.6,210.5,21.3,208.8,22.3L208.8,22.3z"/>
	<path class="st0" d="M31.4,13.7c0-3.7-1.9-8.2-8.3-8.2c-5.4,0-8.7,3.2-8.7,9.3c0,5.1,3.1,8.5,8.5,8.5
		C29.7,23.2,31.4,18.5,31.4,13.7L31.4,13.7z M25.8,14.2c0,4.3-0.9,5.3-2.8,5.3c-1.8,0-3-1-3-5.3c0-3.2,0.9-5.1,2.9-5.1
		S25.8,10,25.8,14.2L25.8,14.2z"/>
	<path class="st1" d="M91.9,21.3l-2.2-3.2c-1.1,0.9-2.1,1.2-3.2,1.2c-0.9,0-1.7-0.4-2.3-1c-0.7-0.8-0.9-2-0.9-4.8
		c0-2,0.3-2.8,1.2-3.6c0.5-0.4,1.1-0.6,2-0.6c1,0,1.9,0.3,2.8,0.9l2.2-3.4c-1-0.9-3-1.4-4.9-1.4c-3.3,0-6,1.2-7.6,3.9
		c-0.9,1.5-1.3,3.2-1.3,5.3c0,2.4,0.7,4.6,2.2,6.2c1.7,1.7,3.8,2.4,6.2,2.4C88.7,23.2,90.6,22.4,91.9,21.3L91.9,21.3z"/>
	<path class="st1" d="M13.3,19H7.9c-0.5,0-1.8,0-1.8,0s0.6-0.7,0.8-0.9l6.3-9.2V5.7H0.5v3.9h5c0.5,0,1.7-0.1,1.7-0.1
		s-0.6,0.8-0.9,1.1L0,19.7v3.1h13.4L13.3,19L13.3,19z"/>
	<polygon class="st1" points="57,22.9 57,5.7 52,5.7 52,22.9 	"/>
	<path class="st1" d="M51.6,26.7c0-1.6,1.3-2.9,2.9-2.9c1.6,0,2.9,1.3,2.9,2.9s-1.3,2.9-2.9,2.9C52.9,29.5,51.6,28.3,51.6,26.7
		L51.6,26.7z"/>
	<path class="st1" d="M44.3,14.2c0-4.2-0.9-5.1-2.8-5.1c-2,0-2.9,1.9-2.9,5.1c0,4.3,1.1,5.3,3,5.3C43.4,19.5,44.3,18.5,44.3,14.2
		L44.3,14.2z M49.2,22.9h-5V22c-1,0.8-2.4,1.2-4.1,1.2c-4.6,0-7.2-3.3-7.2-8.5c0-6.1,2.7-9.3,7.3-9.3c1.7,0,3,0.4,4,1.1V0h5V22.9
		L49.2,22.9z"/>
	<path class="st1" d="M70.5,14.2c0-4.2-0.9-5.1-2.8-5.1c-2,0-2.9,1.9-2.9,5.1c0,4.3,1.1,5.3,3,5.3C69.6,19.5,70.5,18.5,70.5,14.2
		L70.5,14.2z M75.4,22.9h-5V22c-1,0.8-2.4,1.2-4.1,1.2c-4.6,0-7.2-3.3-7.2-8.5c0-6.1,2.7-9.3,7.3-9.3c1.7,0,3,0.4,4,1.1V5.7h5V22.9
		L75.4,22.9z"/>
</g>
</svg>
