<svg xmlns:xlink="http://www.w3.org/1999/xlink" xmlns="http://www.w3.org/2000/svg" width="128" height="40" viewBox="0 0 128 40" fill="none">
<g clip-path="url(#clip0_223_1506)">
<path d="M54.6891 26.5238H59.6392V27.3119H54.6891V26.5238ZM68.283 24.1604L68.0089 23.3764L54.6891 23.3726V24.1604H68.283ZM54.6891 28.0989H59.6392V28.8869H54.6891V28.0989ZM54.6891 32.0384H69.5763L69.3615 31.2503H54.6891V32.0384ZM54.6891 20.2211H59.7131V21.0092H54.6891V20.2211ZM68.7938 17.858L68.3621 17.0703H54.6891V17.858H68.7938ZM54.6891 24.9481V25.7364H68.87L68.577 24.9481H54.6891ZM69.6574 19.4339L69.2259 18.6458H54.6891V19.4339H69.6574ZM54.6891 29.6753V30.4631H69.1464L68.9313 29.6753H54.6891ZM54.6891 21.7968H59.7131V22.5847H54.6891V21.7968ZM48.1226 17.0703H43.1691C41.974 17.2326 40.9623 17.5056 40.1091 17.858H51.5113C50.4077 17.4942 49.2735 17.2306 48.1226 17.0703ZM52.8972 18.6467H38.6215C38.2702 18.8795 37.9403 19.1429 37.6354 19.4337L52.2585 19.4348L52.8972 18.6467ZM40.6507 24.9478H35.5352C35.5455 25.1822 35.5691 25.4478 35.6134 25.7359L40.7455 25.7355C40.6937 25.4758 40.662 25.2124 40.6507 24.9478ZM40.9754 26.5233H35.7797C35.8521 26.791 35.9403 27.0542 36.0439 27.3114H41.3835C41.2198 27.064 41.083 26.7998 40.9754 26.5233ZM42.0738 28.0989H36.4228C36.5784 28.3738 36.7536 28.6373 36.9468 28.8872H43.4179C42.8738 28.6802 42.4311 28.4096 42.0738 28.0989ZM41.2414 21.7971H36.0558C35.9537 22.0545 35.8663 22.3176 35.794 22.5849H40.9068C40.9898 22.3198 41.0985 22.0541 41.2414 21.7971ZM40.7268 23.3719L35.6277 23.3723C35.587 23.6333 35.5588 23.8961 35.5432 24.1598H40.6538C40.6639 23.9153 40.6853 23.6492 40.7268 23.3719ZM50.9109 31.2505H40.2095C41.0952 31.6054 42.1455 31.8795 43.3911 32.0386H48.1486C49.1877 31.8762 50.1183 31.5953 50.9109 31.2505ZM51.2311 20.7042L51.6221 20.2213H49.5918C50.2237 20.3863 50.7866 20.5613 51.2311 20.7042ZM51.3403 29.675H37.6659C37.9786 29.9668 38.3163 30.2304 38.6752 30.4629H51.9743L51.3403 29.675ZM42.963 20.2213H36.9374C36.7481 20.4715 36.5768 20.7349 36.4248 21.0094H41.83C42.1273 20.7076 42.4994 20.4384 42.963 20.2213Z" fill="#8A8C8E"/>
<path d="M92.0034 0.1875H97.4198L102.424 6.30503C103.707 7.89919 105.005 9.64885 105.518 10.7257C105.336 9.56188 105.096 7.33761 105.059 6.30503L104.948 0.1875H109.437V15.156H104.22L99.86 9.4266C98.4672 7.55312 96.5879 5.12705 96.1115 4.20121C96.2944 5.42772 96.3515 7.51132 96.3876 8.75986L96.5342 15.156H92.0034V0.1875ZM54.6876 0.1875H69.4564L68.7906 2.64413H59.5969V6.35671H68.8038L67.8971 8.81267H59.6715V12.5724H69.656L68.2519 15.156H54.6876V0.1875ZM0 0.1875H5.25326V12.6576H14.6591L13.7409 15.156H0V0.1875ZM15.4681 0.1875H20.7196V10.0558C20.7196 11.1781 20.7933 11.4376 21.1602 11.8475C21.7472 12.5163 22.96 12.8848 24.6506 12.8848C26.8894 12.8848 28.1915 12.2365 28.4101 11.1351C28.484 10.8122 28.484 10.5949 28.484 9.79559V0.1875H33.6984V10.2927C33.6984 11.7167 33.6613 11.9985 33.2946 12.6453C32.6339 13.8349 30.2688 15.4747 24.76 15.4747C20.8661 15.4747 18.0384 14.7846 16.5697 13.4659C15.7256 12.6884 15.4681 12.0857 15.4681 10.6385V0.1875ZM37.0443 0.1875H52.322V2.36323L42.8458 11.7333C42.2957 12.272 41.5252 12.7868 41.5252 12.7868C41.5252 12.7868 43.0306 12.7012 44.0587 12.7012H52.6517L51.3297 15.156H35.391V13.0471L44.793 3.93581C45.4912 3.24638 46.371 2.57851 46.371 2.57851C46.371 2.57851 45.3061 2.6875 43.7658 2.6875H35.9056L37.0443 0.1875ZM78.7996 2.61806C80.0479 2.61806 81.1126 2.70413 81.7014 2.83424C82.9119 3.11312 83.536 3.73694 83.536 4.66143C83.536 5.28548 83.1699 5.82301 82.5461 6.1675C81.8474 6.53222 80.8921 6.66256 78.6901 6.66256H76.8317L76.8685 2.61806H78.7996ZM72.0629 15.156H76.8317V8.92031C77.2351 8.94031 77.6438 8.9839 77.9027 9.04885C78.7827 9.30683 79.5921 10.0169 82.1254 12.7048C83.1178 13.7578 83.5209 14.1666 84.5135 15.156H90.3097C90.3097 15.156 85.6458 10.4255 84.1769 9.3511C83.8461 9.09222 83.6254 8.96211 83.1106 8.72683C86.2697 8.68323 88.5402 6.83424 88.5402 4.59784C88.5402 1.97312 85.698 0.209298 81.1813 0.209298L72.0629 0.1875V15.156ZM113.031 0.791095L113.035 14.5569L126.802 14.5524L126.8 0.786376L113.031 0.791095Z" fill="white"/>
<path d="M121.416 9.17469V13.0594L118.421 13.0605V9.17469H114.53L114.529 6.17963H118.421V2.2857L121.416 2.28323V6.17963H125.306L125.306 9.17469H121.416ZM127.4 0.1875L112.434 0.192669L112.438 15.1558L127.402 15.1506L127.4 0.1875Z" fill="white"/>
<path d="M76.8371 25.731V25.7368H79.4103C79.1715 25.733 78.9326 25.731 78.6937 25.731H76.8371ZM24.6492 19.3431C24.1622 19.3431 23.7166 19.3744 23.3124 19.4339H25.9681C25.5726 19.375 25.1344 19.3431 24.6492 19.3431ZM54.6818 26.5242H54.7038V27.3119H54.6818V26.5242ZM54.6818 23.3782H54.7038V24.1553H54.6818V23.3782ZM54.6818 28.0991H54.7038V28.8874H54.6818V28.0991ZM54.6818 31.2508H54.7038V32.0388H54.6818V31.2508ZM54.6818 20.2215H54.7038V21.0096H54.6818V20.2215ZM54.6818 24.9485H54.7038V25.7368H54.6818V24.9485ZM54.6818 18.646H54.7038V19.4344H54.6818V18.646ZM54.6818 29.6757H54.7038V30.4636H54.6818V29.6757ZM54.6818 21.7973H54.7038V22.5851H54.6818V21.7973ZM101.222 21.0092H109.437V20.2211H101.821L101.222 21.0092ZM105.195 24.1604H109.437V23.3726H105.276C105.247 23.6377 105.22 23.9027 105.195 24.1604ZM105.068 25.7364H109.437V24.9481H105.123C105.099 25.2467 105.08 25.5155 105.068 25.7364ZM96.5342 17.0703H92.0034V17.8582H96.5162L96.5342 17.0703ZM105.365 22.5847H109.437V21.7968H105.463C105.431 22.0413 105.398 22.3065 105.365 22.5847ZM92.0034 29.6753V30.4631H98.7085L99.353 29.6753H92.0034ZM109.437 17.0703H104.22L103.62 17.8582H109.437V17.0703ZM96.367 24.1604C96.3748 23.9112 96.3816 23.6764 96.3876 23.4665L96.3899 23.3726H92.0034V24.1604H96.367ZM96.5472 27.3119H101.286L101.93 26.5238H97.0935C96.9074 26.7837 96.7252 27.0464 96.5472 27.3119ZM92.0034 25.7364H96.3056C96.3189 25.4712 96.3299 25.2067 96.3398 24.9481H92.0034V25.7364ZM98.84 24.1604H103.719C103.896 23.9 104.071 23.6374 104.242 23.3726H99.431C99.238 23.631 99.0395 23.8944 98.84 24.1604ZM97.6654 25.7364H102.569C102.773 25.4775 102.972 25.2146 103.165 24.9481H98.2497C98.0541 25.2103 97.8594 25.473 97.6654 25.7364ZM92.0034 28.8869H99.9977L100.642 28.0989H92.0034V28.8869ZM96.48 19.4339L96.4982 18.6458H92.0034V19.4339H96.48ZM109.437 19.4339V18.6458H103.02L102.421 19.4339H109.437ZM96.4438 21.0092L96.4618 20.2211H92.0034V21.0092H96.4438ZM104.978 30.4631H109.437V29.6753H104.992L104.978 30.4631ZM105.006 28.8869H109.437V28.0989H105.02L105.006 28.8869ZM105.034 27.3119H109.437V26.5238H105.049L105.034 27.3119ZM92.0034 26.5238V27.3119H96.1964C96.2204 27.0624 96.2413 26.7971 96.2598 26.5238H92.0034ZM104.963 31.2505L104.949 32.0384H109.437V31.2505H104.963ZM104.733 22.5847C104.891 22.3249 105.044 22.0622 105.193 21.7968H100.622L100.022 22.5847H104.733ZM92.0034 31.2505V32.0384H97.42L98.0643 31.2505H92.0034ZM92.0034 22.5847H96.4079L96.4258 21.7968H92.0034V22.5847ZM13.7872 17.0703H0V17.858H14.078L13.7872 17.0703ZM0 24.9485H5.26944V25.7368H0V24.9485ZM0 29.6759H5.26944V30.4638H0V29.6759ZM0 28.0998H5.26944V28.8878H0V28.0998ZM0 31.2505H5.26944V32.0386H0V31.2505ZM14.3685 18.6458H0V19.4337H14.6591L14.3685 18.6458ZM0 26.5242H5.26944V27.3119H0V26.5242ZM0 23.373H5.26944V24.1609H0V23.373ZM0 21.7973H5.26944V22.5851H0V21.7973ZM0 20.2211H5.26944V21.0092H0V20.2211ZM15.4683 24.9481H20.7198V25.7364H15.4683V24.9481ZM15.4683 28.0989H20.7198V28.8869H15.4683V28.0989Z" fill="#8A8C8E"/>
<path d="M24.6496 19.3431C25.1348 19.3431 25.573 19.375 25.9685 19.4339H33.2047C33.0386 19.1809 32.7973 18.9119 32.467 18.6458H16.7092C16.6631 18.6838 16.6144 18.7206 16.5705 18.7598C16.3198 18.991 16.1218 19.2067 15.9658 19.4339H23.3128C23.7171 19.3744 24.1627 19.3431 24.6496 19.3431ZM15.4688 23.3726H20.7202V24.1604H15.4688V23.3726ZM28.4843 29.6753H33.6989V30.4631H28.4843V29.6753ZM20.7202 22.1719C20.7202 22.0344 20.7213 21.9103 20.7238 21.7968H15.4688V22.5847H20.7202V22.1719ZM15.4688 26.5238H20.7202V27.3119H15.4688V26.5238ZM15.4688 31.2505H20.7202V32.0384H15.4688V31.2505ZM28.4843 31.2505H33.6989V32.0384H28.4843V31.2505ZM15.4688 29.6753H20.7202V30.4631H15.4688V29.6753ZM31.1593 17.858C30.475 17.5442 29.6177 17.2683 28.5602 17.0703H20.682C19.6425 17.2546 18.7431 17.5177 17.9973 17.858H31.1593ZM28.4843 28.0989H33.6989V28.8869H28.4843V28.0989ZM28.4843 26.5238H33.6989V27.3119H28.4843V26.5238ZM21.1609 20.3793C21.209 20.3242 21.2631 20.2721 21.3198 20.2211H15.6063C15.5449 20.4519 15.5067 20.7103 15.487 21.0092H20.8025C20.8667 20.7521 20.9768 20.5847 21.1609 20.3793ZM33.5804 20.2211H27.915C28.1544 20.4458 28.3121 20.7101 28.3888 21.0092H33.6852C33.6705 20.6728 33.6402 20.4337 33.5804 20.2211ZM28.4843 24.9481H33.6989V25.7364H28.4843V24.9481ZM28.4843 23.3726H33.6989V24.1604H28.4843V23.3726ZM33.6989 21.9337L33.6986 21.7968H28.4816C28.4843 21.9602 28.4843 22.162 28.4843 22.4303V22.5847H33.6989V21.9337ZM72.0703 20.2213H76.8375V21.0094H72.0703V20.2213ZM87.8499 29.6757H72.0703V30.4636H87.0591C87.3692 30.224 87.6332 29.9609 87.8499 29.6757ZM72.0703 18.646H76.8375V19.4339H72.0703V18.646ZM86.1908 21.0094C86.4745 20.7481 86.7569 20.4854 87.038 20.2213H81.5885C81.3357 20.4862 81.0806 20.7489 80.8234 21.0094H86.1908ZM82.333 19.4339H87.8699C88.1445 19.172 88.4183 18.9094 88.6914 18.646H83.047C82.833 18.886 82.6049 19.1404 82.333 19.4339ZM83.4998 28.0995C83.4265 28.4272 83.2492 28.6838 82.9692 28.8876H88.2995C88.4011 28.6364 88.4728 28.3735 88.5101 28.0995H83.4998ZM76.8375 25.7368V25.731H78.6941C78.9499 25.731 79.1872 25.7332 79.4108 25.7368H87.9681C87.7834 25.4493 87.5653 25.1847 87.3184 24.9485H72.0703V25.7368H76.8375ZM72.0703 28.0995V28.8876H76.8672L76.8598 28.0995H72.0703ZM72.0631 26.5242V27.3119H76.8598L76.8523 26.5242H72.0631ZM83.7562 17.8584H89.5047C89.7737 17.5965 90.042 17.3339 90.3096 17.0705H84.5148C84.2566 17.328 84.0036 17.5906 83.7562 17.8584ZM72.0703 24.1609H86.2431C85.3989 23.6928 84.3625 23.4029 83.204 23.373H72.0703V24.1609ZM84.3896 22.5851C84.6461 22.3829 84.9634 22.1126 85.3191 21.7973H80.0175C79.6625 22.1308 79.3638 22.3874 79.1029 22.5851H84.3896ZM72.0703 21.7973H76.8375V22.5851H72.0703V21.7973ZM83.4795 27.3123H88.5249C88.4988 27.0437 88.4408 26.7791 88.3521 26.5242H82.9723C83.2218 26.7476 83.395 27.0155 83.4795 27.3123ZM72.0703 32.0386L81.1847 32.0177C82.9624 32.0177 84.4791 31.7429 85.667 31.2505H72.0703V32.0386ZM72.0703 17.0705H76.8375V17.8584H72.0703V17.0705ZM76.8375 23.2926V23.3038C76.8959 23.3009 76.953 23.2964 77.011 23.2926H76.8375ZM50.2836 28.3629C49.9229 28.57 49.5449 28.7454 49.1539 28.8872H50.7052L50.2836 28.3629ZM112.432 26.5238H117.382V27.3119H112.432V26.5238ZM126.026 24.1604L125.751 23.3764L112.432 23.3726V24.1604H126.026ZM112.432 28.0989H117.382V28.8869H112.432V28.0989ZM112.432 32.0384H127.319L127.104 31.2503H112.432V32.0384ZM112.432 20.2211H117.456V21.0092H112.432V20.2211ZM126.536 17.8582L126.105 17.0703H112.432V17.8582H126.536ZM112.432 24.9481V25.7362H126.613L126.32 24.9481H112.432ZM127.4 19.4339L126.969 18.6456H112.432V19.4339H127.4ZM112.432 29.6753V30.4631H126.889L126.674 29.6753H112.432ZM112.432 21.7968H117.456V22.5847H112.432V21.7968Z" fill="#8A8C8E"/>
<path d="M27.6359 36.4438C27.3586 36.1418 27.0667 36.06 26.5775 36.06H26.0083V39.4137H26.5631C27.1395 39.4137 27.5118 39.2816 27.7379 38.9292C27.9206 38.6395 28.0082 38.2497 28.0082 37.8218C28.0082 37.2175 27.935 36.771 27.6359 36.4438ZM28.2417 39.3256C27.8914 39.7031 27.4242 39.9108 26.5483 39.9108H25.293V35.5755H26.4608C27.3294 35.5755 27.8842 35.7454 28.344 36.2928C28.6433 36.6515 28.7889 37.1485 28.7889 37.7463C28.7889 38.451 28.5775 38.967 28.2417 39.3256ZM30.0298 35.5755H30.7451V39.9108H30.0298V35.5755ZM32.322 39.9108V35.5755H35.059L34.9642 36.0726H33.03V37.3939H34.6503V37.9036H33.0372V39.3885H35.1395V39.9108H32.322ZM39.1977 39.9926C38.6208 39.9926 38.066 39.8665 37.5772 39.6088L37.8545 39.1431C38.2925 39.376 38.7085 39.5016 39.2121 39.5016C39.8691 39.5016 40.2997 39.2121 40.2997 38.7467C40.2997 38.3944 40.0296 38.149 39.4676 38.0106L38.9422 37.8784C38.1831 37.6897 37.7523 37.3751 37.7523 36.7582C37.7523 36.0094 38.4238 35.5 39.4166 35.5C39.9712 35.5 40.5114 35.6384 40.9566 35.909L40.6426 36.3366C40.1757 36.0915 39.8617 35.9971 39.4458 35.9971C38.8838 35.9971 38.5332 36.2488 38.5332 36.6515C38.5332 36.9598 38.7377 37.136 39.2779 37.2742L39.8691 37.4254C40.5406 37.5953 41.0952 37.9728 41.0952 38.6461C41.0952 39.2499 40.5186 39.9926 39.1977 39.9926ZM44.9923 36.0789H43.6858V39.9108H42.9923V36.0789H41.6858V35.5755H45.0653L44.9923 36.0789ZM46.955 36.1733H46.9112C46.8381 36.4187 46.3053 37.9728 46.2179 38.1804H47.6339C47.5462 37.9791 47.0206 36.4249 46.955 36.1733ZM48.2323 39.9108L47.7871 38.6838H46.0426L45.6047 39.9108H44.8748L46.5244 35.569H47.4002L49.0206 39.9108H48.2323ZM52.1518 36.4438C51.8745 36.1418 51.5826 36.06 51.0934 36.06H50.5242V39.4137H51.079C51.6554 39.4137 52.0276 39.2816 52.2539 38.9292C52.4366 38.6395 52.524 38.2497 52.524 37.8218C52.524 37.2175 52.4509 36.771 52.1518 36.4438ZM52.7575 39.3256C52.4074 39.7031 51.9402 39.9108 51.0642 39.9108H49.8087V35.5755H50.9766C51.8453 35.5755 52.3999 35.7454 52.8597 36.2928C53.159 36.6515 53.3051 37.1485 53.3051 37.7463C53.3051 38.451 53.0932 38.967 52.7575 39.3256ZM57.3199 36.0789H56.0136V39.9108H55.3202V36.0789H54.0134V35.5755H57.393L57.3199 36.0789ZM58.2399 39.527C58.2399 39.7849 58.0206 39.9987 57.7213 39.9987C57.4224 39.9987 57.2033 39.7849 57.2033 39.527C57.2033 39.2688 57.4224 39.0551 57.7213 39.0551C58.0206 39.0551 58.2399 39.2688 58.2399 39.527ZM63.5824 36.4438C63.3051 36.1418 63.013 36.06 62.524 36.06H61.9548V39.4137H62.5096C63.086 39.4137 63.4581 39.2816 63.6844 38.9292C63.8669 38.6395 63.9548 38.2497 63.9548 37.8218C63.9548 37.2175 63.8815 36.771 63.5824 36.4438ZM64.1883 39.3256C63.8379 39.7031 63.3707 39.9108 62.4948 39.9108H61.2393V35.5755H62.4074C63.2759 35.5755 63.8305 35.7454 64.2905 36.2928C64.5898 36.6515 64.7357 37.1485 64.7357 37.7463C64.7357 38.451 64.524 38.967 64.1883 39.3256ZM65.9763 39.9108V35.5755H68.7139L68.6186 36.0726H66.6847V37.3939H68.3047V37.9036H66.6918V39.3885H68.7941V39.9108H65.9763ZM71.888 36.1544C71.7417 36.104 71.5372 36.0726 71.2748 36.0726H70.7489V37.5825H71.2384C71.6835 37.5825 71.9314 37.5198 72.1069 37.3751C72.2602 37.2492 72.355 37.0416 72.355 36.7899C72.355 36.4879 72.1653 36.2488 71.888 36.1544ZM72.4862 39.9108C72.3404 39.6654 72.2745 39.5647 72.07 39.2688C71.6835 38.7151 71.5593 38.5328 71.2015 38.1867C71.0703 38.0607 70.9611 37.998 70.7489 37.9917V39.9108H70.0485V35.5755H71.457C72.0557 35.5755 72.4058 35.6951 72.6469 35.8901C72.8732 36.0726 73.0923 36.362 73.0923 36.7836C73.0923 37.4569 72.5885 37.998 71.7491 37.9728C71.9829 38.1364 72.0995 38.2746 72.1869 38.3755C72.334 38.549 72.4753 38.7274 72.6105 38.9103C72.8294 39.2061 73.2379 39.7724 73.3404 39.9108H72.4862ZM77.384 39.9926C76.8071 39.9926 76.2525 39.8665 75.7635 39.6088L76.0408 39.1431C76.4788 39.376 76.8945 39.5016 77.3984 39.5016C78.0554 39.5016 78.486 39.2121 78.486 38.7467C78.486 38.3944 78.2157 38.149 77.6539 38.0106L77.1285 37.8784C76.3692 37.6897 75.9386 37.3751 75.9386 36.7582C75.9386 36.0094 76.6101 35.5 77.6029 35.5C78.1572 35.5 78.6975 35.6384 79.1426 35.909L78.8287 36.3366C78.3617 36.0915 78.048 35.9971 77.6318 35.9971C77.07 35.9971 76.7195 36.2488 76.7195 36.6515C76.7195 36.9598 76.924 37.136 77.4642 37.2742L78.0554 37.4254C78.7269 37.5953 79.2813 37.9728 79.2813 38.6461C79.2813 39.2499 78.7051 39.9926 77.384 39.9926ZM80.5292 39.9108V35.5755H83.266L83.1714 36.0726H81.237V37.3939H82.8575V37.9036H81.2444V39.3885H83.3465V39.9108H80.5292ZM84.5512 39.9108V35.5755H87.2883L87.1934 36.0726H85.2593V37.3939H86.8797V37.9036H85.2667V39.3885H87.3685V39.9108H84.5512ZM89.2665 39.527C89.2665 39.7849 89.0474 39.9987 88.748 39.9987C88.4487 39.9987 88.2296 39.7849 88.2296 39.527C88.2296 39.2688 88.4487 39.0551 88.748 39.0551C89.0474 39.0551 89.2665 39.2688 89.2665 39.527ZM94.6092 36.4438C94.3319 36.1418 94.0395 36.06 93.5505 36.06H92.9813V39.4137H93.5361C94.1127 39.4137 94.4849 39.2816 94.7109 38.9292C94.8936 38.6395 94.9813 38.2497 94.9813 37.8218C94.9813 37.2175 94.908 36.771 94.6092 36.4438ZM95.2148 39.3256C94.8647 39.7031 94.3972 39.9108 93.5215 39.9108H92.2658V35.5755H93.4339C94.3024 35.5755 94.8572 35.7454 95.317 36.2928C95.6163 36.6515 95.7622 37.1485 95.7622 37.7463C95.7622 38.451 95.5505 38.967 95.2148 39.3256ZM97.0029 35.5755H97.7184V39.9108H97.0029V35.5755ZM99.2954 39.9108V35.5755H102.032L101.937 36.0726H100.003V37.3939H101.624V37.9036H100.011V39.3885H102.113V39.9108H99.2954ZM106.981 37.9474C106.85 37.9225 106.704 37.9097 106.456 37.9097H105.645V39.42H106.638C107.054 39.42 107.521 39.2061 107.521 38.6524C107.521 38.3 107.295 38.0106 106.981 37.9474ZM106.835 36.1292C106.718 36.0978 106.579 36.0849 106.324 36.0849H105.638V37.4065H106.434C106.879 37.4065 107.032 37.3373 107.178 37.1674C107.273 37.0542 107.324 36.8903 107.324 36.7458C107.324 36.4438 107.127 36.2047 106.835 36.1292ZM107.28 39.8416C107.054 39.8919 106.748 39.9108 106.485 39.9108H104.952V35.5755H106.018C106.864 35.5755 107.09 35.5944 107.404 35.7391C107.85 35.9404 108.083 36.2488 108.083 36.6449C108.083 37.0982 107.784 37.4443 107.17 37.6013C107.93 37.7463 108.295 38.1553 108.295 38.7216C108.295 39.3256 107.864 39.7094 107.28 39.8416ZM109.557 39.9108V35.5755H112.294L112.199 36.0726H110.265V37.3939H111.885V37.9036H110.272V39.3885H112.375V39.9108H109.557ZM115.468 36.1544C115.323 36.104 115.118 36.0726 114.855 36.0726H114.33V37.5825H114.819C115.264 37.5825 115.513 37.5198 115.688 37.3751C115.841 37.2492 115.935 37.0416 115.935 36.7899C115.935 36.4879 115.746 36.2488 115.468 36.1544ZM116.067 39.9108C115.921 39.6654 115.855 39.5647 115.651 39.2688C115.264 38.7151 115.14 38.5328 114.783 38.1867C114.651 38.0607 114.542 37.998 114.33 37.9917V39.9108H113.629V35.5755H115.038C115.637 35.5755 115.987 35.6951 116.228 35.8901C116.454 36.0726 116.673 36.362 116.673 36.7836C116.673 37.4569 116.169 37.998 115.33 37.9728C115.563 38.1364 115.68 38.2746 115.768 38.3755C115.915 38.549 116.056 38.7274 116.191 38.9103C116.41 39.2061 116.819 39.7724 116.921 39.9108H116.067ZM119.876 39.9737C119.205 39.9737 118.673 39.7787 118.285 39.3885C117.884 38.9858 117.702 38.4762 117.702 37.7652C117.702 36.8969 117.994 36.2989 118.57 35.8901C118.935 35.6321 119.337 35.5189 119.833 35.5189C120.38 35.5189 120.862 35.6573 121.256 35.9528L120.921 36.3306C120.548 36.0978 120.234 36.0034 119.848 36.0034C119.366 36.0034 118.986 36.167 118.767 36.5571C118.534 36.9724 118.49 37.2807 118.49 37.7966C118.49 38.3944 118.614 38.8411 118.848 39.1054C119.067 39.3508 119.497 39.4955 119.928 39.4955C120.212 39.4955 120.468 39.4326 120.672 39.3319V38.0987H119.745L119.628 37.6013H121.366V39.6276C120.957 39.8476 120.409 39.9737 119.876 39.9737ZM122.788 39.9108V35.5755H125.526L125.431 36.0726H123.497V37.3939H125.117V37.9036H123.504V39.3885H125.606V39.9108H122.788ZM127.504 39.527C127.504 39.7849 127.285 39.9987 126.985 39.9987C126.686 39.9987 126.468 39.7849 126.468 39.527C126.468 39.2688 126.686 39.0551 126.985 39.0551C127.285 39.0551 127.504 39.2688 127.504 39.527Z" fill="white"/>
</g>
<defs>
<clipPath id="clip0_223_1506">
<rect width="127.64" height="40" fill="white"/>
</clipPath>
</defs>
</svg>