<?xml version="1.0" encoding="utf-8"?>
<!-- Generator: Adobe Illustrator 28.0.0, SVG Export Plug-In . SVG Version: 6.00 Build 0)  -->
<svg version="1.1" id="Ebene_1" xmlns="http://www.w3.org/2000/svg" xmlns:xlink="http://www.w3.org/1999/xlink" x="0px" y="0px"
	 viewBox="0 0 477.2 156.7" style="enable-background:new 0 0 477.2 156.7;" xml:space="preserve">
<style type="text/css">
	.st0{fill:#FFFFFF;}
</style>
<path class="st0" d="M30.8,58.7c10.2,0,19-5,19-12.6c0-7.2-8.8-12.4-19-12.4c-10.4,0-19.7,5.3-19.7,12.4
	C11.1,53.6,20.4,58.7,30.8,58.7 M30.8,19.3c9.1,0,16.8,3.1,22.1,8.1c0.3-3.6,2.2-6.8,8.6-6.8v8.2c-3.6-0.1-4.9,1.6-5.3,2.8
	c3.1,4.4,4.9,9.3,4.9,14.5c0,14.8-12.5,26.6-30.4,26.6c-4.2,0-7.2-0.4-10.7-1.5L20,76.2h40.4l0.1,21.7l-54.9,5.6L4.8,93.1L59.5,88
	v-2.1L10.6,86V66.3C3.9,61.5,0,54.4,0,46C0,31.4,12.5,19.3,30.8,19.3"/>
<path class="st0" d="M66.1,11.5h13.2v2.6H66.1V11.5z M79.2,73.1H66L66.1,21h13.1V73.1z"/>
<path class="st0" d="M97.1,55c1.7,3.6,6.2,8,18.3,8.3c7.6,0.3,17.3-1.1,17.3-7.3c0-3.5-3.3-4.5-8.2-4.5h-10.4
	c-11.8,0-26.2-3.1-26.2-15.2c0-11.1,14.5-16.8,28.8-16.5c11,0.3,21.6,4.2,26.5,12.9l-11.5,4.6c-2.1-4.1-7.6-7-16.1-7
	c-8.1,0-15.5,1.6-15.5,5.5c0,5.6,12.6,4.7,20.9,5.1c11.3,0.3,24.7,2,24.4,15c-0.3,15.2-18,18-29.8,18c-19.6,0-27.3-8.5-30.2-14.5
	L97.1,55z"/>
<polygon class="st0" points="164,73.2 151.2,73.2 151.3,0 164.5,0 "/>
<path class="st0" d="M183.7,41.8h34c-0.8-8-9.6-11.8-17.3-11.8C192.7,30,184.9,33.9,183.7,41.8 M230.2,59.2
	c-3.1,5.6-10.1,14.8-28.8,14.8c-21.2,0-31.3-11.7-31.3-27c0-18.9,15.1-27.7,29.9-27.7c15.6,0,31.9,9.4,30.2,30.9l-46.4,0.1
	c0,7.9,8,12.9,17.7,12.9c9.8,0,14-5.1,15.7-8.1L230.2,59.2z"/>
<path class="st0" d="M238.4,21.1H252l-0.3,20.8h0.4c2.7-11.2,10.8-23.2,27.4-22.4v13.3c-15.6-3.6-27.9,6.3-27.9,15.2l-0.2,25.1
	h-13.1V21.1z"/>
<path class="st0" d="M98.4,121.1c12.8,0,19.2-8.1,19.2-16.4c0-8.5-6.4-16.2-19.5-16.2c-12.3,0-18.9,8.7-18.9,16.2
	C79.2,112.3,85.7,121.1,98.4,121.1 M66,75.5h12.9v22.7h0.3c3.2-13.6,14-20.8,25-20.8c12.3,0,24.9,8.8,24.9,27.3
	c0,18.7-12.6,27.3-24.9,27.3c-11.2,0-21.9-6.8-25-20.6h-0.3l0.3,45.3H66.1L66,75.5z"/>
<path class="st0" d="M134.1,79.2h13.6l-0.3,20.8h0.4c2.7-11.2,10.8-23.2,27.4-22.4v13.3c-15.6-3.6-27.9,6.3-27.9,15.2l-0.2,25.1
	h-13.1V79.2z"/>
<path class="st0" d="M203.5,119.8c10.3,0,18.7-7,18.7-15c0-7.9-8.3-14.9-18.7-14.9c-10.4,0-19.1,7-19.1,14.9
	C184.4,112.8,193,119.8,203.5,119.8 M203.4,77.4c16.4,0,29.2,12.2,29.2,27.4c0,15.1-12.9,27.3-29.2,27.3
	c-16.1,0-29.1-12.2-29.1-27.3C174.3,89.6,187.2,77.4,203.4,77.4"/>
<path class="st0" d="M233.7,79.1h4.6v-3.6h13.1v3.6h9.2v8.3h-9.1V105c0,14.3,7.7,14.6,14.5,14.6v11.9h-5.6
	c-12.3,0-21.9-7.5-21.9-22.9l-0.1-21.2h-4.6V79.1z"/>
<path class="st0" d="M296,119.8c10.3,0,18.7-7,18.7-15c0-7.9-8.3-14.9-18.7-14.9c-10.4,0-19.1,7-19.1,14.9
	C276.9,112.8,285.6,119.8,296,119.8 M295.9,77.4c16.4,0,29.2,12.2,29.2,27.4c0,15.1-12.9,27.3-29.2,27.3
	c-16.1,0-29.1-12.2-29.1-27.3C266.8,89.6,279.8,77.4,295.9,77.4"/>
<polygon class="st0" points="331,75.5 344.2,75.5 343.9,100.4 371.3,79 389.2,79 360.3,101.1 389.2,131.2 371.8,131.2 343.9,102 
	343.8,131.2 330.9,131.2 "/>
<path class="st0" d="M411,119.8c10.3,0,18.7-7,18.7-15c0-7.9-8.3-14.9-18.7-14.9c-10.4,0-19.1,7-19.1,14.9
	C391.9,112.8,400.6,119.8,411,119.8 M410.9,77.4c16.4,0,29.2,12.2,29.2,27.4c0,15.1-12.9,27.3-29.2,27.3
	c-16.1,0-29.1-12.2-29.1-27.3C381.8,89.6,394.8,77.4,410.9,77.4"/>
<polygon class="st0" points="457.9,131.3 445,131.3 445.1,75.5 458.3,75.5 "/>
<polygon class="st0" points="476.8,131.3 463.9,131.3 464,75.5 477.2,75.5 "/>
</svg>
