<svg xmlns="http://www.w3.org/2000/svg" xmlns:xlink="http://www.w3.org/1999/xlink" version="1.1" id="Ebene_1" x="0px" y="0px" viewBox="0 0 141.73 82.81" style="enable-background:new 0 0 141.73 82.81;" xml:space="preserve" width="160"  height="93" >
<style type="text/css">
	.st0{fill:#FFFFFF;}
</style>
<g>
	<polygon class="st0" points="31.78,48.28 44.36,39.14 41.31,34.93 28.73,44.07 33.53,29.28 28.59,27.68 23.79,42.46 18.98,27.67    14.04,29.28 18.85,44.06 6.26,34.92 3.21,39.13 15.81,48.28 0.3,48.28 0.3,53.47 47.32,53.47 47.32,48.28  "/>
	<polygon class="st0" points="47.34,82.38 0.28,82.38 0.28,63.8 23.82,56.96 47.34,63.8  "/>
	<path class="st0" d="M55.5,24.52V1.02h5.08l9.91,14.96V1.02h5.08v23.5h-5.08L60.58,9.6v14.93H55.5z"/>
	<path class="st0" d="M80.78,24.52V1.02h14.93v4.76h-9.78v4.6h8.67v4.51h-8.67v4.86h9.78v4.76H80.78z"/>
	<path class="st0" d="M98.28,1.02h5.37l3.08,10.19c0.41,1.4,0.79,2.79,1.17,5.11c0.38-2.32,0.76-3.65,1.18-5.11l2.89-10.19h5.75   l2.76,10.19c0.38,1.43,0.76,2.86,1.17,5.11c0.48-2.38,0.83-3.68,1.24-5.05l3.14-10.26h5.24l-7.18,23.5h-5.02L114.8,9.09   l-4.41,15.44h-5.05L98.28,1.02z"/>
	<g>
		<path class="st0" d="M55.5,53.46v-23.5h5.15v9.27h9.08v-9.27h5.15v23.5h-5.15V44h-9.08v9.46H55.5z"/>
		<path class="st0" d="M90.25,53.84c-6.8,0-11.46-4.95-11.46-12.13s4.7-12.16,11.5-12.16c6.83,0,11.53,4.96,11.53,12.13    S97.08,53.84,90.25,53.84z M90.31,34.5c-3.81,0-6.1,2.7-6.1,7.18c0,4.51,2.29,7.21,6.1,7.21c3.78,0,6.07-2.76,6.07-7.21    C96.38,37.2,94.09,34.5,90.31,34.5z"/>
		<path class="st0" d="M110.86,45.65v7.81h-5.15v-23.5h9.53c4.8,0,8,3.14,8,7.84c0,4.7-3.21,7.85-8,7.85H110.86z M110.86,34.54v6.54    h3.24c2.48,0,3.72-1.08,3.72-3.27c0-2.19-1.24-3.27-3.72-3.27H110.86z"/>
		<path class="st0" d="M126.81,53.46v-23.5h14.93v4.76h-9.78v4.6h8.67v4.51h-8.67v4.86h9.78v4.76H126.81z"/>
	</g>
	<g>
		<path class="st0" d="M62.84,58.45c5.05,0,8.23,2.8,8.23,7.24h-5.11c0-1.65-1.24-2.67-3.18-2.67c-2.1,0-3.43,0.95-3.43,2.51    c0,1.43,0.73,2.13,2.38,2.48l3.52,0.73c4.19,0.86,6.19,2.86,6.19,6.57c0,4.54-3.56,7.49-8.96,7.49c-5.24,0-8.64-2.83-8.64-7.24    h5.11c0,1.71,1.27,2.67,3.56,2.67c2.32,0,3.78-0.92,3.78-2.41c0-1.3-0.6-1.97-2.16-2.29l-3.59-0.73    c-4.19-0.86-6.35-3.24-6.35-7.08C54.2,61.47,57.79,58.45,62.84,58.45z"/>
		<path class="st0" d="M73,82.4l8.39-23.5h5.02l8.35,23.5H89.3l-1.65-4.96h-7.59l-1.68,4.96H73z M81.55,73.12h4.64l-1.68-5.02    c-0.25-0.79-0.54-1.71-0.64-2.29c-0.1,0.54-0.35,1.43-0.63,2.29L81.55,73.12z"/>
	</g>
	<path class="st0" d="M47.68,24.52C47.64,11.37,36.97,0,23.81,0C10.65,0-0.02,11.37-0.06,24.52H47.68z"/>
</g>
</svg>