<?xml version="1.0" encoding="utf-8"?>
<!-- Generator: Adobe Illustrator 28.0.0, SVG Export Plug-In . SVG Version: 6.00 Build 0)  -->
<svg version="1.1" id="Ebene_1" xmlns="http://www.w3.org/2000/svg" xmlns:xlink="http://www.w3.org/1999/xlink" x="0px" y="0px"
	 viewBox="0 0 1987.15 844.37" style="enable-background:new 0 0 1987.15 844.37;" xml:space="preserve">
<style type="text/css">
	.st0{fill:#FFFFFF;}
</style>
<g>
	<g>
		<path class="st0" d="M550.25,433.67c-0.95,0.68-1.52,1.12-2.12,1.5c-2.47,1.57-4.91,1.07-6.27-1.52c-0.9-1.72-2.46-2.4-3.96-3.66
			c2.51-0.06,5.03-0.2,7.54-0.15c2.63,0.05,5.27,0.13,7.87,0.48c2.61,0.35,5.17,1,7.74,1.58c2.56,0.58,5.1,1.25,8,1.96
			c-0.15-1.03-0.2-1.95-0.42-2.83c-2.58-10.09-9.17-16.39-18.83-19.69c-6.69-2.28-13.24-1.33-19.69,1.11
			c-0.59,0.22-1.16,0.5-1.36,0.59c-1.27-1.08-2.41-1.97-3.44-2.96c-3.9-3.74-8.43-6.35-13.75-7.38c-7.88-0.66-13.73,0.77-19.92,5.88
			c-4.79,4.29-8.14,7.87-9.79,14.37c-1.54,6.46-0.67,10.19-0.34,11.93c1.16,4.06,1.16,4.06,3.27,8.03
			c4.3,6.84,10.1,11.93,18.02,14.18c4.11,1.17,6.97,1.96,11.22,0.86c0.36-0.09,2.09-0.31,2.84-0.31c-0.55,0.62-0.86,1.02-1.24,1.37
			c-6.42,5.95-13.88,10.2-22.06,13.18c-11.98,4.37-24.4,6.32-37.12,6.37c-7.12,0.03-14.25,0.22-21.31-0.86
			c-6.63-1.01-13.29-1.92-19.86-3.22c-8.69-1.72-17.3-3.85-25.97-5.69c-6.56-1.39-13.13-2.79-19.75-3.84
			c-11.01-1.75-22.08-2.37-33.18-0.59c-1.48,0.24-2.97,0.37-4.84,0.6c0.55-1.48,1.06-2.69,1.45-3.94c0.35-1.14,0.69-2.3,0.79-3.48
			c0.11-1.33-0.39-1.82-1.67-1.74c-5.82,0.38-11.62,0.88-17.36,2.08c-6.35,1.32-12.56,3.07-18.67,5.21c-1.66,0.58-3.3,1.22-4.99,1.7
			c-0.95,0.27-1.97,0.25-2.88,0.35c-0.61-1.56,0.32-2.05,1.12-2.55c2.04-1.26,4.13-2.43,6.15-3.71c0.67-0.43,1.2-1.08,1.86-1.68
			c-1.16-1.1-2.26-0.82-3.21-0.6c-3.81,0.88-7.63,1.73-11.36,2.87c-4.04,1.24-7.97,2.82-11.97,4.21c-1.24,0.43-2.48,1.04-4.42,0.7
			c2.97-2.59,6.44-4.02,8.14-7.23c-0.69-1.19-1.74-1.06-2.65-1c-4.3,0.28-8.61,0.6-12.9,0.98c-2.28,0.2-4.55,0.55-7.36,0.9
			c0.65-0.66,0.88-1.06,1.22-1.22c2.01-0.98,4.06-1.87,6.05-2.87c0.64-0.32,1.16-0.89,2.14-1.68c-4.13-0.76-7.71-0.51-11.26-0.74
			c-3.45-0.22-6.98,0.22-10.95-0.93c3.05-2.43,6.83-1.85,9.96-4.25c-2.12-0.58-3.7-1.03-5.29-1.44c-2.55-0.65-5.14-1.2-7.67-1.93
			c-1.01-0.29-1.91-0.97-2.85-1.47c0.63-1.43,1.67-1.34,2.6-1.41c2.15-0.15,4.31-0.3,6.47-0.34c6.15-0.12,12.31-0.2,18.47-0.26
			c11.28-0.1,22.54-0.47,33.76-1.57c5.88-0.58,11.74-1.44,17.6-2.29c5.3-0.76,10.58-1.62,15.86-2.54
			c5.52-0.96,10.92-2.38,16.17-4.34c0.59-0.22,1.17-0.5,2.07-0.89c-0.94-0.44-1.59-0.82-2.29-1.06
			c-14.74-5.09-28.95-11.4-42.86-18.43c-12.48-6.31-24.57-13.3-36.22-21.03c-11.93-7.91-23.17-16.73-33.87-26.24
			c-12.01-10.68-23.15-22.21-34.12-33.93c-8.55-9.13-15.86-19.21-23.44-29.1c-3.68-4.81-7.82-9.27-11.76-13.88
			c-2.13-2.49-4.96-3.96-7.82-5.41c-6.2-3.14-12.37-6.35-17.89-10.62c-1.69-1.31-3.22-2.85-4.73-4.37c-0.72-0.72-1.5-1.65-0.87-2.75
			c0.68-1.19,1.96-1.01,3.03-0.75c2.63,0.65,5.26,1.34,7.84,2.19c6.75,2.22,13.4,4.76,20.21,6.76c7.06,2.07,14.29,3.45,21.71,3.35
			c0.97-0.01,2.08,0.23,2.95-1.14c-1.45-0.56-2.72-1.15-4.04-1.55c-15.01-4.51-29.55-10.27-43.64-17.1
			c-8.48-4.11-16.56-8.98-23.79-15.11c-1.27-1.08-2.49-2.24-3.61-3.48c-0.78-0.86-1.35-1.91-1.96-2.79c0.9-1.37,1.95-0.85,2.75-0.56
			c2.18,0.77,4.31,1.67,6.42,2.6c9.64,4.25,19.21,8.66,28.92,12.74c9.21,3.87,18.72,6.91,28.43,9.25c3.55,0.86,7.22,1.26,10.85,1.77
			c0.97,0.14,2.14,0.17,2.61-1.46c-0.71-0.47-1.44-1.06-2.26-1.47c-5.23-2.57-10.48-5.08-15.72-7.63
			c-12.56-6.13-25.01-12.47-36.74-20.1c-10.95-7.12-21.12-15.21-30.03-24.8c-0.98-1.05-1.89-2.17-2.73-3.34
			c-0.47-0.65-0.71-1.46-1.06-2.2c0.14-0.14,0.27-0.29,0.41-0.43c0.77,0.29,1.61,0.46,2.29,0.88c4.08,2.5,8.17,4.99,12.18,7.61
			c10.49,6.86,21.06,13.59,32.1,19.57c9.82,5.32,19.53,10.86,29.44,16.01c7,3.64,14.22,6.84,21.39,10.15
			c2.37,1.09,2.48,0.97,4.45,0.74c0.16-1.31-0.56-2.28-1.41-3.06c-1.76-1.62-3.52-3.27-5.44-4.68
			c-8.25-6.03-16.66-11.86-24.84-17.99c-18.82-14.1-33.74-31.6-44.96-52.25c-1.06-1.96-1.9-4.04-2.77-6.09
			c-0.29-0.69-0.37-1.47-0.58-2.37c1.5-0.05,2.16,0.81,2.82,1.52c4.5,4.87,8.94,9.79,13.44,14.65c7.48,8.09,15.28,15.86,23.68,23.02
			c11.07,9.43,22.48,18.42,34.23,26.98c7.55,5.5,15.12,10.99,23.33,15.5c0.91,0.5,1.83,0.97,2.8,1.33c0.52,0.2,1.14,0.13,2.02,0.21
			c-0.76-2.16-2.07-3.42-3.41-4.62c-6.07-5.43-12.22-10.78-18.24-16.27c-8.52-7.76-16.3-16.21-23.08-25.54
			c-5.84-8.04-10.62-16.69-14.75-25.71c-4.43-9.68-7.92-19.7-10.38-30.06c-0.61-2.55-0.84-5.2-1.14-7.82
			c-0.08-0.74,0.21-1.52,0.34-2.31c1.42,0.01,1.8,0.97,2.22,1.78c2.02,3.9,4.07,7.78,5.97,11.73c4.92,10.22,10.13,20.28,15.98,30
			c6.7,11.12,14.56,21.38,22.96,31.24c6.48,7.6,13.2,14.97,20.39,21.88c4.55,4.37,9.3,8.51,14.02,12.69
			c1.31,1.16,2.79,2.13,4.25,3.11c0.75,0.5,1.63,0.82,2.7,1.34c0.17-1.63-0.56-2.49-1.24-3.31c-3.39-4.14-6.76-8.29-10.23-12.36
			c-8.97-10.52-17.67-21.23-25.37-32.73c-8.87-13.25-15.72-27.39-19.59-42.92c-1.74-6.99-3.16-14.02-3.63-21.22
			c-0.1-1.43-0.08-2.88-0.03-4.31c0.03-0.75,0.24-1.5,0.4-2.42c1.4,0.62,1.52,1.7,1.84,2.63c1.63,4.84,3.14,9.72,4.86,14.53
			c5.18,14.43,12.03,27.98,21.15,40.36c9.34,12.68,19.08,25.03,29.18,37.1c9.43,11.27,18.79,22.6,28.36,33.74
			c11.24,13.09,23.12,25.61,35.47,37.66c12.07,11.78,24.42,23.27,38.07,33.2c7.73,5.63,15.89,10.7,23.98,15.84
			c6.26,3.98,12.64,7.79,19.07,11.49c9.68,5.58,19.43,11.03,29.19,16.46c5.65,3.14,11.35,6.19,17.1,9.15
			c8.58,4.42,17.23,8.71,25.83,13.1c0.95,0.48,1.77,0.49,2.74,0.14c6.62-2.44,13.43-4.1,20.41-5.08c4.26-0.6,8.48-0.01,12.62,0.88
			c3.35,0.71,6.64,1.71,9.91,2.74c1.53,0.48,2.94,0.55,4.45,0.09c11.07-3.37,22.18-6.6,33.2-10.13
			c13.97-4.48,27.92-9.06,41.78-13.86c10.17-3.52,20.29-7.25,30.27-11.28c8.57-3.45,16.98-7.33,25.36-11.24
			c14.67-6.86,29.35-13.69,44.46-19.54c7.67-2.97,15.31-6.01,22.96-9c10.33-4.04,19.36-10.08,27.42-17.65
			c5.54-5.21,10.84-10.63,15.25-16.85c5.86-8.27,9.96-17.44,13.51-26.88c1.32-3.51,2.68-7,4.1-10.48c0.37-0.91,0.69-2.3,1.99-2
			c1.28,0.29,0.94,1.67,0.98,2.65c0.18,4.92-0.76,9.7-1.81,14.46c-3.2,14.51-10.01,27.21-19.48,38.53
			c-4.35,5.2-8.94,10.21-13.4,15.32c-0.66,0.76-1.24,1.58-1.94,2.49c1.13,0.69,1.9,0.23,2.69-0.06c5.8-2.18,11.05-5.35,16.18-8.77
			c7.71-5.15,14.2-11.62,20.2-18.61c3.02-3.51,6.01-7.04,9.06-10.53c0.53-0.61,1.26-1.05,2.03-1.67c1.03,1.57,0.48,2.83-0.01,3.92
			c-1.27,2.84-2.54,5.69-4.11,8.37c-4.18,7.12-8.94,13.85-14.87,19.61c-4.23,4.1-8.93,7.72-13.44,11.54c-1.65,1.39-3.36,2.71-5,4.11
			c-0.56,0.48-1,1.11-1.7,1.91c2.4,0.57,4.16-0.29,5.94-0.8c12.25-3.55,23.88-8.55,34.83-15.11c0.92-0.55,1.83-1.32,3.04-0.99
			c0.7,1.13,0.1,2.08-0.31,2.99c-1.55,3.44-4.21,5.99-6.98,8.41c-3.99,3.5-8.54,6.17-13.24,8.57c-6.04,3.07-12.19,5.95-18.18,9.12
			c-2.66,1.41-5.07,3.31-7.55,5.05c-0.56,0.39-0.95,1.03-1.4,1.54c0.68,1.08,1.65,0.83,2.45,0.69c3.7-0.63,7.39-1.31,11.07-2.04
			c6.81-1.35,13.61-2.75,20.42-4.09c0.78-0.15,1.62-0.02,2.43-0.02c0.07,0.21,0.14,0.41,0.21,0.62c-0.7,0.54-1.34,1.22-2.13,1.6
			c-3.95,1.91-7.89,3.87-11.93,5.57c-5.58,2.36-11.21,4.63-16.9,6.7c-4.27,1.55-8.67,2.72-13.01,4.09
			c-1.14,0.36-2.26,0.78-3.33,1.31c-0.59,0.29-1.05,0.86-1.88,1.58c1.07,0.79,1.81,1.48,2.67,1.96c4.99,2.76,10.42,4.41,15.81,6.16
			c4.93,1.6,9.86,3.19,14.79,4.8c1.05,0.34,2.1,0.73,2.68,2.06c-0.54,0.26-0.99,0.61-1.48,0.68c-0.95,0.13-1.91,0.14-2.87,0.14
			c-9.28-0.02-18.56,0.02-27.84-0.12c-5.11-0.08-10.22-0.49-15.33-0.68c-1.1-0.04-2.26,0.06-3.31,0.37
			c-1.64,0.49-1.94,1.74-0.63,2.85c1.08,0.92,2.33,1.75,3.64,2.25c5.37,2.03,10.79,3.9,16.19,5.85c1.5,0.54,3.01,1.08,4.47,1.7
			c0.68,0.29,1.27,0.79,2.38,1.51c-1.23,0.5-1.91,0.95-2.62,1.03c-3.25,0.37-6.51,0.75-9.77,0.9c-4.39,0.2-5.63,0.15-10.03,0.23
			c-0.64,0.01-7.21-0.19-7.84-0.29c-5.87-0.71-9.46,0.88-15.43,2.35c-10.1,2.48-19.71,6.43-29.4,10.08
			c-7.91,2.98-15.7,6.28-23.58,9.36c-10.56,4.14-21.19,8.07-32.24,10.74c-7.91,1.91-15.85,3.73-23.8,5.47
			c-3.43,0.75-6.92,1.18-10.38,1.77c-0.45,0.08-0.88,0.23-1.1,0.29c1.25,1.51,2.79,2.84,3.67,4.52c2.48,4.74,3.96,9.74,2.51,15.17
			c-0.4,1.5-0.94,2.89-2.72,3.11c-0.21-0.15-0.42-0.22-0.46-0.34c-0.92-2.89-1.81-3.59-4.98-3.86c-1.27-0.11-2.59-0.02-3.8-0.35
			c-3.81-1.05-6.16-3.71-7.83-7.2c-1.41-2.94-3.03-5.79-4.72-8.58C552.38,435.66,551.28,434.79,550.25,433.67z"/>
	</g>
</g>
<g>
	<path class="st0" d="M246.36,605.48c-1.82-6.72-4.55-13.02-8.19-18.9c-3.64-5.88-7.95-10.99-12.92-15.33
		c-4.97-4.34-10.57-7.77-16.8-10.29c-6.23-2.52-12.85-3.78-19.85-3.78c-9.66,0-18.27,2.17-25.83,6.51
		c-7.56,4.34-13.9,10.08-19,17.22c-5.11,7.14-9.03,15.22-11.76,24.25s-4.1,18.31-4.1,27.83c0,10.08,1.43,19.53,4.31,28.35
		c2.87,8.82,6.96,16.49,12.28,23c5.32,6.51,11.76,11.66,19.32,15.43c7.56,3.78,15.96,5.67,25.2,5.67c7.28,0,14.1-1.33,20.48-3.99
		c6.37-2.66,12.04-6.16,17.01-10.5c4.97-4.34,9.17-9.35,12.6-15.02c3.43-5.67,5.78-11.51,7.04-17.53h2.52l-0.63,46.2h-2.52
		c-1.68-2.38-3.43-4.55-5.25-6.51c-1.82-1.96-3.08-2.94-3.78-2.94c-0.28,0-1.54,0.73-3.78,2.2c-2.24,1.47-5.46,3.08-9.66,4.83
		c-4.2,1.75-9.31,3.29-15.33,4.62c-6.02,1.33-12.95,2-20.79,2c-13.02,0-24.78-1.85-35.28-5.56c-10.5-3.71-19.42-8.96-26.77-15.75
		c-7.35-6.79-12.99-14.91-16.91-24.36c-3.92-9.45-5.88-19.84-5.88-31.18c0-2.52,0.17-5.39,0.52-8.61c0.35-3.22,0.98-6.65,1.89-10.29
		c0.91-3.64,2.17-7.46,3.78-11.45c1.61-3.99,3.67-8.01,6.19-12.08c2.94-4.76,6.58-9.31,10.92-13.65c4.34-4.34,9.45-8.15,15.33-11.45
		c5.88-3.29,12.53-5.91,19.95-7.88c7.42-1.96,15.75-2.94,24.99-2.94c8.4,0,15.75,0.77,22.05,2.31c6.3,1.54,11.55,3.22,15.75,5.04
		c4.2,1.82,7.42,3.5,9.66,5.04c2.24,1.54,3.5,2.31,3.78,2.31c0.28,0,0.8-0.31,1.57-0.94c0.77-0.63,1.61-1.4,2.52-2.31
		c0.91-0.91,1.85-1.96,2.83-3.15c0.98-1.19,1.89-2.42,2.73-3.68h2.31v47.04L246.36,605.48z"/>
	<path class="st0" d="M416.45,662.39c-4.2,9.52-9.91,17.78-17.12,24.78c-7.21,7-15.61,12.39-25.2,16.17
		c-9.59,3.78-19.78,5.67-30.56,5.67c-10.64,0-20.72-1.85-30.24-5.56c-9.52-3.71-17.85-8.96-24.99-15.75
		c-7.14-6.79-12.78-14.91-16.9-24.36c-4.13-9.45-6.2-19.84-6.2-31.18c0-12.04,2.17-22.85,6.51-32.45
		c4.34-9.59,10.19-17.71,17.53-24.36c7.35-6.65,15.96-11.76,25.83-15.33c9.87-3.57,20.27-5.35,31.19-5.35
		c11.9,0,22.58,2.1,32.02,6.3c9.45,4.2,17.46,9.84,24.04,16.91c6.58,7.07,11.62,15.22,15.12,24.46c3.5,9.24,5.25,18.9,5.25,28.98
		C422.75,642.51,420.65,652.87,416.45,662.39z M393.46,605.69c-2.17-8.68-5.46-16.55-9.87-23.62c-4.41-7.07-9.91-12.81-16.48-17.22
		c-6.58-4.41-14.35-6.62-23.31-6.62c-9.1,0-16.98,2.21-23.62,6.62c-6.65,4.41-12.11,10.12-16.38,17.12
		c-4.27,7-7.42,14.95-9.45,23.83c-2.03,8.89-3.04,17.89-3.04,26.99c0,9.52,1.12,18.69,3.36,27.51c2.24,8.82,5.56,16.59,9.97,23.31
		c4.41,6.72,9.94,12.11,16.59,16.17c6.65,4.06,14.38,6.09,23.2,6.09c8.82,0,16.49-2.24,23-6.72c6.51-4.48,11.93-10.25,16.27-17.32
		c4.34-7.07,7.59-15.02,9.77-23.84c2.17-8.82,3.25-17.64,3.25-26.46C396.71,622.98,395.63,614.37,393.46,605.69z"/>
	<path class="st0" d="M589.01,562.85c-3.15,1.96-5.57,4.97-7.25,9.03c-0.98,2.1-1.61,5.99-1.89,11.66
		c-0.28,5.67-0.56,11.73-0.84,18.17c-0.28,6.02-0.53,13.12-0.74,21.31c-0.21,8.19-0.32,16.98-0.32,26.36c0,3.92,0,8.4,0,13.44
		c0,4.9,0.03,9.91,0.11,15.02c0.07,5.11,0.1,10.18,0.1,15.22s0,9.59,0,13.65c0,0.56-0.18,1.02-0.52,1.37
		c-0.35,0.35-0.88,0.52-1.58,0.52c-1.12,0-2.38-0.7-3.78-2.1c-11.9-13.72-22.75-26.32-32.55-37.8
		c-9.8-11.48-19.15-22.43-28.04-32.87c-8.89-10.43-17.61-20.61-26.14-30.56c-8.54-9.94-17.57-20.23-27.09-30.87v88.62
		c0,7.14,0.17,13.58,0.52,19.32c0.35,5.74,1.22,10.01,2.62,12.81c1.54,3.22,3.95,5.64,7.25,7.24c3.29,1.61,7.8,2.77,13.54,3.47v2.1
		h-51.66v-2.1c3.36-0.42,6.72-1.29,10.08-2.62c3.36-1.33,6.02-3.53,7.98-6.62c1.96-2.94,3.22-7.28,3.78-13.02
		c0.56-5.74,0.98-12.6,1.26-20.58c0.28-6.02,0.49-13.12,0.63-21.31c0.14-8.19,0.21-16.97,0.21-26.36c0-4.06,0-7.42,0-10.08
		c0-2.66,0-5.25,0-7.77c0-2.52,0-5.11,0-7.77c0-2.8-0.07-6.23-0.21-10.29c-0.42-4.06-1.4-7.38-2.94-9.98
		c-1.54-2.59-3.36-4.62-5.46-6.09c-2.1-1.47-4.38-2.52-6.83-3.15c-2.45-0.63-4.8-1.08-7.03-1.36v-2.1h42.63l99.54,116.34v-71.4
		c0-5.6-0.07-10.95-0.21-16.07c-0.14-5.11-0.77-9.13-1.89-12.08c-1.4-3.92-3.88-7.1-7.46-9.55c-3.57-2.45-8.71-4.16-15.43-5.14v-2.1
		h52.08v2.1C596.32,559.56,592.16,560.89,589.01,562.85z"/>
	<path class="st0" d="M773.43,657.98c-2.52,7.98-5.95,14.84-10.29,20.58c-4.34,5.74-9.38,10.5-15.12,14.28
		c-5.74,3.78-11.83,6.79-18.27,9.03c-6.44,2.24-13.09,3.82-19.95,4.72c-6.86,0.91-13.51,1.37-19.95,1.37H613.2v-2.1
		c3.5-0.42,6.89-1.33,10.18-2.73c3.29-1.4,5.78-3.08,7.46-5.04c0.7-0.7,1.22-1.89,1.58-3.57c0.35-1.68,0.66-3.57,0.94-5.67
		c0.28-2.1,0.49-4.34,0.63-6.72c0.14-2.38,0.21-4.69,0.21-6.93c0-1.96,0.03-4.62,0.1-7.98c0.07-3.36,0.14-7.04,0.21-11.02
		c0.07-3.99,0.11-8.08,0.11-12.29c0-4.34,0-8.4,0-12.18v-40.95c0-2.52,0-5.04,0-7.56c0-2.52-0.11-4.86-0.32-7.04
		c-0.21-2.17-0.52-4.13-0.95-5.88c-0.42-1.75-1.05-3.11-1.89-4.09c-2.1-2.52-4.62-4.27-7.56-5.25c-2.94-0.98-6.23-1.68-9.87-2.1
		v-2.1c5.88,0,14.35-0.03,25.41-0.1c11.06-0.07,24.43-0.11,40.11-0.11c4.48,0,8.96,0,13.44,0c4.62,0,9.24,0.21,13.86,0.63
		c4.62,0.42,9.24,1.12,13.86,2.1c4.62,0.98,9.17,2.45,13.65,4.41c5.88,2.52,11.41,5.74,16.59,9.66c5.18,3.92,9.69,8.58,13.54,13.97
		c3.85,5.39,6.93,11.62,9.24,18.69c2.31,7.07,3.46,15.16,3.46,24.25C777.21,640.76,775.95,650,773.43,657.98z M747.6,606.95
		c-2.52-7.7-6.02-14.66-10.5-20.9c-4.48-6.23-9.8-11.51-15.96-15.85c-6.16-4.34-12.88-7.14-20.16-8.4c-2.8-0.56-5.88-1.01-9.24-1.37
		c-3.36-0.35-7.49-0.52-12.39-0.52c-1.68,0-3.5,0.04-5.46,0.1c-1.96,0.07-3.88,0.21-5.77,0.42c-1.89,0.21-3.64,0.39-5.25,0.53
		c-1.61,0.14-2.91,0.35-3.89,0.63c-0.7,6.86-1.12,16.31-1.26,28.35c-0.14,12.04-0.21,26.39-0.21,43.05c0,8.96,0,17.15,0,24.57
		c0,7.28,0.07,13.23,0.21,17.85c0,1.96,0.11,4.09,0.32,6.41c0.21,2.31,0.45,4.55,0.73,6.72c0.28,2.17,0.74,4.13,1.37,5.88
		c0.63,1.75,1.37,3.04,2.21,3.88c2.8,2.8,6.33,4.59,10.61,5.36c4.27,0.77,8.29,1.15,12.07,1.15c3.5,0,7.1-0.17,10.82-0.52
		c3.71-0.35,7.17-1.01,10.39-2c15.12-4.34,26.42-12.77,33.92-25.3c7.49-12.53,11.24-27.96,11.24-46.31
		C751.38,622.56,750.12,614.65,747.6,606.95z"/>
	<path class="st0" d="M946.8,662.39c-4.2,9.52-9.91,17.78-17.12,24.78c-7.21,7-15.61,12.39-25.2,16.17
		c-9.59,3.78-19.78,5.67-30.55,5.67c-10.64,0-20.72-1.85-30.24-5.56c-9.52-3.71-17.85-8.96-24.99-15.75
		c-7.14-6.79-12.78-14.91-16.91-24.36c-4.13-9.45-6.2-19.84-6.2-31.18c0-12.04,2.17-22.85,6.51-32.45
		c4.34-9.59,10.19-17.71,17.54-24.36c7.35-6.65,15.96-11.76,25.83-15.33c9.87-3.57,20.27-5.35,31.19-5.35
		c11.9,0,22.57,2.1,32.02,6.3s17.46,9.84,24.04,16.91c6.58,7.07,11.62,15.22,15.12,24.46c3.5,9.24,5.25,18.9,5.25,28.98
		C953.1,642.51,951,652.87,946.8,662.39z M923.81,605.69c-2.17-8.68-5.46-16.55-9.87-23.62c-4.41-7.07-9.91-12.81-16.48-17.22
		c-6.58-4.41-14.35-6.62-23.31-6.62c-9.1,0-16.98,2.21-23.62,6.62c-6.65,4.41-12.11,10.12-16.38,17.12
		c-4.27,7-7.42,14.95-9.45,23.83c-2.03,8.89-3.04,17.89-3.04,26.99c0,9.52,1.12,18.69,3.36,27.51c2.24,8.82,5.56,16.59,9.97,23.31
		c4.41,6.72,9.94,12.11,16.59,16.17c6.65,4.06,14.39,6.09,23.21,6.09c8.82,0,16.49-2.24,23-6.72c6.51-4.48,11.93-10.25,16.28-17.32
		c4.34-7.07,7.59-15.02,9.76-23.84c2.17-8.82,3.25-17.64,3.25-26.46C927.06,622.98,925.97,614.37,923.81,605.69z"/>
	<path class="st0" d="M1079.51,707.96c-1.26-1.26-2.17-2.21-2.73-2.83c-0.56-0.63-1.19-1.37-1.89-2.21
		c-0.7-0.84-1.58-2.06-2.62-3.67c-1.05-1.61-2.7-4.02-4.94-7.25c-2.66-3.92-5.01-7.46-7.03-10.61c-2.03-3.15-4.1-6.26-6.2-9.34
		c-2.1-3.08-4.38-6.2-6.83-9.34c-2.45-3.15-5.35-6.68-8.71-10.61c-2.8-3.22-5.85-6.23-9.13-9.03c-3.29-2.8-6.76-4.55-10.4-5.25
		c-2.66-0.56-4.69-0.84-6.09-0.84c-1.26,0-2.87-0.07-4.83-0.21c0,9.1,0,17.01,0,23.73s0.07,12.39,0.21,17.01
		c0.14,4.48,0.28,8.33,0.42,11.55c0.14,3.22,0.91,5.88,2.31,7.98c1.12,1.82,3.29,3.67,6.51,5.56c3.22,1.89,7.7,2.98,13.44,3.26v2.1
		h-67.2v-2.1c3.5-0.56,6.86-1.4,10.08-2.52c3.22-1.12,5.74-2.8,7.56-5.04c0.7-0.84,1.26-2.1,1.68-3.78
		c0.42-1.68,0.74-3.57,0.95-5.67c0.21-2.1,0.38-4.34,0.53-6.72c0.14-2.38,0.21-4.69,0.21-6.93c0-1.96,0.03-4.62,0.1-7.98
		c0.07-3.36,0.14-7.04,0.21-11.02c0.07-3.99,0.11-8.08,0.11-12.29c0-4.34,0-8.4,0-12.18v-40.95c0-2.52-0.04-5.07-0.11-7.67
		c-0.07-2.59-0.21-5.04-0.42-7.35c-0.21-2.31-0.56-4.41-1.05-6.3c-0.49-1.89-1.16-3.25-2-4.09c-2.1-2.24-4.45-3.74-7.04-4.52
		c-2.59-0.77-5.77-1.43-9.55-1.99v-2.1c1.12,0,3.99,0,8.61,0c4.76,0,10.15-0.03,16.17-0.1c6.02-0.07,12.04-0.11,18.06-0.11
		c6.02,0,10.92,0,14.7,0c9.38,0,17.71,0.28,24.99,0.84c7.28,0.56,13.93,2.45,19.95,5.67c6.16,3.22,11.13,7.6,14.91,13.12
		c3.78,5.53,5.67,12.5,5.67,20.9c0,5.18-0.94,9.84-2.83,13.96c-1.89,4.13-4.41,7.77-7.56,10.92c-3.15,3.15-6.83,5.85-11.03,8.08
		c-4.2,2.24-8.61,4.13-13.23,5.67v0.63c2.38,1.26,4.69,3.08,6.93,5.46c2.24,2.38,4.41,5.04,6.51,7.98
		c3.64,5.32,7.59,11.06,11.87,17.22c4.27,6.16,8.08,11.62,11.45,16.38c5.18,7.28,10.22,12.6,15.12,15.96
		c4.9,3.36,10.64,5.53,17.22,6.51v2.1H1079.51z M1058.72,577.13c-3.5-5.46-8.61-9.8-15.33-13.02c-3.36-1.54-6.9-2.66-10.61-3.36
		c-3.71-0.7-7.6-1.05-11.65-1.05c-2.94,0-5.32,0.07-7.14,0.21c-1.82,0.14-3.22,0.28-4.2,0.42c-0.14,0.84-0.28,1.58-0.42,2.21
		c-0.14,0.63-0.25,1.44-0.31,2.42c-0.07,0.98-0.14,2.35-0.21,4.09c-0.07,1.75-0.18,4.24-0.32,7.46c-0.14,4.9-0.25,10.43-0.31,16.59
		c-0.07,6.16-0.11,12.11-0.11,17.85c0,5.74,0,10.78,0,15.12c0,4.2,0,6.86,0,7.98c5.74,0,11.09-0.24,16.07-0.74
		c4.97-0.49,9.76-1.5,14.38-3.04c4.48-1.4,8.33-3.29,11.55-5.67c3.22-2.38,5.84-5.07,7.88-8.08c2.03-3.01,3.53-6.26,4.51-9.76
		c0.98-3.5,1.47-7.14,1.47-10.92C1063.97,588.82,1062.22,582.59,1058.72,577.13z"/>
	<path class="st0" d="M1299.75,593.09c-5.74-7.14-11.2-13.23-16.38-18.27c-5.18-5.04-10.22-8.75-15.12-11.13
		c-2.38-1.12-6.69-2.06-12.92-2.84c-6.23-0.77-13.48-1.15-21.74-1.15c-1.4,0-3.01,0.04-4.83,0.1c-1.82,0.07-3.57,0.14-5.25,0.21
		c-1.68,0.07-3.25,0.14-4.72,0.21c-1.47,0.07-2.56,0.11-3.25,0.11c-0.14,0.84-0.32,1.68-0.53,2.52c-0.21,0.84-0.39,1.82-0.53,2.94
		c-0.14,1.12-0.28,2.56-0.42,4.3c-0.14,1.75-0.28,3.88-0.42,6.41c-0.14,4.9-0.25,10.26-0.31,16.07c-0.07,5.81-0.11,11.31-0.11,16.48
		c0,5.18,0,9.66,0,13.44c0,3.64,0,5.81,0,6.51c0.42,0,1.68,0,3.78,0c2.24,0,4.72-0.07,7.46-0.21c2.73-0.14,5.56-0.32,8.5-0.53
		c2.94-0.21,5.39-0.52,7.35-0.94c5.04-1.12,9.03-2.59,11.97-4.41c2.94-1.82,5.25-3.99,6.93-6.51c1.68-2.52,2.87-5.28,3.57-8.3
		c0.7-3.01,1.33-6.26,1.89-9.76h2.52v67.62h-2.52c-1.12-4.48-2.73-9.2-4.83-14.17c-2.1-4.97-4.62-8.78-7.56-11.45
		c-2.66-2.38-5.5-4.16-8.51-5.35c-3.01-1.19-6.55-1.92-10.6-2.21c-2.1-0.14-3.92-0.24-5.46-0.32c-1.54-0.07-3.01-0.1-4.41-0.1
		c-1.4,0-2.87,0-4.41,0c-1.54,0-3.43,0-5.67,0c0,4.48,0,8.96,0,13.44c0,4.34,0,8.54,0,12.6c0,3.92,0.03,7.53,0.11,10.81
		c0.07,3.29,0.1,6.13,0.1,8.5c0.14,4.48,0.38,8.71,0.74,12.71c0.35,3.99,1.15,6.97,2.42,8.92c1.26,1.96,3.39,3.47,6.4,4.52
		c3.01,1.05,7.38,1.72,13.12,2v2.1h-67.2v-2.1c3.5-0.56,6.75-1.47,9.76-2.73c3.01-1.26,5.49-3.01,7.46-5.25
		c0.7-0.84,1.26-2.06,1.68-3.67c0.42-1.61,0.8-3.46,1.16-5.57c0.35-2.1,0.59-4.3,0.74-6.61c0.14-2.31,0.21-4.58,0.21-6.83
		c0-1.96,0.03-4.62,0.1-7.98c0.07-3.36,0.14-7.04,0.21-11.02c0.07-3.99,0.11-8.08,0.11-12.29c0-4.34,0-8.4,0-12.18v-40.95
		c0-2.52-0.04-5.11-0.11-7.77c-0.07-2.66-0.21-5.18-0.42-7.56c-0.21-2.38-0.56-4.52-1.05-6.41c-0.49-1.89-1.16-3.25-2-4.09
		c-2.1-2.24-4.34-3.67-6.72-4.31c-2.38-0.63-5.46-1.22-9.24-1.78v-2.1h116.76l14.28,35.28L1299.75,593.09z"/>
	<path class="st0" d="M1308.73,707.96v-2.1c3.5-0.56,6.75-1.47,9.76-2.73c3.01-1.26,5.57-3.08,7.67-5.46
		c0.7-0.84,1.22-2.03,1.58-3.57c0.35-1.54,0.63-3.36,0.84-5.46c0.21-2.1,0.35-4.3,0.42-6.61c0.07-2.31,0.11-4.58,0.11-6.83
		c0-1.96,0.03-4.62,0.1-7.98c0.07-3.36,0.14-7.04,0.21-11.02c0.07-3.99,0.11-8.08,0.11-12.29c0-4.34,0-8.4,0-12.18v-40.95
		c0-2.52,0-5.04,0-7.56c0-2.52-0.11-4.86-0.32-7.04c-0.21-2.17-0.52-4.13-0.94-5.88c-0.42-1.75-1.05-3.11-1.89-4.09
		c-1.96-2.38-4.38-4.09-7.25-5.14c-2.87-1.05-6.13-1.79-9.76-2.21v-2.1h62.79v2.1c-2.94,0.42-6.09,1.19-9.45,2.31
		c-3.36,1.12-5.95,3.36-7.77,6.72c-1.26,2.38-1.93,5.39-2,9.03c-0.07,3.64-0.18,7.07-0.32,10.29c0,3.5-0.04,6.97-0.1,10.39
		c-0.07,3.43-0.11,6.9-0.11,10.4c0,3.5,0,7.14,0,10.92c0,3.64,0,7.63,0,11.97v47.46c0,4.06,0.07,7.98,0.21,11.76
		c0.14,3.78,0.77,6.44,1.89,7.98c1.68,2.38,4.34,4.2,7.98,5.46c3.64,1.26,6.93,2.03,9.87,2.31v2.1H1308.73z"/>
	<path class="st0" d="M1528.81,707.96h-134.82v-2.1c3.5-0.56,6.96-1.47,10.4-2.73c3.43-1.26,6.12-3.01,8.08-5.25
		c0.7-0.84,1.29-2.06,1.79-3.67c0.49-1.61,0.87-3.46,1.15-5.57c0.28-2.1,0.53-4.3,0.74-6.61c0.21-2.31,0.32-4.58,0.32-6.83
		c0-1.96,0.03-4.62,0.1-7.98c0.07-3.36,0.14-7.04,0.21-11.02c0.07-3.99,0.11-8.08,0.11-12.29c0-4.34,0-8.4,0-12.18v-40.74
		c0-2.52,0-4.97,0-7.35c0-2.52-0.11-4.86-0.32-7.04c-0.21-2.17-0.52-4.09-0.95-5.77c-0.42-1.68-1.05-3.01-1.89-3.99
		c-1.96-2.38-4.59-4.2-7.88-5.46c-3.29-1.26-6.76-2.1-10.39-2.52v-2.1h66.99v2.1c-1.82,0.28-3.99,0.7-6.51,1.26
		c-2.52,0.56-4.9,1.47-7.14,2.73c-2.24,1.26-4.17,3.04-5.78,5.36c-1.61,2.31-2.49,5.35-2.62,9.13c-0.14,4.9-0.25,9.38-0.31,13.44
		c-0.07,4.06-0.14,8.05-0.21,11.97c-0.07,3.92-0.11,7.98-0.11,12.18s0,8.89,0,14.07c0,4.76,0,9.1,0,13.02c0,3.78,0,7.49,0,11.13
		c0,3.64,0.03,7.39,0.11,11.23c0.07,3.85,0.1,8.16,0.1,12.92c0.14,4.48,0.32,8.75,0.53,12.81c0.21,4.06,0.94,7.07,2.21,9.03
		c0.56,0.7,1.68,1.4,3.36,2.1c1.68,0.7,3.71,1.3,6.09,1.79c2.38,0.49,4.97,0.91,7.77,1.26c2.8,0.35,5.6,0.52,8.4,0.52
		c1.12,0,2.9-0.03,5.35-0.1c2.45-0.07,5.15-0.21,8.08-0.42c2.94-0.21,5.95-0.53,9.03-0.95c3.08-0.42,5.81-0.98,8.19-1.68
		c5.6-1.54,10.25-3.57,13.97-6.09c3.71-2.52,6.89-5.42,9.55-8.72c2.66-3.29,4.9-6.86,6.72-10.71c1.82-3.85,3.57-7.88,5.25-12.07
		l2.1,0.63L1528.81,707.96z"/>
	<path class="st0" d="M1660.89,707.96v-2.31c6.02-0.28,11.06-1.54,15.12-3.78c4.06-2.24,6.79-4.83,8.19-7.77
		c0.84-1.82,1.47-4.09,1.89-6.82c0.42-2.73,0.7-5.49,0.84-8.3c0.28-9.24,0.42-18.06,0.42-26.46c0-8.4,0-17.08,0-26.04v-59.43
		c-4.62,10.36-8.86,19.88-12.71,28.56c-3.85,8.68-7.67,17.15-11.45,25.41c-3.78,8.26-7.6,16.7-11.45,25.31
		c-3.85,8.61-8.08,18.1-12.71,28.46c-0.7,1.4-1.68,3.61-2.94,6.61c-1.26,3.01-2.52,6.09-3.78,9.24c-1.26,3.15-2.45,6.02-3.57,8.61
		c-1.12,2.59-1.82,4.3-2.1,5.14h-1.26c-4.48-10.36-8.92-20.65-13.33-30.87c-4.41-10.22-8.71-20.05-12.92-29.5
		c-4.2-9.45-8.12-18.3-11.76-26.56c-3.64-8.26-6.93-15.61-9.87-22.05c-2.94-6.44-5.36-11.83-7.25-16.17
		c-1.89-4.34-3.19-7.28-3.88-8.82c0,9.24-0.04,17.4-0.11,24.46c-0.07,7.07-0.14,14.07-0.21,21c-0.07,6.93-0.1,14.25-0.1,21.95
		c0,7.7,0,16.66,0,26.88c0,6.58,0.21,12.29,0.63,17.12c0.42,4.83,1.47,8.89,3.15,12.18c1.68,3.29,4.23,5.88,7.67,7.77
		c3.43,1.89,8.15,3.25,14.17,4.1v2.1h-54.81v-2.1c4.9-0.98,8.89-2.42,11.97-4.31c3.08-1.89,5.53-4.51,7.35-7.88
		c1.82-3.36,3.15-7.52,3.99-12.5c0.84-4.97,1.33-11.02,1.47-18.17c0.28-6.02,0.49-13.12,0.63-21.31c0.14-8.19,0.21-16.97,0.21-26.36
		c0-4.06,0-7.49,0-10.29c0-2.8,0-5.46,0-7.98c0-2.66,0-5.39,0-8.19c0-2.8-0.07-6.23-0.21-10.29c-0.14-3.92-0.98-7.1-2.52-9.55
		c-1.54-2.45-3.36-4.37-5.46-5.78c-2.1-1.4-4.34-2.42-6.72-3.04c-2.38-0.63-4.41-1.08-6.09-1.36v-2.1h44.73L1636.32,671
		c6.16-13.3,12.18-26.53,18.06-39.69c5.88-13.16,11.16-25.06,15.86-35.7c4.69-10.64,8.54-19.49,11.55-26.57
		c3.01-7.07,4.73-11.16,5.15-12.29h44.73v2.1c-5.74,0.14-10.12,1.33-13.12,3.57c-3.01,2.24-5.08,4.9-6.2,7.98
		c-0.84,2.38-1.4,6.09-1.68,11.13c-0.28,5.04-0.49,10.01-0.63,14.91c-0.14,6.72-0.21,13.23-0.21,19.53c0,6.3,0,12.67,0,19.11
		c0,7.56,0,15.12,0,22.68c0,7.42,0.07,15.26,0.21,23.52c0,2.66,0.17,5.35,0.53,8.08c0.35,2.73,0.94,4.87,1.78,6.41
		c0.14,0.28,0.66,0.94,1.58,2c0.91,1.05,2.21,2.17,3.88,3.36c1.68,1.19,3.78,2.24,6.3,3.15c2.52,0.91,5.46,1.44,8.82,1.58v2.1
		H1660.89z"/>
	<path class="st0" d="M1847.73,684.65c-2.73,5.32-6.51,9.87-11.34,13.65s-10.61,6.58-17.33,8.4c-6.72,1.82-14.07,2.73-22.05,2.73
		c-6.86,0-12.74-0.42-17.64-1.26c-4.9-0.84-8.96-1.85-12.18-3.04c-3.22-1.19-5.64-2.27-7.25-3.25c-1.61-0.98-2.62-1.47-3.04-1.47
		s-1.33,0.84-2.73,2.52c-1.4,1.68-2.66,3.29-3.78,4.83h-1.89l-0.63-41.79h2.1c1.26,3.78,2.87,7.46,4.83,11.03
		c1.96,3.57,4.09,6.93,6.41,10.08c2.31,3.15,4.76,5.92,7.35,8.29c2.59,2.38,5.07,4.2,7.46,5.46c2.38,1.26,5.53,2.52,9.45,3.78
		c3.92,1.26,7.7,1.89,11.34,1.89c10.36,0,18.76-2.83,25.2-8.5c6.44-5.67,9.66-13.33,9.66-23c0-3.92-0.63-7.35-1.89-10.29
		c-1.26-2.94-2.98-5.49-5.14-7.67c-2.17-2.17-4.73-4.02-7.67-5.57c-2.94-1.54-6.09-2.94-9.45-4.2c-3.36-1.26-6.3-2.31-8.82-3.15
		c-2.52-0.84-4.87-1.64-7.04-2.42c-2.17-0.77-4.41-1.54-6.72-2.31c-2.31-0.77-5.08-1.78-8.29-3.04c-3.64-1.4-7.14-3.32-10.5-5.77
		c-3.36-2.45-6.3-5.32-8.82-8.61c-2.52-3.29-4.55-6.93-6.09-10.92c-1.54-3.99-2.31-8.22-2.31-12.71c0-7.56,1.38-14.07,4.14-19.53
		c2.76-5.46,6.47-10.01,11.13-13.65c4.66-3.64,10.03-6.33,16.12-8.08c6.09-1.75,12.5-2.62,19.21-2.62c6.3,0,11.69,0.52,16.17,1.58
		c4.48,1.05,8.15,2.2,11.03,3.46c2.87,1.26,5.04,2.42,6.51,3.46c1.47,1.05,2.27,1.58,2.42,1.58c0.42,0,1.29-0.84,2.62-2.52
		c1.33-1.68,2.55-3.36,3.67-5.04h2.31v38.85h-2.31c-1.68-4.62-3.85-9.2-6.51-13.75c-2.66-4.55-5.74-8.61-9.24-12.18
		c-3.5-3.57-7.49-6.47-11.97-8.71c-4.48-2.24-9.45-3.36-14.91-3.36c-4.34,0-8.44,0.63-12.29,1.89c-3.85,1.26-7.21,3.15-10.08,5.67
		c-2.87,2.52-5.11,5.64-6.72,9.34c-1.61,3.71-2.42,7.95-2.42,12.71c0,7.42,2.23,13.37,6.7,17.85c4.47,4.48,10.26,8.05,17.39,10.71
		c2.79,1.12,5.41,2.1,7.85,2.94s4.85,1.65,7.23,2.42c2.37,0.77,4.78,1.58,7.23,2.42s4.99,1.75,7.65,2.73
		c9.5,3.5,16.86,8.58,22.1,15.23c5.24,6.65,7.86,14.95,7.86,24.88C1851.82,673.31,1850.46,679.33,1847.73,684.65z"/>
</g>
</svg>
