<?xml version="1.0" encoding="utf-8"?>
<!-- Generator: Adobe Illustrator 28.0.0, SVG Export Plug-In . SVG Version: 6.00 Build 0)  -->
<svg version="1.1" id="TCS_Logo" xmlns="http://www.w3.org/2000/svg" xmlns:xlink="http://www.w3.org/1999/xlink" x="0px" y="0px"
	 viewBox="0 0 110 110" style="enable-background:new 0 0 110 110;" xml:space="preserve">
<style type="text/css">
	.st0{fill:#FFFFFF;}
</style>
<path class="st0" d="M67.607,26.549c0.124-2.682,0.032-4.811,0.024-4.982l-0.027-0.587c-0.024-0.514-0.337-0.971-0.809-1.178
	l-0.539-0.237c-0.183-0.08-4.551-1.964-11.729-1.964c-7.177,0-11.549,1.884-11.732,1.964l-0.539,0.237
	c-0.472,0.207-0.785,0.664-0.809,1.178l-0.027,0.588c-0.008,0.171-0.1,2.3,0.025,4.982C29.997,31.585,22,43.02,22,56.331
	c0,17.961,14.562,32.523,32.528,32.523c17.961,0,32.523-14.562,32.523-32.523C87.051,43.02,79.054,31.585,67.607,26.549z
	 M43.706,22.12c0.008-0.277,0.181-0.518,0.441-0.613c1.2-0.44,4.888-1.603,10.38-1.603c5.494,0,9.181,1.163,10.379,1.603
	c0.259,0.095,0.431,0.335,0.439,0.611c0.049,1.719,0.129,8.02-1.186,11.818c-2.413,6.936-8.169,9.43-9.399,9.893
	c-0.151,0.057-0.317,0.057-0.468,0c-1.23-0.463-6.986-2.956-9.399-9.893C43.579,30.139,43.657,23.842,43.706,22.12z M28.384,68.421
	c-1.703-3.677-2.655-7.772-2.655-12.09c0-11.333,6.548-21.128,16.063-25.827c0.201,1.485,0.495,2.944,0.926,4.188
	c2.166,6.228,7.19,9.438,9.934,10.783l-0.25,5.507c-0.02,0.447-0.267,0.844-0.642,1.089c-1.1,0.716-1.906,1.846-2.196,3.168
	c-0.044,0.2-0.09,0.526-0.11,0.849c-0.027,0.438-0.254,0.838-0.623,1.074L30.346,68.987C29.656,69.429,28.729,69.164,28.384,68.421z
	 M78.065,72.916c-5.21,7.385-13.811,12.209-23.537,12.209c-9.731,0-18.332-4.825-23.542-12.21c-0.472-0.668-0.235-1.602,0.491-1.979
	l19.475-10.091c0.399-0.207,0.869-0.19,1.27,0.014c0.692,0.352,1.476,0.553,2.306,0.553c0.826,0,1.61-0.197,2.302-0.549
	c0.401-0.204,0.869-0.22,1.268-0.014l19.476,10.087C78.3,71.314,78.537,72.248,78.065,72.916z M78.705,68.987L60.222,57.161
	c-0.364-0.233-0.597-0.626-0.621-1.058c-0.019-0.326-0.064-0.657-0.108-0.86c-0.289-1.324-1.096-2.455-2.197-3.172
	c-0.375-0.244-0.621-0.642-0.641-1.088l-0.252-5.508c2.744-1.346,7.766-4.556,9.933-10.785c0.43-1.243,0.724-2.702,0.925-4.187
	c9.514,4.699,16.062,14.496,16.062,25.828c0,4.317-0.952,8.413-2.655,12.089C80.322,69.164,79.395,69.429,78.705,68.987z
	 M61.313,32.742h-4.222c-0.225,0-0.407,0.182-0.407,0.407v4.222c0,0.225-0.182,0.407-0.407,0.407h-3.503
	c-0.225,0-0.407-0.182-0.407-0.407v-4.222c0-0.225-0.182-0.407-0.407-0.407h-4.222c-0.225,0-0.407-0.182-0.407-0.407v-3.503
	c0-0.225,0.182-0.407,0.407-0.407h4.222c0.225,0,0.407-0.182,0.407-0.407v-4.221c0-0.225,0.182-0.407,0.407-0.407h3.502
	c0.224,0,0.407,0.182,0.407,0.406l0.001,4.222c0,0.224,0.182,0.406,0.407,0.406h4.222c0.225,0,0.407,0.182,0.407,0.407v3.503
	C61.719,32.56,61.537,32.742,61.313,32.742z M40.425,47.322v9.989c0,0.225-0.182,0.407-0.407,0.407h-2.495
	c-0.225,0-0.407-0.182-0.407-0.407v-9.989c0-0.225-0.182-0.407-0.407-0.407h-3.355c-0.225,0-0.407-0.182-0.407-0.407v-1.997
	c0-0.225,0.182-0.407,0.407-0.407h10.831c0.225,0,0.407,0.182,0.407,0.407v1.997c0,0.225-0.182,0.407-0.407,0.407h-3.355
	C40.607,46.916,40.425,47.098,40.425,47.322z M59.296,70.653h-2.643c-0.203,0-0.374-0.152-0.4-0.353
	c-0.129-0.985-0.82-1.54-2.005-1.54c-1.09,0-1.797,0.516-1.797,1.281c0,0.899,0.726,1.185,2.715,1.683
	c2.62,0.65,4.914,1.358,4.914,4.34c0,2.658-2.18,4.36-5.564,4.36c-3.361,0-5.479-1.536-5.682-4.297
	c-0.018-0.239,0.167-0.445,0.407-0.445h2.712c0.205,0,0.38,0.153,0.401,0.357c0.121,1.16,0.863,1.746,2.238,1.746
	c1.243,0,2.008-0.555,2.008-1.434c0-1.032-0.784-1.242-2.601-1.72c-2.6-0.669-4.952-1.339-4.952-4.283
	c0-2.486,2.065-4.149,5.334-4.149c3.255,0,5.143,1.384,5.321,4.035C59.718,70.462,59.526,70.653,59.296,70.653z M76.815,49.083
	l-2.634,0c-0.189,0-0.36-0.129-0.396-0.314c-0.245-1.28-1.13-2.019-2.459-2.019c-1.797,0-2.906,1.606-2.906,4.245
	s1.109,4.245,2.868,4.245c1.332,0,2.234-0.758,2.51-2.092c0.039-0.189,0.215-0.318,0.407-0.318h2.651
	c0.25,0,0.438,0.224,0.403,0.472c-0.436,3.088-2.674,4.805-5.971,4.805c-3.919,0-6.328-2.696-6.328-7.113
	c0-4.417,2.428-7.113,6.367-7.113c3.353,0,5.577,1.841,5.895,4.762C77.247,48.88,77.052,49.083,76.815,49.083z"/>
<g>
</g>
<g>
</g>
<g>
</g>
<g>
</g>
<g>
</g>
<g>
</g>
<g>
</g>
<g>
</g>
<g>
</g>
<g>
</g>
<g>
</g>
<g>
</g>
<g>
</g>
<g>
</g>
<g>
</g>
</svg>
