<?xml version="1.0" encoding="utf-8"?>
<!-- Generator: Adobe Illustrator 28.0.0, SVG Export Plug-In . SVG Version: 6.00 Build 0)  -->
<svg version="1.1" id="svgLogiLu" xmlns:svg="http://www.w3.org/2000/svg"
	 xmlns="http://www.w3.org/2000/svg" xmlns:xlink="http://www.w3.org/1999/xlink" x="0px" y="0px" viewBox="0 0 248 74"
	 style="enable-background:new 0 0 248 74;" xml:space="preserve">
<style type="text/css">
	.st0{fill:#FFFFFF;}
</style>
<g transform="matrix(1.3333333,0,0,-1.3333333,0,192.09333)">
	<g transform="scale(0.1)">
		<path class="st0" d="M691.6,934.3h-90v198.6h-54.7v-243h144.7V934.3z M919,1132.9h-54.7v-143c0-38-15.1-56.9-45.2-56.9
			c-30.7,0-46.1,19.7-46.1,59v141H718V992.6c0-71.3,33-106.9,99-106.9c68,0,102,36.5,102,109.5L919,1132.9z M1154.1,934.3h-122.2
			l121.8,167.9v30.7H967.3v-44.6h115.6L958.3,921.5v-31.5h195.7L1154.1,934.3z M1349,934.3h-91v55.6h79.5v44.4H1258v54.1h85.4v44.6
			h-140.1v-243H1349L1349,934.3z M1563.3,961.8c-2.4,3.7-5,7.5-7.9,11.4c-2.9,3.9-5.9,7.5-9.1,10.9c-3.2,3.4-6.4,6.4-9.8,8.9
			c-3.4,2.5-6.9,4.4-10.5,5.5v0.7c8.2,2.4,15.7,5.6,22.5,9.8c6.7,4.2,12.5,9.1,17.2,14.9c4.7,5.8,8.4,12.2,11,19.4
			c2.6,7.2,3.9,15,3.9,23.5c0,44.1-29.5,66.1-88.5,66.1h-86.8v-243h54.7v93h14.7c3.4,0,6.5-0.7,9.4-2.1c2.9-1.4,5.6-3.4,8.3-6.1
			c2.7-2.7,5.3-5.8,7.9-9.6c2.6-3.7,5.3-8,8.1-12.7l37.8-62.5h62.9L1563.3,961.8z M1484.9,1091.9c25.4,0,38.1-10.6,38.1-31.9
			c0-10.2-3.6-18.7-10.8-25.6c-7.1-6.8-16.6-10.2-28.3-10.2h-23.7v67.6H1484.9z M1859.1,1132.9h-51.7V998.6
			c0-16.6,0.5-27.7,1.4-33.4h-0.7c-3.7,6.6-7.8,13.2-12.2,19.8l-96.4,147.9h-59v-243h51.7v133.5c0,17.6-0.5,30.7-1.4,39.3h0.7
			c2.3-4.5,6.3-11.2,12.2-20.2l100.1-152.7h55.2L1859.1,1132.9"/>
		<path class="st0" d="M604.5,1320l104.2,116.6h-35.4l-90.8-105.9c-2.7-3.1-4.9-5.8-6.4-8.3h-0.7v114.2h-28.5v-243h28.5v119.6h0.7
			c0.8-1.5,2.9-4.3,6.4-8.5l93.9-111.2H716L604.5,1320z M846.9,1436.6h-29.5l-93.2-243h31.7l24.2,68.1h103l25.8-68.1h31.5
			L846.9,1436.6z M789.6,1287.3l37.8,103.5c1.5,4,2.8,9.4,3.9,16.3h0.7c1.2-7.5,2.5-12.9,3.7-16.3l38.1-103.5H789.6z M1172.1,1436.6
			h-28.5v-171.2c0-16.8,0.6-28.8,1.7-35.8h-0.7c-1.5,2.9-4.7,8.4-9.8,16.3l-121.7,190.6h-36.9v-243h28.5v175.6
			c0,17.1-0.5,28.2-1.4,33.4h1c2-5.3,4.6-10.4,7.8-15.3l125.1-193.7h34.9V1436.6z M1376.4,1436.6h-168.6v-25.8h70v-217.2h28.5v217.2
			h70.2V1436.6z M1583.9,1224.1c21,23,31.5,54.4,31.5,94.1c0,36.5-10.3,66-30.8,88.6c-20.5,22.6-47.5,33.9-81.1,33.9
			c-36.4,0-65.1-11.6-86.3-34.9c-21.1-23.3-31.7-54.5-31.7-93.5c0-36.4,10.4-65.9,31.1-88.6c20.7-22.7,48.3-34.1,82.8-34.1
			C1534.7,1189.5,1562.8,1201.1,1583.9,1224.1z M1563.2,1388.7c14.9-17.5,22.4-42.3,22.4-74.4c0-31.3-7.7-55.6-23-73
			c-15.4-17.4-36.4-26.1-63-26.1c-25,0-45.2,9.1-60.8,27.4c-15.5,18.2-23.3,42.3-23.3,72.3c0,29.9,8,54.1,23.9,72.5
			c15.9,18.4,36.7,27.6,62.2,27.6C1527.7,1414.9,1548.3,1406.2,1563.2,1388.7z M1859.1,1436.6h-28.5v-171.2
			c0-16.8,0.6-28.8,1.7-35.8h-0.7c-1.5,2.9-4.7,8.4-9.8,16.3l-121.7,190.6h-36.9v-243h28.5v175.6c0,17.1-0.5,28.2-1.4,33.4h1
			c2-5.3,4.6-10.4,7.8-15.3l125.1-193.7h34.9L1859.1,1436.6"/>
		<path class="st0" d="M0.9,1436.4v-546h273v546H0.9"/>
	</g>
</g>
</svg>
