<?xml version="1.0" encoding="utf-8"?>
<!-- Generator: Adobe Illustrator 28.0.0, SVG Export Plug-In . SVG Version: 6.00 Build 0)  -->
<svg version="1.1" id="Ebene_1" xmlns="http://www.w3.org/2000/svg" xmlns:xlink="http://www.w3.org/1999/xlink" x="0px" y="0px"
	 viewBox="0 0 141.2 29.4" style="enable-background:new 0 0 141.2 29.4;" xml:space="preserve">
<style type="text/css">
	.st0{fill:#FFFFFF;}
</style>
<path class="st0" d="M15.7,10.5v3.7H20V29h4.1V14.1h4.3v-3.6H15.7z"/>
<path class="st0" d="M36.1,18.5c-0.4-1-0.6-2-0.8-3.1h-0.1c-0.2,1.1-0.5,2.2-0.8,3.3l-1.2,3.5h4.2L36.1,18.5L36.1,18.5z M39.6,29
	l-1.1-3.4h-6.2L31.1,29H27l6.1-18.5h4.7L44.1,29H39.6L39.6,29z"/>
<path class="st0" d="M52.6,29h-4.9l-6.1-18.5h4.5l3.2,10.1c0.3,1,0.7,2.2,1,3.5l0,0c0.3-1.2,0.5-2.1,1-3.7l3.2-9.9h4.2L52.6,29
	L52.6,29z"/>
<path class="st0" d="M67.2,14C65,14,63,15.7,63,19.6c0,3.6,1.3,5.8,4.1,5.8c2,0,4.3-1.5,4.3-5.7C71.4,16,70,14,67.2,14 M66.9,29.3
	c-5.6,0-8.3-3.6-8.3-9.4s4-9.9,9-9.9s8.3,2.8,8.3,9.3C75.9,25.5,71.9,29.3,66.9,29.3"/>
<path class="st0" d="M78.2,10.5V29h9.6v-3.8h-5.4V10.5H78.2z"/>
<path class="st0" d="M98.2,18.5c-0.4-1-0.6-2-0.8-3.1h-0.1c-0.2,1.1-0.5,2.2-0.8,3.3l-1.2,3.5h4.2L98.2,18.5L98.2,18.5z M101.7,29
	l-1.1-3.4h-6.2L93.2,29h-4.1l6.1-18.5h4.7l6.3,18.5H101.7L101.7,29z"/>
<path class="st0" d="M121.1,14.9c-1.5-0.6-3.1-0.9-4.8-0.9c-3.4,0-5.6,2.2-5.6,5.9c0,3.4,1.8,5.6,5.1,5.6c0.6,0,1.2-0.1,1.7-0.2
	v-6.1h4.2v9c-2,0.8-4.2,1.2-6.3,1.2c-5.8,0-9.2-3.5-9.2-9.1s3.9-10,10.3-10c1.8,0,3.5,0.3,5.2,0.8L121.1,14.9L121.1,14.9z"/>
<path class="st0" d="M132.6,14c-2.2,0-4.2,1.7-4.2,5.6c0,3.6,1.3,5.8,4.1,5.8c2,0,4.3-1.5,4.3-5.7C136.8,16,135.3,14,132.6,14
	 M132.3,29.3c-5.6,0-8.3-3.6-8.3-9.4s4-9.9,8.9-9.9s8.3,2.8,8.3,9.3C141.2,25.5,137.2,29.3,132.3,29.3"/>
<rect class="st0" width="140.7" height="2.9"/>
<polygon class="st0" points="13.9,17.9 12.1,10.5 13.9,17.9 "/>
<polygon class="st0" points="14.8,21.6 14.8,21.6 16.6,29 "/>
<polygon class="st0" points="14.8,21.6 10.9,21.6 10.9,26 7.2,26 7.2,21.7 3,21.7 3,17.9 7.2,17.9 7.2,13.6 10.9,13.6 10.9,17.9 
	13.9,17.9 12.1,10.5 0,10.5 0,29 16.6,29 "/>
</svg>
