<?xml version="1.0" encoding="utf-8"?>
<!-- Generator: Adobe Illustrator 23.0.4, SVG Export Plug-In . SVG Version: 6.00 Build 0)  -->
<svg version="1.1" id="emmi_x5F_logo_1_" xmlns="http://www.w3.org/2000/svg" xmlns:xlink="http://www.w3.org/1999/xlink" x="0px"
	 y="0px" viewBox="0 0 219.63 127.7" style="enable-background:new 0 0 219.63 127.7;" xml:space="preserve">
<style type="text/css">
	.st0{fill:#FFFFFF;}
</style>
<path class="st0" d="M77.03,57.34l-1.25,2.84H87.6l1.32-2.84H77.03z M109.29,52.35l-0.68,1.59l13.81-0.01l0.66-1.58H109.29z
	 M122.24,46.58c-0.01,0.01,0.12-1.98-0.12-3.1c-0.33-1.59-1.43-2.71-1.43-2.71s-1.9,1.11-3.32,2.68c-1.04,1.17-1.62,1.85-2.4,3.19
	c0,0-1.23-3.16-2.91-4.37c-0.14,2.7-0.7,5.77-1.91,8.38h13.7c1.28-2.95,3.15-5.72,5.24-8.22C125.33,43.04,122.24,46.58,122.24,46.58
	z M131.11,57.04c-3.03,0-5.93,2.86-5.93,2.86s-0.61-2.86-4.08-2.86c-3.64,0-6.43,2.95-6.43,2.95s-0.51-2.95-3.99-2.95
	c-3.63,0-6.28,3.02-6.28,3.02s-1.41-3.28-4.87-3.28c-3.21,0-6.34,1.69-8.65,5.9c-1.13,2.08-2.49,5.11-2.49,5.11s-3.11,0-5.94,0
	c-6.19,0-10.06-4.71-7.63-10.09c3.42-7.57,13.26-7.1,17.1-7.1l1.13-2.61c-5.51,0-17.81-0.86-22.22,9.29
	c-3.16,7.27,2.66,13.38,9.43,13.38l10.29,0.01c0,0,1.99-4.45,2.88-6.35c1.87-4.01,4.8-5.7,6.89-4.33c1.46,0.96,1.21,2.44,0.27,4.34
	c-1.57,3.16-3.03,6.34-3.03,6.34h3.53c0,0,1.99-4.45,2.88-6.35c1.87-4.01,4.68-5.7,6.76-4.33c1.47,0.96,1.3,2.44,0.36,4.34
	c-1.57,3.16-3.12,6.34-3.12,6.34h3.53c0,0,2.1-4.45,2.99-6.35c1.87-4.01,4.56-5.7,6.66-4.33c1.46,0.96,1.37,2.44,0.42,4.34
	c-1.56,3.16-3.05,6.34-3.05,6.34h3.51c0,0,2.05-4.45,2.92-6.35c1.87-4.01,4.52-5.7,6.61-4.33c1.46,0.96,1.37,2.44,0.43,4.34
	c-1.56,3.16-2.92,6.34-2.92,6.34l3.6-0.01c0,0,1.41-3.68,2.78-6.86C137.6,58.77,133.4,57.04,131.11,57.04z M141.31,57.57
	l-5.99,13.14h3.6l5.95-13.14H141.31z M144.19,51.13l-1.37,3.22h3.54l1.42-3.22H144.19z M144.19,51.13l-1.37,3.22h3.54l1.42-3.22
	H144.19z M135.32,70.71h3.6l5.95-13.14h-3.56L135.32,70.71z M131.11,57.04c-3.03,0-5.93,2.86-5.93,2.86s-0.61-2.86-4.08-2.86
	c-3.64,0-6.43,2.95-6.43,2.95s-0.51-2.95-3.99-2.95c-3.63,0-6.28,3.02-6.28,3.02s-1.41-3.28-4.87-3.28c-3.21,0-6.34,1.69-8.65,5.9
	c-1.13,2.08-2.49,5.11-2.49,5.11s-3.11,0-5.94,0c-6.19,0-10.06-4.71-7.63-10.09c3.42-7.57,13.26-7.1,17.1-7.1l1.13-2.61
	c-5.51,0-17.81-0.86-22.22,9.29c-3.16,7.27,2.66,13.38,9.43,13.38l10.29,0.01c0,0,1.99-4.45,2.88-6.35c1.87-4.01,4.8-5.7,6.89-4.33
	c1.46,0.96,1.21,2.44,0.27,4.34c-1.57,3.16-3.03,6.34-3.03,6.34h3.53c0,0,1.99-4.45,2.88-6.35c1.87-4.01,4.68-5.7,6.76-4.33
	c1.47,0.96,1.3,2.44,0.36,4.34c-1.57,3.16-3.12,6.34-3.12,6.34h3.53c0,0,2.1-4.45,2.99-6.35c1.87-4.01,4.56-5.7,6.66-4.33
	c1.46,0.96,1.37,2.44,0.42,4.34c-1.56,3.16-3.05,6.34-3.05,6.34h3.51c0,0,2.05-4.45,2.92-6.35c1.87-4.01,4.52-5.7,6.61-4.33
	c1.46,0.96,1.37,2.44,0.43,4.34c-1.56,3.16-2.92,6.34-2.92,6.34l3.6-0.01c0,0,1.41-3.68,2.78-6.86
	C137.6,58.77,133.4,57.04,131.11,57.04z M129.09,42.43c-3.76,0.61-6.85,4.15-6.85,4.15c-0.01,0.01,0.12-1.98-0.12-3.1
	c-0.33-1.59-1.43-2.71-1.43-2.71s-1.9,1.11-3.32,2.68c-1.04,1.17-1.62,1.85-2.4,3.19c0,0-1.23-3.16-2.91-4.37
	c-0.14,2.7-0.7,5.77-1.91,8.38h13.7C125.13,47.7,127,44.93,129.09,42.43z M123.08,52.35h-13.79l-0.68,1.59l13.81-0.01L123.08,52.35z
	 M75.78,60.18H87.6l1.32-2.84H77.03L75.78,60.18z M182.46,49.04c-10.25-4.4-19.98-6.87-29.34-8c-0.62-0.58-1.3-1.12-2.02-1.65
	c-9.86-7.2-28.46-9.82-47.39-6.68c-8.16,1.36-16.5,4.05-23.48,7.6c-6.27,3.18-11.31,6.96-14.8,11.05
	C54,52.46,42.4,52.17,30.09,48.97l-1.9-0.49v34.44l1.25,0.22c14.45,2.59,27.43,2.11,39.67,0.37c2.67,2.39,5.84,4.51,9.43,6.26
	c9.53,4.66,20.78,6.07,30.88,3.87c10.04-2.19,23.01-8.62,33.04-16.38c1.63-1.25,3.5-2.8,5.39-4.56c10.35,1.23,21.31,4.33,33.33,10.3
	l2.19,1.09V49.44L182.46,49.04z M29.71,81.65V50.44c11.95,3.1,23.32,3.49,34.43,2.54c-0.32,0.43-0.62,0.87-0.91,1.3
	c-2.3,3.55-3.46,7.22-3.46,10.95c0,1.59,0.21,3.18,0.63,4.78c1.13,4.38,3.66,8.54,7.29,12.17C55.94,83.76,43.49,84.11,29.71,81.65z
	 M109.17,92.09c-13.92,3.04-27.24-1.43-36.6-9.22c11.07-2.63,20.8-3.94,33.41-3.94c8.58,0,16.31,1.18,24.27,3.41
	C122.76,86.71,115.87,90.63,109.17,92.09z M133.35,79.73c-8.11-1.57-17.74-2.8-26.03-2.8c-14.72,0-24.92,2.54-35.43,5.11
	c-4.51-3.7-7.76-8.26-9.05-13.24c-4.48-17.26,19.21-30.72,40.8-34.3c23.7-3.93,49.54,1.37,51.85,17.01
	C156.8,60.5,146.19,71.54,133.35,79.73z M181.85,81.65c-11.71-5.83-22.45-8.95-32.59-10.29c5.54-5.48,10.73-12.69,9.69-19.79
	c-0.48-3.27-1.86-6.2-4.1-8.79c8.63,1.22,17.6,3.61,27,7.66V81.65z M166.6,70.37h5.97v-5.98h5.98v-5.98h-5.98v-5.98h-5.97v5.98
	h-5.98v5.98h5.98V70.37z M142.82,54.35h3.54l1.42-3.22h-3.59L142.82,54.35z M135.32,70.71h3.6l5.95-13.14h-3.56L135.32,70.71z
	 M131.11,57.04c-3.03,0-5.93,2.86-5.93,2.86s-0.61-2.86-4.08-2.86c-3.64,0-6.43,2.95-6.43,2.95s-0.51-2.95-3.99-2.95
	c-3.63,0-6.28,3.02-6.28,3.02s-1.41-3.28-4.87-3.28c-3.21,0-6.34,1.69-8.65,5.9c-1.13,2.08-2.49,5.11-2.49,5.11s-3.11,0-5.94,0
	c-6.19,0-10.06-4.71-7.63-10.09c3.42-7.57,13.26-7.1,17.1-7.1l1.13-2.61c-5.51,0-17.81-0.86-22.22,9.29
	c-3.16,7.27,2.66,13.38,9.43,13.38l10.29,0.01c0,0,1.99-4.45,2.88-6.35c1.87-4.01,4.8-5.7,6.89-4.33c1.46,0.96,1.21,2.44,0.27,4.34
	c-1.57,3.16-3.03,6.34-3.03,6.34h3.53c0,0,1.99-4.45,2.88-6.35c1.87-4.01,4.68-5.7,6.76-4.33c1.47,0.96,1.3,2.44,0.36,4.34
	c-1.57,3.16-3.12,6.34-3.12,6.34h3.53c0,0,2.1-4.45,2.99-6.35c1.87-4.01,4.56-5.7,6.66-4.33c1.46,0.96,1.37,2.44,0.42,4.34
	c-1.56,3.16-3.05,6.34-3.05,6.34h3.51c0,0,2.05-4.45,2.92-6.35c1.87-4.01,4.52-5.7,6.61-4.33c1.46,0.96,1.37,2.44,0.43,4.34
	c-1.56,3.16-2.92,6.34-2.92,6.34l3.6-0.01c0,0,1.41-3.68,2.78-6.86C137.6,58.77,133.4,57.04,131.11,57.04z M129.09,42.43
	c-3.76,0.61-6.85,4.15-6.85,4.15c-0.01,0.01,0.12-1.98-0.12-3.1c-0.33-1.59-1.43-2.71-1.43-2.71s-1.9,1.11-3.32,2.68
	c-1.04,1.17-1.62,1.85-2.4,3.19c0,0-1.23-3.16-2.91-4.37c-0.14,2.7-0.7,5.77-1.91,8.38h13.7C125.13,47.7,127,44.93,129.09,42.43z
	 M123.08,52.35h-13.79l-0.68,1.59l13.81-0.01L123.08,52.35z M75.78,60.18H87.6l1.32-2.84H77.03L75.78,60.18z M77.03,57.34
	l-1.25,2.84H87.6l1.32-2.84H77.03z M109.29,52.35l-0.68,1.59l13.81-0.01l0.66-1.58H109.29z M122.24,46.58
	c-0.01,0.01,0.12-1.98-0.12-3.1c-0.33-1.59-1.43-2.71-1.43-2.71s-1.9,1.11-3.32,2.68c-1.04,1.17-1.62,1.85-2.4,3.19
	c0,0-1.23-3.16-2.91-4.37c-0.14,2.7-0.7,5.77-1.91,8.38h13.7c1.28-2.95,3.15-5.72,5.24-8.22C125.33,43.04,122.24,46.58,122.24,46.58
	z M131.11,57.04c-3.03,0-5.93,2.86-5.93,2.86s-0.61-2.86-4.08-2.86c-3.64,0-6.43,2.95-6.43,2.95s-0.51-2.95-3.99-2.95
	c-3.63,0-6.28,3.02-6.28,3.02s-1.41-3.28-4.87-3.28c-3.21,0-6.34,1.69-8.65,5.9c-1.13,2.08-2.49,5.11-2.49,5.11s-3.11,0-5.94,0
	c-6.19,0-10.06-4.71-7.63-10.09c3.42-7.57,13.26-7.1,17.1-7.1l1.13-2.61c-5.51,0-17.81-0.86-22.22,9.29
	c-3.16,7.27,2.66,13.38,9.43,13.38l10.29,0.01c0,0,1.99-4.45,2.88-6.35c1.87-4.01,4.8-5.7,6.89-4.33c1.46,0.96,1.21,2.44,0.27,4.34
	c-1.57,3.16-3.03,6.34-3.03,6.34h3.53c0,0,1.99-4.45,2.88-6.35c1.87-4.01,4.68-5.7,6.76-4.33c1.47,0.96,1.3,2.44,0.36,4.34
	c-1.57,3.16-3.12,6.34-3.12,6.34h3.53c0,0,2.1-4.45,2.99-6.35c1.87-4.01,4.56-5.7,6.66-4.33c1.46,0.96,1.37,2.44,0.42,4.34
	c-1.56,3.16-3.05,6.34-3.05,6.34h3.51c0,0,2.05-4.45,2.92-6.35c1.87-4.01,4.52-5.7,6.61-4.33c1.46,0.96,1.37,2.44,0.43,4.34
	c-1.56,3.16-2.92,6.34-2.92,6.34l3.6-0.01c0,0,1.41-3.68,2.78-6.86C137.6,58.77,133.4,57.04,131.11,57.04z M141.31,57.57
	l-5.99,13.14h3.6l5.95-13.14H141.31z M144.19,51.13l-1.37,3.22h3.54l1.42-3.22H144.19z M144.19,51.13l-1.37,3.22h3.54l1.42-3.22
	H144.19z M141.31,57.57l-5.99,13.14h3.6l5.95-13.14H141.31z M131.11,57.04c-3.03,0-5.93,2.86-5.93,2.86s-0.61-2.86-4.08-2.86
	c-3.64,0-6.43,2.95-6.43,2.95s-0.51-2.95-3.99-2.95c-3.63,0-6.28,3.02-6.28,3.02s-1.41-3.28-4.87-3.28c-3.21,0-6.34,1.69-8.65,5.9
	c-1.13,2.08-2.49,5.11-2.49,5.11s-3.11,0-5.94,0c-6.19,0-10.06-4.71-7.63-10.09c3.42-7.57,13.26-7.1,17.1-7.1l1.13-2.61
	c-5.51,0-17.81-0.86-22.22,9.29c-3.16,7.27,2.66,13.38,9.43,13.38l10.29,0.01c0,0,1.99-4.45,2.88-6.35c1.87-4.01,4.8-5.7,6.89-4.33
	c1.46,0.96,1.21,2.44,0.27,4.34c-1.57,3.16-3.03,6.34-3.03,6.34h3.53c0,0,1.99-4.45,2.88-6.35c1.87-4.01,4.68-5.7,6.76-4.33
	c1.47,0.96,1.3,2.44,0.36,4.34c-1.57,3.16-3.12,6.34-3.12,6.34h3.53c0,0,2.1-4.45,2.99-6.35c1.87-4.01,4.56-5.7,6.66-4.33
	c1.46,0.96,1.37,2.44,0.42,4.34c-1.56,3.16-3.05,6.34-3.05,6.34h3.51c0,0,2.05-4.45,2.92-6.35c1.87-4.01,4.52-5.7,6.61-4.33
	c1.46,0.96,1.37,2.44,0.43,4.34c-1.56,3.16-2.92,6.34-2.92,6.34l3.6-0.01c0,0,1.41-3.68,2.78-6.86
	C137.6,58.77,133.4,57.04,131.11,57.04z M122.24,46.58c-0.01,0.01,0.12-1.98-0.12-3.1c-0.33-1.59-1.43-2.71-1.43-2.71
	s-1.9,1.11-3.32,2.68c-1.04,1.17-1.62,1.85-2.4,3.19c0,0-1.23-3.16-2.91-4.37c-0.14,2.7-0.7,5.77-1.91,8.38h13.7
	c1.28-2.95,3.15-5.72,5.24-8.22C125.33,43.04,122.24,46.58,122.24,46.58z M109.29,52.35l-0.68,1.59l13.81-0.01l0.66-1.58H109.29z
	 M77.03,57.34l-1.25,2.84H87.6l1.32-2.84H77.03z"/>
<g>
	<path class="st0" d="M132.01,105.22h3.37c-0.14,0.63-0.92,1.84-2.77,1.84c-1.82,0-3.38-1.22-3.38-3.57c0-2.51,1.79-3.52,3.32-3.52
		c1.87,0,2.61,1.27,2.79,1.96l2.41-0.84c-0.49-1.57-1.99-3.47-5.2-3.47c-3.17,0-5.85,2.33-5.85,5.87c0,3.55,2.56,5.85,5.69,5.85
		c1.6,0,2.66-0.67,3.15-1.38l0.16,1.14h2.03v-6.01h-5.72V105.22z"/>
	<path class="st0" d="M145.72,104.55c1.38-0.49,2.22-1.65,2.22-3.17c0-2-1.42-3.52-3.64-3.52h-4.46v11.24h2.51v-4.18h0.88l2.02,4.18
		h2.76L145.72,104.55z M143.82,102.76h-1.47v-2.73h1.47c1.03,0,1.59,0.53,1.59,1.37C145.41,102.19,144.85,102.76,143.82,102.76z"/>
	<path class="st0" d="M154.94,97.62c-3.17,0-5.85,2.3-5.85,5.87c0,3.55,2.68,5.85,5.85,5.85c3.15,0,5.83-2.3,5.83-5.85
		C160.77,99.92,158.09,97.62,154.94,97.62z M154.94,106.87c-1.57,0-3.25-1.05-3.25-3.4c0-2.34,1.68-3.41,3.25-3.41
		c1.55,0,3.23,1.07,3.23,3.41C158.17,105.82,156.49,106.87,154.94,106.87z"/>
	<path class="st0" d="M168.88,97.86v6.98c0,1.36-0.77,2.04-1.96,2.04c-1.18,0-1.94-0.68-1.94-2.04v-6.98h-2.51v7.18
		c0,2.82,1.98,4.31,4.45,4.31c2.48,0,4.46-1.49,4.46-4.31v-7.18H168.88z"/>
	<path class="st0" d="M177.96,97.86h-4.23v11.24h2.5v-4.04h1.73c2.29,0,3.86-1.48,3.86-3.6C181.82,99.37,180.25,97.86,177.96,97.86z
		 M177.71,102.9h-1.46v-2.87h1.46c0.95,0,1.6,0.54,1.6,1.44C179.31,102.35,178.66,102.9,177.71,102.9z"/>
</g>
</svg>
