<?xml version="1.0" encoding="utf-8"?>
<!-- Generator: Adobe Illustrator 28.0.0, SVG Export Plug-In . SVG Version: 6.00 Build 0)  -->
<svg version="1.1" id="Logo" xmlns="http://www.w3.org/2000/svg" xmlns:xlink="http://www.w3.org/1999/xlink" x="0px" y="0px"
	 viewBox="0 0 52.44 63.63" style="enable-background:new 0 0 52.44 63.63;" xml:space="preserve">
<style type="text/css">
	.st0{fill-rule:evenodd;clip-rule:evenodd;}
	.st1{fill:#FFFFFF;}
</style>
<g>
	<g>
		<g>
			<g>
				<defs>
					<polyline id="SVGID_1_" points="9.03,0 9.52,0.21 9.81,0.51 9.98,0.58 10.13,0.71 10.38,1.07 10.84,1.79 10.96,1.89 
						11.09,1.95 11.34,1.99 11.61,2 11.91,2.05 12.17,2.17 12.36,2.33 12.51,2.53 12.61,2.77 12.82,3.82 12.99,4.38 13.46,4.95 
						13.77,5.05 14,5.1 14.04,5.06 15.05,4.77 15.05,4.81 15.29,4.91 15.29,4.87 15.46,4.82 15.54,4.78 15.57,4.75 15.58,4.72 
						16.17,5.13 16.37,5.43 16.5,5.77 16.57,6.14 16.58,6.53 16.29,8.02 16.23,8.29 16.24,8.43 16.26,8.48 16.3,8.5 15.72,9.72 
						15.49,10.46 15.46,10.75 15.48,10.87 15.52,10.96 15.67,11.11 15.87,11.18 16.31,11.28 17,11.5 17,11.46 17.08,11.47 
						17.68,11.63 17.77,11.56 18.21,11.93 18.34,12.12 18.43,12.31 18.48,12.53 18.47,12.77 18.33,13.36 17.5,15.04 16.62,16.05 
						15.27,17.19 14.56,17.89 14.34,18.18 14.29,18.3 14.29,18.4 14.34,18.52 14.43,18.62 14.72,18.78 15.32,18.98 15.51,19.09 
						15.62,19.25 15.66,19.45 15.66,19.69 15.59,20.08 15.46,20.48 15.1,21.18 14.19,22.02 12.95,22.86 11.84,23.71 11.48,24.14 
						11.38,24.37 11.33,24.59 11.44,24.68 11.53,24.8 11.65,25.07 11.69,25.35 11.66,25.59 11.55,25.8 11.4,26 10.64,26.7 
						9.71,27.88 9.66,27.88 9.39,28.31 9.14,28.22 9.02,28.18 8.89,28.19 8.84,28.21 8.8,28.25 8.74,28.35 8.69,28.46 8.66,28.49 
						8.64,28.5 8.63,28.54 8.47,28.49 8.46,28.64 8.46,28.7 8.48,28.73 8.5,28.74 8.59,28.66 8.58,28.74 8.62,28.75 8.61,28.83 
						8.47,28.82 8.37,28.79 8.29,28.73 8.24,28.66 8.2,28.45 8.21,28.18 7.92,28.2 7.92,28.16 7.12,27.54 6.32,26.88 5.63,25.57 
						5.04,24.23 4.44,23.49 3.44,22.29 2.24,21.3 1.49,20.54 0.8,19.84 0.31,18.99 0.24,18.91 0.22,18.87 0.23,18.86 0.25,18.85 
						0.13,18.61 0.04,18.35 0,18.07 0,17.77 0,17.69 0.01,17.66 0.05,17.65 0.22,17.62 0.26,17.45 0.37,17.29 0.67,17.04 
						1.09,16.82 1.27,16.67 1.51,16.55 1.63,16.48 1.73,16.46 2.02,16.37 2.18,16.24 2.24,16.08 2.23,15.89 2.11,15.48 2.05,15.26 
						2.04,15.04 1.81,14.92 1.64,14.73 1.34,14.31 0.79,13.69 0.35,13 0.03,11.91 0.02,10.71 0.18,10.18 0.32,9.96 0.49,9.76 
						0.71,9.61 0.97,9.5 1.28,9.45 1.65,9.44 1.65,9.4 2.58,9.46 2.77,9.42 2.92,9.32 3.03,9.15 3.08,8.89 3.06,8.87 3.03,8.82 
						3.01,8.72 2.93,8.63 2.85,8.49 2.71,8.14 2.61,7.81 2.58,7.7 2.55,7.66 2.57,6.57 2.71,5.46 2.87,5.14 3.09,4.89 3.37,4.68 
						3.68,4.52 3.72,4.46 4.65,4.65 4.97,4.49 5.11,4.39 5.23,4.23 5.49,2.84 5.58,2.45 5.72,2.13 5.81,2.01 5.92,1.92 6.05,1.86 
						6.19,1.85 6.84,1.94 7.07,1.79 7.18,1.72 7.28,1.62 7.71,0.68 7.85,0.45 8.02,0.27 8.23,0.14 8.49,0.08 8.64,0.08 8.71,0.06 
						8.73,0.04 8.74,0.02 8.94,0.12 9.03,0 					"/>
				</defs>
				<use xlink:href="#SVGID_1_"  style="overflow:visible;fill-rule:evenodd;clip-rule:evenodd;fill:#FFFFFF;"/>
				<clipPath id="SVGID_00000057108333304081839710000002222157282264257705_">
					<use xlink:href="#SVGID_1_"  style="overflow:visible;"/>
				</clipPath>
			</g>
		</g>
	</g>
	<g>
		<g>
			<g>
				<path class="st0" d="M9.79,19.83c0-0.14,0.37-0.48,0.4-0.5v-0.07h-0.15c-0.01,0.02-0.1,0.07-0.15,0.07
					c-0.05,0-0.04-0.02-0.05-0.02v-0.14c0-0.13,0.33-0.32,0.38-0.37c0.1-0.1,0.2-0.2,0.3-0.31h-0.1c-0.05,0-0.5,0.32-0.55,0.32
					c-0.05,0-0.04,0-0.06-0.01v-0.11c0.11-0.15,0.27-0.3,0.36-0.46v-0.07c-0.15,0.01-0.16,0.13-0.26,0.13
					c-0.05,0-0.07-0.06-0.11-0.07c0.18-0.2,0.49-0.54,0.69-0.77h-0.09c-0.02,0.02-0.4,0.34-0.51,0.34c-0.04,0-0.1,0-0.1-0.07
					c0-0.12,0.26-0.25,0.3-0.29c0.07-0.08,0.12-0.18,0.2-0.26v-0.09h-0.07c-0.08,0.12-0.32,0.17-0.42,0.25
					c-0.01-0.03-0.03-0.06-0.03-0.11c0-0.07,0.58-0.57,0.83-0.71c0.06-0.03,0.13-0.08,0.19-0.12c0.08-0.05,0.14-0.16,0.2-0.2
					c0.07-0.05,0.16-0.07,0.24-0.13c0.17-0.12,0.33-0.28,0.49-0.35c0.07-0.03,0.19-0.06,0.24-0.06c0.05,0,0.08,0.06,0.13,0.05h0.27
					c-0.04-0.07-0.12-0.15-0.17-0.18v-0.07c0.09-0.04,0.16-0.13,0.22-0.13c0.63-0.03,0.69-0.02,0.76-0.03
					c-0.11-0.05-0.5-0.12-0.5-0.17c0-0.05,0.02-0.06,0.02-0.07c0.41-0.02,0.53,0,0.66-0.03c-0.11-0.06-0.24-0.09-0.35-0.14
					c0.12-0.12,0.2-0.22,0.34-0.22c0.17,0,0.33,0.18,0.51,0.25v-0.09c-0.06-0.1-0.17-0.18-0.26-0.27c-0.06-0.02-0.15-0.06-0.18-0.07
					c0.08-0.06,0.11-0.14,0.18-0.14c0.05,0,0.15,0.06,0.19,0.06h0.26c0.05,0,0.23,0.13,0.28,0.13c0.05,0,0.07-0.04,0.11-0.05
					c-0.56-0.3-0.47-0.34-0.97-0.34c-0.11,0-0.31,0.04-0.41,0.07c0.13,0.06,0.32,0.02,0.35,0.15c-0.04,0.03-0.05,0.05-0.07,0.07
					h-0.39c-0.04,0.06-0.22,0.12-0.25,0.23c0.07,0,0.27-0.07,0.27,0.07c0,0.08-0.09,0.09-0.15,0.09c-0.1,0-0.69-0.21-0.69-0.21h-0.1
					v0.09c0.2,0.01,0.39,0.21,0.54,0.32c-0.05,0.03-0.09,0.07-0.13,0.07c-0.02,0-0.35-0.15-0.46-0.15c-0.1,0-0.07-0.01-0.19,0.09
					c0.06,0.03,0.33,0.1,0.33,0.26c0,0.05-0.09,0.1-0.13,0.1c-0.05,0-0.15-0.08-0.2-0.08c-0.05,0-0.11,0.06-0.12,0.11
					c0.04,0.02,0.09,0.03,0.12,0.02c0,0.05,0.02,0.07,0.02,0.12c0,0.12-0.77,0.4-0.99,0.48c-0.14,0.05-0.24,0.19-0.37,0.27
					c0,0-0.44,0.47-0.58,0.47c-0.05,0-0.05,0-0.07-0.01v-0.15c0-0.1,0.79-0.88,1-1.11v-0.09c-0.19,0.07-0.32,0.29-0.47,0.35
					c-0.09,0.18-0.32,0.33-0.44,0.45c-0.01-0.02-0.03-0.02-0.03-0.07c0-0.18,0.7-0.89,0.79-0.98V15.1
					c-0.28,0.23-0.73,0.71-0.77,0.71c-0.05,0-0.03,0-0.05-0.01v-0.09c0.16-0.24,0.32-0.59,0.56-0.79v-0.09h-0.07
					c-0.1,0.14-0.25,0.25-0.36,0.36c-0.01-0.02-0.01-0.02-0.01-0.07c0-0.12,0.6-0.75,0.59-0.79v-0.06
					c-0.13,0.08-0.24,0.13-0.34,0.18c-0.01,0.03-0.2,0.2-0.24,0.2c-0.05,0-0.02,0-0.04-0.01c0-0.04,0.01-0.07,0.02-0.09
					c0.23-0.24,0.44-0.6,0.75-0.79v-0.09c-0.03,0-0.04-0.01-0.04-0.04c-0.17,0.29-0.46,0.4-0.69,0.59L9.9,14.2v-0.07
					c0.08-0.07,0.16-0.13,0.22-0.19c0.1-0.11,0.15-0.27,0.28-0.37c-0.03-0.01-0.04-0.02-0.04-0.05c-0.16,0.12-0.3,0.25-0.43,0.36
					c-0.08-0.08-0.07-0.07-0.07-0.13c0-0.15,0.63-0.66,0.65-0.68v-0.09h-0.09c-0.14,0.19-0.31,0.26-0.49,0.36
					c-0.01-0.02-0.03-0.02-0.03-0.07c0-0.06,0.46-0.39,0.46-0.46c0-0.05-0.02-0.04-0.02-0.07c-0.13,0.09-0.29,0.22-0.41,0.31
					C9.92,13.03,9.9,13,9.9,12.95c0-0.1,0.15-0.24,0.17-0.36c-0.03,0-0.04-0.01-0.04-0.04C10,12.59,9.96,12.6,9.91,12.6
					c-0.05,0-0.03,0-0.05-0.01v-0.11c0.12-0.11,0.18-0.21,0.3-0.35c0.06-0.08,0.08-0.19,0.14-0.24c0.2-0.15,0.39-0.42,0.59-0.56
					v-0.07c-0.35,0.32-0.6,0.51-0.95,0.85H9.88c-0.02-0.03-0.03-0.07-0.03-0.12c0-0.08,0.4-0.41,0.43-0.45
					c0.11-0.14,0.19-0.33,0.35-0.44v-0.09c-0.24,0.21-0.67,0.56-0.72,0.56c-0.05,0-0.07-0.02-0.07-0.07c0-0.15,0.27-0.47,0.29-0.53
					c0.05-0.05,0.11-0.07,0.11-0.1c0-0.05-0.02-0.04-0.02-0.07c-0.11,0.1-0.24,0.27-0.29,0.27c-0.05,0-0.08-0.02-0.09-0.02v-0.11
					c0-0.16,0.28-0.4,0.33-0.47c-0.03,0-0.05-0.02-0.05-0.02c-0.08,0.02-0.16,0.11-0.21,0.11c-0.05,0-0.07-0.02-0.11-0.03v-0.07
					c0.15-0.19,0.3-0.34,0.44-0.55c-0.18,0.04-0.32,0.21-0.44,0.23c-0.02-0.05-0.05-0.08-0.05-0.13c0-0.19,0.3-0.37,0.38-0.51h-0.09
					C10.01,9.55,9.9,9.62,9.85,9.62c-0.08,0-0.07-0.01-0.14-0.09c0.08-0.07,0.08-0.27,0.25-0.25C9.94,9.26,9.9,9.24,9.85,9.24
					c-0.05,0-0.07,0.06-0.12,0.06H9.67C9.65,9.26,9.63,9.21,9.63,9.16c0-0.16,0.22-0.38,0.33-0.46C9.87,8.7,9.74,8.8,9.72,8.8
					c-0.05,0,0-0.04-0.05-0.04c-0.05,0,0,0.04-0.05,0.04c-0.05,0-0.03-0.01-0.03-0.01c0-0.03-0.02-0.08-0.02-0.13
					c0-0.12,0.13-0.2,0.23-0.24c0-0.02-0.02-0.04-0.02-0.07C9.73,8.38,9.69,8.41,9.64,8.41c-0.05,0-0.03,0-0.05-0.01
					c0-0.04-0.02-0.08-0.02-0.13c0-0.22,0.17-0.37,0.33-0.5C9.82,7.76,9.71,7.82,9.66,7.82c-0.05,0-0.07,0-0.09-0.01
					c0.15-0.43,0.36-0.97,0.7-1.3c0.2-0.28,0.35-0.57,0.51-0.85c-0.03-0.01-0.05-0.02-0.15-0.02c-0.37,0.38-0.67,0.84-0.81,1.33
					C9.8,7.04,9.73,7,9.61,7.05C9.59,6.98,9.6,6.9,9.59,6.84C9.52,6.95,9.54,7.15,9.48,7.27c0.03,0,0.04,0,0.04,0.05
					c0,0.05-0.04,0.21-0.06,0.33l0.02,1.29c0,0.04,0.04,0.06,0.04,0.1l0.02,0.6c0.06,0.14,0.1,0.35,0.1,0.4
					c0,0.03-0.03,0.09-0.03,0.09v0.31c0.08,0.1,0.1,0.27,0.12,0.4c0.02,0.01,0.09,0.14,0.09,0.17c0,0.05-0.15,0.24-0.15,0.29
					c0,0.05,0.04,0.04,0.04,0.09c0,0.05-0.04,0.06-0.04,0.09c-0.03,0.21,0,0.42-0.02,0.83c0,0.02-0.04,0.01-0.04,0.05v1.05
					c0.03,0,0.04,0,0.04,0.05c0,0.05-0.04,0.06-0.04,0.1c-0.01,0.23-0.03,0.31,0,0.56c0.01,0.07,0.12,0.14,0.12,0.19v0.26
					c0.03,0,0.04,0,0.04,0.05c0,0.05-0.1,0.36-0.1,0.4c0,0.05,0.04,0.07,0.04,0.12c0,0.05-0.06,0.08-0.06,0.13v0.59
					c-0.02,0.02-0.04-0.03-0.04,0.02v0.28c0,0.05-0.04,0.15-0.06,0.19l-0.02,0.56c-0.02,0.06-0.04,0.09-0.04,0.14
					c0,0.05,0.04,0.07,0.04,0.12c0,0.05-0.01,0.03-0.03,0.04c0.02,0.01,0.03-0.02,0.03,0.03c0,0.05-0.01,0.02-0.04,0.03
					c0.04,0.03,0.04,0.03,0.04,0.08c0,0.05-0.04,0.11-0.04,0.15c0,0.03,0.04,0.09,0.04,0.09v0.38c0,0.05,0,0.01,0,0.06v1.88l0.28,0
					C9.79,19.87,9.79,19.85,9.79,19.83z"/>
			</g>
		</g>
		<g>
			<g>
				<path class="st0" d="M17.45,11.63c0-0.05,0.04-0.04,0.04-0.09c0-0.47-0.47-0.87-0.95-0.87c-0.05,0,0,0.04-0.05,0.04h-1.28
					c-0.23,0-0.51-0.39-0.51-0.64c0-0.29,0.25-0.8,0.38-0.96c0.01-0.06,0.04-0.2,0.11-0.25c0.04-0.12,0.02-0.24,0.16-0.26
					c0-0.12,0.06-0.3,0.06-0.35c0-0.05-0.04-0.31-0.07-0.46c-0.48-0.76-0.65-0.95-1.58-0.95l-0.92,0.02
					c-0.16,0.06-0.55-0.29-0.55-0.47c0-0.05-0.01-0.11,0.02-0.36c0.01-0.08,0.07-0.19,0.09-0.28c0.04-0.16,0.11-0.37,0.15-0.5
					c0.11-0.33,0.26-0.99,0.26-1.04V3.79c0-0.21-0.21-0.37-0.3-0.54c-0.64-0.33-1.5-0.22-1.9-0.94c-0.2-0.36-0.37-0.69-0.51-1.08
					c-0.12-0.04-0.19-0.2-0.28-0.28C9.79,0.89,9.75,0.9,9.69,0.83C9.48,0.81,9.37,0.66,9.14,0.71C8.9,1,8.41,0.88,8.12,1.12
					C8.04,1.23,7.94,1.32,7.85,1.44C7.76,1.57,7.77,1.72,7.64,1.83c-0.01,0.2-0.17,0.33-0.25,0.5C7.27,2.59,7.2,2.95,6.89,3.1
					C6.68,3.21,6.43,3.21,6.21,3.25C6.1,3.26,6.01,3.34,5.9,3.36C5.74,3.44,5.39,3.84,5.39,4.15v0.37c0.03,0,0.04-0.04,0.04,0.01
					v0.31c0,0.21,0.27,0.97,0.27,0.98v0.24c0,0.01-0.04,0.11-0.06,0.2C5.54,6.36,5.47,6.5,5.35,6.56c-0.1,0.06-0.21,0.06-0.31,0.1
					L3.57,6.68C3.49,6.72,3.4,6.72,3.32,6.73c-0.18,0.17-0.38,0.26-0.5,0.46c-0.17,0.3-0.03,0.77-0.36,0.98
					C2.43,8.18,2.33,8.56,2.33,8.58c0,0.05,0.04,0.06,0.04,0.11c0,0.05-0.04,0.02-0.04,0.07c0,0.8,1.2,1.22,1.66,1.55
					c0.23,0.16,0.4,0.19,0.52,0.54c-0.07,0.15-0.15,0.2-0.21,0.2c-0.05,0-0.05-0.05-0.09-0.05c-0.84-0.13-0.69-0.22-1.34-0.22
					c-0.05,0-0.16-0.04-0.48,0.02c-0.47,0.08-1.1,0.24-1.47,0.6c0.03,0.11-0.17,0.25-0.17,0.33v0.62c0.05,0.04,0.08,0.35,0.06,0.38
					C1,13.45,1.4,14.2,1.81,14.83c0.19,0.3,0.47,0.55,0.71,0.85c0.31,0.37,0.76,0.58,1.14,0.76c0.17,0.08,0.19,0.19,0.19,0.31
					c0,0.05-0.04,0.13-0.04,0.21c-0.05,0.08-0.34,0.11-0.35,0.11H3c-0.16,0-0.51,0.3-0.51,0.47v0.43c0.15,0.62,0.73,1.09,1.1,1.61
					c0.11,0.12,0.2,0.23,0.27,0.32l0.23,0H3.86c0.09,0.1,0.17,0.19,0.27,0.28c0.25,0.22,0.55,0.35,0.79,0.57
					c0.14,0.13,0.4,0.29,0.6,0.48c0.28,0.25,0.97,0.84,0.97,1.35c0,0.26-0.46,0.92-0.46,1.29c0,0.19,0.23,0.64,0.26,0.69
					c0.19,0.32,0.4,0.62,0.6,0.93c0.26,0.24,0.36,0.42,0.53,0.52c0.12,0.07,0.29,0.06,0.41,0.12c0.02-0.04,0.05-0.06,0.07-0.06
					c0.25,0,0.31-0.02,0.5-0.02c0.04,0,0.03-0.04,0.08-0.04c0.05,0,0.11,0.05,0.15,0.11v0.25c0.03,0-0.07,0.38-0.2,0.72
					c-0.01,0.02-0.2,0.4-0.2,0.49c0,0.12,0.21,0.48,0.37,0.48c0.32,0,0.67-0.46,0.67-0.72v-0.34c0-0.03,0-0.42,0-0.47v-0.31
					c-0.03,0-0.04-0.01-0.04-0.06c0-0.12,0.13-0.1,0.2-0.15c0.06,0.05,0.32,0.27,0.45,0.27c0,0,0.32,0.04,0.37,0.04
					c0.05,0,0.23-0.06,0.32-0.13c0-0.07,0.07-0.13,0.11-0.15c0.08-0.23,0.25-0.49,0.33-0.71c0.04-0.13,0.03-0.34,0.09-0.41
					c0.06-0.07,0.13-0.14,0.17-0.21c0.18-0.09,0.43-0.27,0.56-0.38c0.12-0.08,0.24-0.09,0.34-0.15c0.07-0.04,0.69-0.63,0.69-0.87
					v-0.24c0-0.05,0.04-0.03,0.04-0.03c-0.08-0.13-0.06-0.44-0.22-0.52c-0.15-0.08-0.31-0.14-0.44-0.17
					c-0.14-0.03-0.2-0.11-0.31-0.19V21.8c0-0.23,0.65-0.73,0.68-0.75c0.09-0.11,0.15-0.22,0.28-0.29c0.32-0.19,0.68-0.47,0.99-0.63
					c0.07-0.06,0.14-0.15,0.21-0.24h-0.15l0.15,0c0.09-0.11,0.18-0.22,0.29-0.26c0.35-0.49,0.57-1.04,0.65-1.61
					c0.05-0.34,0.02-0.43,0.02-0.48c0-0.11-0.01-0.33-0.17-0.35c0.01,0.12,0.05,0.22,0.05,0.24v0.62c0,0.08-0.15,0.47-0.18,0.51
					c-0.02,0.03-0.07,0.05-0.08,0.09c-0.06,0.16-0.12,0.34-0.18,0.49c-0.03,0.02-0.06,0.04-0.09,0.04c0.03,0.18-0.21,0.25-0.26,0.33
					c-0.03,0.12-0.19,0.28-0.23,0.35c-0.04,0.01-0.08,0.02-0.09,0.03c0,0-0.01,0.01-0.01,0.01h0c-0.41,0.45-1.03,0.73-1.53,1.09
					c-0.02,0.03-0.72,0.61-0.72,0.77v0.24c0.29,0.69,1.21,0.19,1.21,0.96c0,0.05,0,0.19-0.03,0.27c-0.01,0.04-0.11,0.09-0.11,0.14
					c0,0.13-0.13,0.51-0.35,0.51c-0.07,0-0.26-0.12-0.43-0.12c-0.24,0-0.57,0.12-0.68,0.24c0.03,0.01,0.04,0.01,0.04,0.04h0.18
					c0.08-0.02,0.15-0.09,0.25-0.09c0.05,0,0.09,0.02,0.12,0.04c0.01-0.03-0.02-0.04,0.02-0.04h0.26c0.02,0.02,0.1,0.05,0.12,0.06
					c-0.08,0.09-0.34,0.2-0.39,0.2l-0.42,0.01c-0.23,0.07-0.48,0.1-0.67,0.15c-0.07,0.01-0.11,0.01-0.18,0.09l-0.15,0.11
					c0.03,0,0.09,0.03,0.14,0.03c0.05,0,0.37-0.12,0.41-0.12c0.05,0,0.15-0.08,0.2-0.08c0.03,0,0.22-0.04,0.24-0.04
					c0.05,0,0.07,0.02,0.07,0.07c0,0.16-0.23,0.16-0.36,0.16h-0.35c-0.14,0.08-0.21,0.13-0.37,0.2l-0.08,0.19
					c0.09-0.02,0.13-0.1,0.18-0.11c0.09-0.03,0.2,0.01,0.28-0.03c0.06-0.03,0.14-0.09,0.17-0.09c0.02,0.03-0.01,0.05-0.01,0.08
					c-0.09,0.05-0.05,0.13-0.09,0.21L10.41,25c-0.05,0-0.14,0.11-0.25,0.12c-0.05,0.04-0.22,0.08-0.24,0.1
					c0.06,0.03,0.19,0.05,0.24,0.05c0.05,0,0.24-0.04,0.32-0.1c0.01,0.03,0.15,0.05,0.15,0.1c0,0.19-0.68,0.22-0.71,0.23
					c-0.02,0.04-0.02,0.11,0,0.15h0.24c0.15-0.06,0.24-0.13,0.33-0.13c0.08,0,0,0.11,0,0.16c0,0.08-0.32,0.24-0.38,0.24H9.88
					c-0.03-0.05-0.1-0.06-0.13-0.06c-0.12,0-0.19,0.12-0.24,0.12c-0.05,0-0.3-0.04-0.3-0.15c0-0.27,0.24-0.93,0.48-0.94
					c0-0.03-0.02-0.03-0.04-0.05c-0.04,0.02-0.07,0.06-0.12,0.06c-0.04,0-0.11-0.01-0.11-0.08c0-0.03,0.32-0.33,0.48-0.41
					c-0.13-0.07-0.24,0.11-0.32,0.11H9.53c-0.02-0.03-0.05-0.06-0.05-0.11c0-0.08,0.55-0.51,0.65-0.55c0-0.03-0.02-0.05-0.02-0.05
					c-0.18,0.1-0.49,0.27-0.54,0.27c-0.05,0-0.05-0.04-0.09-0.05v-0.07c0.09-0.06,0.22-0.16,0.3-0.22c0.08-0.14,0.32-0.27,0.39-0.37
					c-0.06,0.01-0.39,0.19-0.43,0.19c-0.05,0-0.03,0-0.05-0.01v-0.09c0.15-0.03,0.3-0.25,0.4-0.34c0.03-0.02,0.09-0.02,0.12-0.03
					c0.07-0.05,0.11-0.13,0.15-0.18c-0.22,0.11-0.63,0.32-0.68,0.32c-0.05,0-0.04-0.02-0.05-0.02v-0.16c0-0.14,0.42-0.19,0.73-0.66
					c-0.2,0.12-0.41,0.34-0.66,0.34c-0.05,0-0.03,0-0.05-0.01c0-0.02,0-0.04-0.02-0.05c0.14-0.16,0.37-0.36,0.5-0.49h-0.09
					c-0.11,0.05-0.15,0.17-0.3,0.17c-0.04,0-0.1,0-0.1-0.07c0-0.04,0.25-0.21,0.35-0.23c0.07-0.07,0.14-0.15,0.22-0.19
					c-0.06-0.03-0.11-0.05-0.15-0.05c-0.07,0-0.21,0.1-0.25,0.1c-0.06,0-0.11-0.04-0.11-0.13c0-0.27,0.77-0.51,0.8-0.55
					c0.32-0.39,0.8-0.42,1.21-0.65c0.17-0.09,0.38-0.33,0.58-0.38c0.11-0.1,0.21-0.19,0.32-0.28h0c0.1-0.09,0.2-0.18,0.3-0.26
					c0.08-0.14,0.27-0.28,0.32-0.37h-0.07c-0.25,0.19-0.52,0.46-0.76,0.63h0c-0.01,0.01-0.02,0.01-0.02,0.02
					c-0.06,0.04-0.13,0.08-0.19,0.12c-0.03,0.02-0.1,0.01-0.13,0.03c-0.49,0.38-1.11,0.74-1.69,0.92c-0.11,0.03-0.22,0.11-0.32,0.17
					c-0.02,0.15-0.14,0.14-0.22,0.19c-0.08-0.1-0.07-0.09-0.07-0.21c0-0.19,0.13-0.34,0.32-0.51c0.08-0.07,0.12-0.19,0.18-0.26
					h-0.07c-0.2,0.08-0.16,0.17-0.32,0.17c-0.05,0-0.05,0-0.07-0.01v-0.15c0.15-0.19,0.27-0.31,0.42-0.48l-0.1,0l0.1,0
					c0.05-0.06,0.1-0.12,0.16-0.19h-0.13c-0.07,0.05-0.14,0.14-0.23,0.19h0C9.97,19.9,9.94,19.9,9.91,19.9
					c-0.02,0-0.08,0.02-0.11-0.02H9.52v0.51c0,0.05-0.04,0.02-0.04,0.06c0,0.05,0.04,0.1,0.04,0.14c0,0.03-0.04,0.08-0.04,0.09v1.06
					c0,0.11-0.1,0.32-0.1,0.34v1.05c0,0.05,0.04-0.03,0.04,0.02c0,0.05-0.04-0.02-0.04,0.02v0.81c0,0.06-0.05,0.19-0.05,0.19v0.14
					c0.02,0,0.03,0.01,0.03,0.01c-0.07,0.03-0.04,0.15-0.05,0.19c-0.01,0.04-0.05,0.07-0.05,0.08C9.26,24.76,9.19,24.96,9.19,25
					v0.25c-0.13,0.23-0.16,0.6-0.25,0.85C8.98,26.15,9,26.29,9,26.37v0.64c0.03,0,0,0.15,0,0.2c0,0.05,0.04,0.11,0.04,0.16
					c0,0.2-0.12,0.45-0.28,0.59H8.61c-0.11-0.15-0.17-0.32-0.17-0.53c0.16-0.24,0.21-0.49,0.24-0.77c0.01-0.12,0.13-0.3,0.13-0.35
					v-0.26c0.02-0.22,0.13-0.36,0.13-0.41v-0.51c0.05-0.14,0.04-1.07,0.04-1.07c-0.04-0.02-0.04-0.02-0.04-0.07
					c0-0.05,0.04-0.03,0.04-0.08v-0.5c0-0.05,0.03-0.07,0.06-0.07v-0.61c0-0.05,0.04,0.01,0.04-0.03v-0.32
					c0-0.05,0.06-0.07,0.06-0.12v-0.4c0-0.05,0.06-0.16,0.06-0.2c0-0.05-0.04-0.05-0.04-0.1c0-0.05,0.06-0.18,0.06-0.22v-1.45v-0.06
					c0-0.05,0.04,0.01,0.04-0.03v-0.23c0-0.05-0.04,0.01-0.04-0.03v-1.14c0-0.05,0.04,0.01,0.04-0.03v-0.12
					c-0.03,0-0.04-0.01-0.04-0.01c0.01-0.01,0.06-0.18,0.06-0.23v-0.68c0-0.05,0.04,0,0.04-0.05c0-0.05-0.04-0.03-0.04-0.08
					c0-0.05,0.06-0.2,0.06-0.25v-0.72c0-0.05,0.04,0.01,0.04-0.03v-0.45c0-0.05-0.04,0-0.04-0.05c0-0.03,0.1-0.24,0.09-0.27v-0.25
					c-0.03,0-0.04-0.03-0.04-0.05c0.08-0.72,0.1-0.47,0.1-1.02v-0.34c0-0.05,0.04,0.01,0.04-0.03v-0.39c0-0.05-0.04,0.01-0.04-0.03
					V13c0-0.05,0.04,0.01,0.04-0.03v-0.54c-0.03,0-0.04-0.03-0.04-0.05l-0.02-1c0.02-0.14,0.06-0.21,0.06-0.27v-0.39
					c-0.03,0-0.04-0.03-0.04-0.05L9.46,9.55c0-0.02-0.04-0.01-0.04-0.06V9c-0.06-0.13-0.04-0.37-0.1-0.46L9.31,7.15
					c0.02-0.1,0.06-0.22,0.06-0.27c0-0.05-0.06-0.29-0.06-0.43C9.18,6.58,9.21,6.76,9.19,6.88C9.14,6.92,9.11,6.96,9.1,7
					C9.07,7.1,9.12,7.31,8.99,7.34C8.93,7.28,8.88,7.25,8.8,7.2C8.45,6.33,7.54,5.45,6.68,4.82c0.1,0.11,0.19,0.23,0.25,0.33
					c0.03,0.05,0.1,0.06,0.12,0.1c0.18,0.36,0.43,0.63,0.59,1.01c0.2,0.18,0.31,0.46,0.54,0.56c0.29,0.13,0.6,0.28,0.65,0.59
					C8.89,7.47,9.1,7.83,9.1,7.94v0.39c0.08,0.06,0.03,0.19,0.04,0.25C9.16,8.7,9.19,8.71,9.19,8.73v0.41
					c0,0.17,0.13,0.36,0.14,0.44v0.34c0.03,0,0.04-0.04,0.04,0.01v2.1c0,0.03-0.03,0.18-0.07,0.26c-0.42-0.29-0.49-0.69-0.77-1.05
					C8,10.55,7.3,10.04,6.62,9.65c-0.36-0.07-0.57-0.4-0.96-0.42c-0.12,0-0.3-0.11-0.35-0.11h-0.1v0.07
					c0.02,0.06,0.07,0.12,0.12,0.15c0.24,0.12,0.52,0.2,0.75,0.38C6.2,9.82,6.36,9.91,6.47,10c0.06,0.04,0.14,0.05,0.2,0.1
					c0.09,0.08,0.16,0.21,0.26,0.28c0.57,0.38,0.93,0.89,1.36,1.38c0.17,0.16,0.34,0.36,0.53,0.5c0.18,0.13,0.44,0.37,0.43,0.59
					c0,0.1,0.05,0.11,0.05,0.11v0.25c-0.02,0.02-0.04-0.03-0.04,0.02v1.03c0,0.03-0.08,0.22-0.08,0.28v0.77
					c0,0.05-0.04,0.04-0.04,0.06l-0.02,1.21c0,0.02-0.04,0.01-0.04,0.06V17c0,0.05-0.06,0.3-0.06,0.35c0,0.05,0.05,0.12,0.04,0.32
					c0,0.06-0.03,0.09-0.09,0.13H8.94c-0.02-0.03-0.04-0.06-0.07-0.08v0.11c0.12,0.02,0.17,0.15,0.17,0.21
					c0,0.05-0.06,0.16-0.06,0.21c0,0.07,0.06,0.17,0.06,0.21v0.75c0,0.01-0.06,0.14-0.06,0.17v0.51v0.13c0,0.05-0.04,0.04-0.04,0.05
					l-0.02,0.46c0,0.02-0.04,0.01-0.04,0.06v0.41c0,0.02-0.03,0.33-0.12,0.45c-0.1-0.14-0.24-0.25-0.29-0.41
					c-0.37-0.25-0.64-0.68-1.05-0.86C7.29,20.11,7.18,20,7.09,19.88c-0.07-0.08-0.13-0.16-0.2-0.22c-0.19-0.18-0.43-0.25-0.54-0.44
					c-0.26-0.23-0.55-0.43-0.85-0.51c0,0.03-0.02,0.03-0.02,0.09c0.08,0.1,0.12,0.2,0.22,0.27c0.32,0.24,0.68,0.55,1.02,0.82h0
					c0.13,0.1,0.27,0.2,0.4,0.28c0.16,0.1,0.43,0.08,0.52,0.28c0.08,0.09,0.21,0.29,0.27,0.38c0.05,0.08,0.16,0.14,0.2,0.2
					c0.13,0.2,0.27,0.42,0.46,0.61c0.07,0.07,0.21,0.15,0.24,0.21c0.07,0.18,0.05,0.38,0.12,0.51c-0.02,0.04-0.1,0.21-0.1,0.28
					c0,0.05,0.04,0.08,0.04,0.12c0,0.05-0.04-0.01-0.04,0.03v0.32c0,0.05-0.1,0.38-0.12,0.55c-0.02,0.27-0.04,0.35-0.04,0.39
					c0,0.05,0.04,0.1,0.04,0.14c0,0.05-0.04-0.01-0.04,0.03v1.14c0,0.05-0.02,0.17-0.02,0.22v0.25c-0.06,0.05-0.11,0.02-0.14,0.06
					c-0.02-0.03-0.13,0.01-0.14,0.01c-0.05,0-0.3,0.06-0.35,0.06c-0.05,0-0.27-0.03-0.4-0.08c-0.06-0.03-1.28-1.49-1.28-2.16
					c0-0.49,0.38-0.89,0.38-1.29c0-0.45-0.48-0.89-0.78-1.19c-0.54-0.49-1.14-0.9-1.63-1.39h0c-0.04-0.04-0.08-0.08-0.12-0.13
					c-0.5-0.37-0.95-1.06-1.31-1.57c-0.04-0.05-0.1-0.07-0.12-0.1c-0.11-0.17-0.08-0.26-0.08-0.44c0-0.13,0.01-0.27,0.06-0.38
					c0.03-0.07,0.14-0.06,0.2-0.1c0.06-0.04,0.11-0.06,0.15-0.06l0.56-0.02c0.28,0,0.45-0.19,0.45-0.45c0-0.1-0.17-0.43-0.29-0.4
					c-0.12-0.16-0.35-0.11-0.5-0.21c-0.23-0.16-0.56-0.31-0.75-0.7c-0.25-0.5-0.78-1.16-1.04-1.79c-0.1-0.23-0.19-0.49-0.27-0.73
					c-0.03-0.08-0.03-0.18-0.04-0.26c-0.05-0.04-0.07-0.08-0.07-0.13c0,0-0.04-0.28-0.04-0.33v-0.53c0.07-0.27,0.37-0.4,0.55-0.49
					c0.06-0.03,0.41-0.12,0.5-0.12h1.11c0.48,0.04,0.84,0.27,0.96,0.27c0.13,0,0.38-0.27,0.38-0.42c0-0.08-0.05-0.11-0.08-0.17
					c-0.18-0.46-0.69-0.58-1.03-0.86C3.38,9.66,3.17,9.55,3.07,9.44c-0.1-0.11-0.32-0.23-0.36-0.4C2.61,8.62,2.7,8.4,2.69,8.34
					c-0.03,0-0.04-0.01-0.04-0.01c0.07-0.07,0.02-0.23,0.06-0.3c0.06-0.1,0.2-0.18,0.24-0.28c0.1-0.26,0.03-0.61,0.26-0.83
					c0.08-0.08,0.21-0.14,0.32-0.14H4c0-0.03-0.01-0.04,0.04-0.04c0.05,0,0.04,0.01,0.04,0.04h0.48c0-0.03,0-0.04,0.05-0.04
					c0.05,0,0.01,0.04,0.06,0.04H5c0.08-0.07,0.22-0.05,0.32-0.07C5.41,6.69,5.92,6.25,5.92,6V5.71c-0.07-0.33-0.11-0.7-0.21-1
					L5.69,4.17c0-0.84,0.42-0.78,1.35-1.02c0.09-0.11,0.2-0.21,0.29-0.27c0.09-0.13,0.32-0.35,0.37-0.5
					c0.09-0.3,0.13-0.73,0.38-0.98C8.14,1.11,8.45,1.06,8.7,1.02C8.8,1.01,8.96,0.9,9.01,0.9h0.49c0.28,0.18,0.47,0.44,0.6,0.73
					c0.25,0.53,0.64,1.6,1.4,1.6h0.34c0.28,0,0.96,0.37,0.86,0.64c0.02,0.01,0.03-0.03,0.03,0.02v0.43c0,0.08-0.54,1.81-0.54,1.82
					v0.66c0.04,0.04,0.06,0.09,0.06,0.15c0.07,0.14,0.28,0.21,0.41,0.23c0.27,0.03,0.3,0.02,0.35,0.02c0.05,0,0.34-0.08,0.39-0.08
					h0.24c0.05,0-0.01-0.04,0.04-0.04h0.26c0.05,0,0.27-0.08,0.32-0.08c0.43,0,0.86,0.66,0.88,1.01c0.02,0.35,0.02,0.4,0.02,0.45
					c0,0.15-0.18,0.52-0.27,0.54c-0.03,0.22-0.46,0.87-0.46,1.25c0,0.05,0.02,0.17,0.02,0.25c0.08,0.15,0.35,0.15,0.44,0.28h1.22
					c0-0.03-0.01,0,0.04,0c0.05,0,0.04-0.03,0.04,0h0.35c0.25,0,0.62,0.2,0.72,0.4c0.05,0.11,0.03,0.28,0.03,0.33
					c0,0.29-0.1,0.59-0.22,0.82c-0.15,0.27-0.18,0.62-0.36,0.92c-0.23,0.39-0.54,0.75-0.81,1.07c-0.26,0.32-0.61,0.61-0.84,0.88
					c-0.13,0.15-0.29,0.22-0.46,0.36c-0.15,0.23-0.33,0.43-0.54,0.62c-0.11,0.21-0.41,0.4-0.41,0.68c0,0.25,0.1,0.23,0.36,0.23
					c0.05,0,0.19,0,0.3-0.03c-0.1-0.1-0.23-0.08-0.3-0.12c-0.02-0.11-0.08-0.26-0.08-0.31c0-0.36,1.39-1.48,1.53-1.59
					c0.29-0.29,0.61-0.67,0.92-0.94c0.04-0.15,0.18-0.37,0.33-0.48c0.01-0.06,0.08-0.18,0.12-0.21c0.1-0.27,0.32-0.53,0.41-0.8
					c0.1-0.32,0.16-0.64,0.26-0.93C17.46,11.66,17.45,11.68,17.45,11.63z"/>
			</g>
		</g>
		<g>
			<g>
				<path class="st0" d="M3.99,7.11c-0.2,0-0.47,0.39-0.53,0.45v0.18c0.03,0,0.07,0.02,0.09,0.02c0.07-0.27,0.38-0.43,0.56-0.59
					C4.07,7.15,4.03,7.11,3.99,7.11z"/>
			</g>
		</g>
		<g>
			<g>
				<path class="st0" d="M3.95,7.77c0.08,0,0.37-0.21,0.42-0.23C4.4,7.62,4.38,7.69,4.42,7.8h0.07C4.63,7.55,5.01,7.42,5.3,7.33
					C5.27,7.32,5.25,7.3,5.02,7.3C4.88,7.36,4.73,7.42,4.6,7.48C4.59,7.46,4.57,7.44,4.55,7.43c0.1-0.05,0.14-0.19,0.18-0.24
					c-0.11,0.13-0.31,0.1-0.48,0.17C4.15,7.4,3.84,7.39,3.84,7.59C3.84,7.62,3.87,7.77,3.95,7.77z"/>
			</g>
		</g>
		<g>
			<g>
				<path class="st0" d="M13.46,7.27c-0.02,0.04-0.02,0.09,0,0.11c0.06-0.02,0.12-0.02,0.18-0.02c0-0.04-0.04-0.06-0.04-0.09H13.46z
					"/>
			</g>
		</g>
		<g>
			<g>
				<path class="st0" d="M14.91,7.72C14.8,7.64,14.73,7.5,14.59,7.5h-0.06c-0.02,0.04-0.04,0.08-0.06,0.13
					c0.14,0.09,0.32,0.18,0.33,0.18C14.84,7.8,14.89,7.74,14.91,7.72z"/>
			</g>
		</g>
		<g>
			<g>
				<path class="st0" d="M5.63,7.56H5.25C5.14,7.64,4.8,7.72,4.8,7.94c0,0.05,0.04,0.09,0.07,0.13c0.2-0.15,0.46-0.41,0.82-0.45
					C5.66,7.6,5.63,7.58,5.63,7.56z"/>
			</g>
		</g>
		<g>
			<g>
				<path class="st0" d="M13.2,7.63c-0.05,0-0.1-0.08-0.14-0.08c-0.07,0-0.18,0.15-0.22,0.18c0.02,0.03,0.06,0.04,0.06,0.07h0.37
					c0.08-0.04,0.14-0.11,0.21-0.16V7.56c-0.07,0.08-0.21,0.02-0.26,0.05C13.22,7.62,13.25,7.63,13.2,7.63z"/>
			</g>
		</g>
		<g>
			<g>
				<path class="st0" d="M14.43,8.03c0.06,0.04,0.17,0.03,0.23,0.07c0.09,0.05,0.15,0.13,0.21,0.21h0.09c0-0.03,0.01-0.04,0.04-0.04
					c-0.08-0.07-0.21-0.44-0.42-0.44c-0.06,0-0.09,0.1-0.15,0.12V8.03z"/>
			</g>
		</g>
		<g>
			<g>
				<path class="st0" d="M5.4,8.19h0.07C5.61,8.1,5.83,8.06,5.94,7.92c-0.22,0.01-0.23,0.02-0.26,0c-0.1,0.02-0.32,0.03-0.32,0.16
					v0.07C5.39,8.15,5.4,8.16,5.4,8.19z"/>
			</g>
		</g>
		<g>
			<g>
				<path class="st0" d="M12.47,8.04c0,0.17,0.12,0.17,0.3,0.17c0.32,0,0.3-0.05,0.62-0.22c-0.02-0.03-0.02-0.05-0.02-0.05
					c-0.52-0.02-0.61-0.02-0.66-0.02C12.61,7.92,12.47,7.93,12.47,8.04z"/>
			</g>
		</g>
		<g>
			<g>
				<path class="st0" d="M14.35,8.26c0,0.23,0.29,0.37,0.34,0.59c0.01-0.07,0.05-0.12,0.05-0.17c0-0.15-0.09-0.25-0.16-0.45
					c-0.03-0.03-0.05-0.07-0.1-0.07h-0.06C14.39,8.19,14.35,8.21,14.35,8.26z"/>
			</g>
		</g>
		<g>
			<g>
				<path class="st0" d="M5.94,8.52c0.16-0.09,0.37-0.26,0.57-0.26c-0.04-0.02-0.23-0.07-0.3-0.07c-0.12,0-0.43,0.05-0.43,0.2
					c0,0.05,0.02,0.04,0.02,0.06C5.87,8.48,5.92,8.49,5.94,8.52z"/>
			</g>
		</g>
		<g>
			<g>
				<path class="st0" d="M12.18,8.38c0,0.13,0.24,0.21,0.38,0.21c0.2,0,0.26-0.06,0.48-0.14c0.02-0.04,0.02-0.09,0-0.11
					c-0.06,0-0.1-0.04-0.15-0.04c-0.05,0-0.04,0.02-0.05,0.04h-0.36c-0.05,0-0.15-0.08-0.24-0.09C12.24,8.3,12.18,8.33,12.18,8.38z"
					/>
			</g>
		</g>
		<g>
			<g>
				<path class="st0" d="M6.67,8.54H6.56C6.53,8.58,6.48,8.57,6.44,8.6v0.09h0.07C6.55,8.65,6.6,8.59,6.67,8.54z"/>
			</g>
		</g>
		<g>
			<g>
				<path class="st0" d="M14.14,8.65c0.02,0.03,0.06,0.05,0.06,0.06c-0.02,0.02-0.04,0.02-0.04,0.07c0,0.02,0.15,0.17,0.19,0.21
					c0.01,0.1,0.1,0.16,0.12,0.23h0.07c-0.02-0.16-0.06-0.3-0.08-0.43c-0.05-0.04-0.11-0.1-0.15-0.14H14.14z"/>
			</g>
		</g>
		<g>
			<g>
				<path class="st0" d="M13.87,9.2c0.06,0.09,0.08,0.17,0.12,0.23c0.06,0.08,0.15,0.14,0.23,0.24h0.09c0-0.05,0.04-0.06,0.04-0.11
					c0-0.05-0.12-0.21-0.16-0.32c-0.02-0.05-0.12-0.11-0.17-0.11C13.98,9.13,13.94,9.17,13.87,9.2z"/>
			</g>
		</g>
		<g>
			<g>
				<path class="st0" d="M10.88,10.12c-0.06,0.12-0.51,0.41-0.51,0.48v0.07c0.29-0.18,0.51-0.43,0.81-0.53
					c0.09-0.13,0.27-0.16,0.37-0.25c0.16-0.15,0.43-0.35,0.47-0.58h-0.07c-0.31,0.1-0.63,0.38-0.85,0.6
					C11.03,9.99,10.95,10.09,10.88,10.12z"/>
			</g>
		</g>
		<g>
			<g>
				<path class="st0" d="M13.6,9.62c0.12,0.2,0.3,0.32,0.39,0.55c0.1,0,0.12-0.02,0.15-0.02c-0.05-0.24-0.1-0.65-0.41-0.71
					C13.66,9.5,13.62,9.58,13.6,9.62z"/>
			</g>
		</g>
		<g>
			<g>
				<path class="st0" d="M13.87,10.52c0-0.1-0.07-0.51-0.28-0.51c-0.05,0-0.16,0.08-0.16,0.15c0,0.19,0.3,0.35,0.29,0.54
					C13.82,10.66,13.87,10.57,13.87,10.52z"/>
			</g>
		</g>
		<g>
			<g>
				<path class="st0" d="M13.58,10.97h0.06c-0.02-0.09-0.13-0.25-0.14-0.32h-0.19v0.07C13.32,10.8,13.5,10.98,13.58,10.97z"/>
			</g>
		</g>
		<g>
			<g>
				<path class="st0" d="M13.37,11.26c0-0.03,0.02-0.02,0.02-0.06c0-0.05-0.06-0.1-0.07-0.14c-0.01,0.04-0.03,0.09-0.05,0.18
					C13.31,11.25,13.35,11.26,13.37,11.26z"/>
			</g>
		</g>
		<g>
			<g>
				<path class="st0" d="M16.33,11.68V11.6c-0.06-0.06-0.12-0.12-0.16-0.16h-0.07c-0.02,0.04-0.04,0.04-0.04,0.09
					c0,0.08,0.14,0.08,0.18,0.16H16.33z"/>
			</g>
		</g>
		<g>
			<g>
				<path class="st0" d="M15.74,11.57c0,0.05-0.02,0.1-0.02,0.15c0,0.18,0.22,0.27,0.32,0.35c0.03-0.04,0.07-0.07,0.07-0.09
					C16.02,11.85,15.91,11.67,15.74,11.57z"/>
			</g>
		</g>
		<g>
			<g>
				<path class="st0" d="M2.51,11.59H2.42c-0.04,0.06-0.07,0.09-0.14,0.12c0,0.02,0.02,0.06,0.02,0.09
					C2.41,11.74,2.48,11.66,2.51,11.59z"/>
			</g>
		</g>
		<g>
			<g>
				<path class="st0" d="M3.92,12.21v0.09h0.1c0.1,0,0.62-0.49,0.74-0.71H4.69C4.41,11.8,4.07,11.87,3.92,12.21z"/>
			</g>
		</g>
		<g>
			<g>
				<path class="st0" d="M4.15,11.71H3.92c-0.15,0.21-0.55,0.35-0.71,0.6c-0.04,0.06-0.08,0.21-0.08,0.21v0.08
					c0.04,0.02,0.1,0.04,0.13,0.06C3.48,12.32,3.87,12,4.15,11.71z"/>
			</g>
		</g>
		<g>
			<g>
				<path class="st0" d="M2.66,12.02c0.02-0.02,0.06-0.11,0.12-0.13c-0.02-0.03-0.06-0.04-0.06-0.07H2.64
					c-0.08,0.1-0.16,0.17-0.22,0.25v0.07h0.09C2.55,12.11,2.63,12.07,2.66,12.02z"/>
			</g>
		</g>
		<g>
			<g>
				<path class="st0" d="M15.03,11.86v0.15c0.13,0.04,0.29,0.03,0.33,0.17c0.28,0,0.44,0.16,0.7,0.24
					c-0.02-0.13-0.15-0.24-0.23-0.34c-0.04-0.05-0.49-0.26-0.66-0.26C15.12,11.82,15.07,11.86,15.03,11.86z"/>
			</g>
		</g>
		<g>
			<g>
				<path class="st0" d="M3.28,11.94v-0.08C3.21,11.94,3.12,12,3.04,12.07c-0.05,0.04-0.18,0.04-0.23,0.09
					c-0.03,0.1-0.02,0.18-0.06,0.25c0.05,0.01,0.07,0.04,0.13,0.04C3.01,12.28,3.28,11.95,3.28,11.94z"/>
			</g>
		</g>
		<g>
			<g>
				<path class="st0" d="M10.21,12.39c0.2-0.06,0.42-0.31,0.47-0.44C10.49,12.06,10.24,12.26,10.21,12.39z"/>
			</g>
		</g>
		<g>
			<g>
				<path class="st0" d="M3.84,12.99c0.03,0,0.05,0.02,0.13,0.02c0.26-0.36,0.66-0.65,0.95-0.99C4.87,12,4.85,11.98,4.83,11.98
					c-0.16,0.09-0.33,0.17-0.44,0.24c-0.09,0.09-0.57,0.61-0.57,0.72C3.82,12.98,3.84,12.97,3.84,12.99z"/>
			</g>
		</g>
		<g>
			<g>
				<path class="st0" d="M4.66,12.48c-0.18,0.14-0.45,0.34-0.51,0.56c-0.04,0.17,0.02,0.21,0,0.24h0.09c0.32-0.29,0.68-0.72,1.06-1
					v-0.09c-0.12,0.05-0.19,0.09-0.3,0.15C4.85,12.41,4.75,12.41,4.66,12.48z"/>
			</g>
		</g>
		<g>
			<g>
				<path class="st0" d="M14.53,12.25c0,0.03-0.01,0.04-0.04,0.04c0.2,0.17,0.46,0.15,0.68,0.25c0.1,0.05,0.49,0.21,0.53,0.21
					c0.05,0,0.09-0.04,0.13-0.07c-0.22-0.1-0.7-0.43-1.03-0.43H14.53z"/>
			</g>
		</g>
		<g>
			<g>
				<path class="st0" d="M13.93,12.29h-0.11c0,0.02,0,0.05,0.02,0.07C13.86,12.36,13.91,12.34,13.93,12.29z"/>
			</g>
		</g>
		<g>
			<g>
				<path class="st0" d="M13.55,12.68c-0.05-0.08-0.14-0.07-0.16-0.07c-0.05,0-0.13,0.06-0.19,0.07c0.06,0.01,0.12,0.05,0.16,0.05
					C13.4,12.72,13.48,12.69,13.55,12.68z"/>
			</g>
		</g>
		<g>
			<g>
				<path class="st0" d="M3.39,12.99c0.02-0.1,0.17-0.22,0.2-0.26v-0.07c-0.04-0.02-0.07-0.04-0.09-0.04
					c-0.06,0.1-0.15,0.17-0.18,0.28C3.37,12.94,3.37,12.95,3.39,12.99z"/>
			</g>
		</g>
		<g>
			<g>
				<path class="st0" d="M4.93,12.87c-0.07,0.06-0.51,0.43-0.51,0.69c0,0.06,0.04,0.14,0.12,0.14c0.11,0,0.4-0.42,0.41-0.43
					c0.14-0.25,0.42-0.36,0.62-0.55v-0.09H5.4C5.25,12.71,5.06,12.76,4.93,12.87z"/>
			</g>
		</g>
		<g>
			<g>
				<path class="st0" d="M14.11,12.63c0,0.03-0.03,0.04-0.06,0.04v0.07c0.04,0.04,0.12,0.1,0.16,0.1h0.36c0.06,0,0.3,0.13,0.31,0.14
					c0.15,0.03,0.29,0.06,0.42,0.09c0.08,0.02,0.19,0.11,0.24,0.11h0.08c-0.07-0.12-0.87-0.55-1.18-0.55H14.11z"/>
			</g>
		</g>
		<g>
			<g>
				<path class="st0" d="M16.44,12.89c0.01-0.02,0.02-0.03,0.04-0.03v-0.07h-0.09v0.07C16.39,12.91,16.43,12.87,16.44,12.89z"/>
			</g>
		</g>
		<g>
			<g>
				<path class="st0" d="M5.1,13.29c-0.13,0.2-0.42,0.39-0.48,0.69c-0.01,0.04-0.07,0.1-0.07,0.14c0,0.05,0.04,0.05,0.04,0.1
					c0.07-0.06,0.15-0.08,0.2-0.15c0.24-0.42,0.75-0.83,1.05-1.15C5.8,12.9,5.78,12.9,5.73,12.9C5.61,12.9,5.15,13.25,5.1,13.29z"/>
			</g>
		</g>
		<g>
			<g>
				<path class="st0" d="M12.73,13.01c-0.05,0-0.07,0.02-0.11,0.09c0.04,0.03,0.04,0.06,0.07,0.08c0.06-0.02,0.11-0.06,0.16-0.06
					h0.27c-0.02-0.07-0.06-0.07-0.28-0.07C12.81,13.05,12.78,13.01,12.73,13.01z"/>
			</g>
		</g>
		<g>
			<g>
				<path class="st0" d="M16.13,13.11l-0.02,0.11c0.02,0.06,0.06,0.1,0.13,0.16v-0.14C16.24,13.19,16.17,13.13,16.13,13.11z"/>
			</g>
		</g>
		<g>
			<g>
				<path class="st0" d="M14.15,13.32c0.2,0,1,0.3,1.03,0.3c-0.16-0.1-0.77-0.5-1.13-0.49h-0.33c-0.02,0.04-0.06,0.07-0.06,0.11
					c0.1,0.01,0.22,0.08,0.24,0.08H14.15z"/>
			</g>
		</g>
		<g>
			<g>
				<path class="st0" d="M12.74,13.34c-0.08,0-0.3,0.08-0.38,0.12v0.09c0.14-0.04,0.27-0.06,0.32-0.06h0.54
					C13.16,13.43,12.79,13.34,12.74,13.34z"/>
			</g>
		</g>
		<g>
			<g>
				<path class="st0" d="M15.97,13.72h0.07v-0.15c-0.04-0.06-0.08-0.12-0.14-0.18c-0.03,0.04-0.07,0.06-0.07,0.11
					C15.83,13.6,15.9,13.62,15.97,13.72z"/>
			</g>
		</g>
		<g>
			<g>
				<path class="st0" d="M13.88,13.84c0.35,0.09,0.7,0.18,1.03,0.36c0-0.03,0.03-0.04,0.06-0.05c-0.1-0.07-0.18-0.13-0.28-0.2
					c-0.3-0.18-0.66-0.23-0.98-0.33c0,0.03,0.03,0.04-0.02,0.04c-0.05,0-0.06-0.04-0.1-0.04c-0.13,0-0.09,0.04-0.24,0.1
					C13.49,13.92,13.48,13.73,13.88,13.84z"/>
			</g>
		</g>
		<g>
			<g>
				<path class="st0" d="M5.34,13.79H5.25c-0.16,0.13-0.31,0.33-0.43,0.44v0.09c0.03,0,0.05,0.02,0.05,0.02
					C5.1,14.25,5.21,13.99,5.34,13.79z"/>
			</g>
		</g>
		<g>
			<g>
				<path class="st0" d="M12.57,13.82c-0.09,0-0.25-0.01-0.33,0.07c0.05,0.01,0.07,0.04,0.09,0.04c0-0.03-0.02-0.04,0.03-0.04
					c0.05,0,0.07,0.04,0.12,0.04s0.05-0.04,0.1-0.04h0.29C12.83,13.81,12.65,13.82,12.57,13.82z"/>
			</g>
		</g>
		<g>
			<g>
				<path class="st0" d="M15.68,14.17v-0.28c-0.06-0.04-0.14-0.04-0.23-0.06C15.53,13.95,15.59,14.07,15.68,14.17z"/>
			</g>
		</g>
		<g>
			<g>
				<path class="st0" d="M12.14,14.31c0.04,0.02,0.1,0.04,0.13,0.06c0.01-0.03,0.04-0.04,0.05-0.04c0.33,0,0.37-0.02,0.39-0.02
					c-0.06-0.1-0.35-0.17-0.46-0.17c-0.05,0-0.07,0.04-0.11,0.06V14.31z"/>
			</g>
		</g>
		<g>
			<g>
				<path class="st0" d="M15.41,14.49v-0.07c-0.04-0.04-0.09-0.05-0.1-0.07c-0.01,0.06,0.01,0.09,0.01,0.12
					C15.34,14.47,15.38,14.47,15.41,14.49z"/>
			</g>
		</g>
		<g>
			<g>
				<path class="st0" d="M8.79,17.49c0.02-0.04,0.05-0.08,0.05-0.12c0-0.18-0.22-0.4-0.34-0.56c-0.21-0.29-0.51-0.42-0.71-0.71
					c-0.24-0.14-0.43-0.21-0.65-0.39c-0.34-0.18-0.64-0.33-0.93-0.59C6.06,15,5.42,14.38,5.29,14.38c-0.09,0-0.09,0.09-0.09,0.12
					c0,0.28,0.85,0.73,0.91,0.8c0.14,0.16,0.29,0.38,0.47,0.53c0.45,0.36,0.94,0.67,1.44,0.97C8.24,17.02,8.5,17.35,8.79,17.49z"/>
			</g>
		</g>
		<g>
			<g>
				<path class="st0" d="M13.28,16.9c0,0.16,0.11,0.12,0.2,0.27c0.01-0.03,0.03-0.05,0.02-0.11c-0.11-0.08-0.12-0.21-0.14-0.33
					C13.27,16.75,13.28,16.83,13.28,16.9z"/>
			</g>
		</g>
		<g>
			<g>
				<path class="st0" d="M13.22,17.37c-0.12-0.12-0.15-0.25-0.18-0.41c-0.01-0.05-0.09-0.1-0.1-0.16c-0.01,0.08-0.09,0.17-0.09,0.22
					c0,0.08,0.19,0.3,0.22,0.34H13.22z"/>
			</g>
		</g>
		<g>
			<g>
				<path class="st0" d="M12.74,17.19c0,0.08,0,0.14,0,0.18c0.04,0.02,0.1,0,0.15,0c-0.02-0.05-0.06-0.12-0.06-0.18H12.74z"/>
			</g>
		</g>
		<g>
			<g>
				<path class="st0" d="M14.16,17.46c-0.08-0.04-0.12-0.12-0.17-0.12c-0.05,0-0.11,0.06-0.15,0.1v0.07
					c0.04,0.04,0.1,0.05,0.14,0.05C14.07,17.55,14.13,17.55,14.16,17.46z"/>
			</g>
		</g>
		<g>
			<g>
				<path class="st0" d="M5.26,17.49H5.1c-0.13,0-0.38,0.33-0.42,0.37c0.02,0.03,0.05,0.03,0.05,0.03
					C4.89,17.73,5.15,17.71,5.26,17.49z"/>
			</g>
		</g>
		<g>
			<g>
				<path class="st0" d="M3.17,17.71v0.07c0.05,0,0.08-0.02,0.11-0.02c0-0.06,0.06-0.13,0.04-0.17C3.24,17.61,3.19,17.67,3.17,17.71
					z"/>
			</g>
		</g>
		<g>
			<g>
				<path class="st0" d="M13.43,17.78c0.05,0,0.08,0.04,0.12,0.04c0.19-0.01,0.27-0.04,0.33-0.04c-0.04-0.09-0.24-0.17-0.3-0.17
					C13.47,17.61,13.45,17.61,13.43,17.78z"/>
			</g>
		</g>
		<g>
			<g>
				<path class="st0" d="M3.66,17.7c-0.28,0.14-0.26,0.42-0.27,0.65c0.06-0.09,0.34-0.52,0.34-0.58C3.73,17.72,3.68,17.72,3.66,17.7
					z"/>
			</g>
		</g>
		<g>
			<g>
				<path class="st0" d="M5.2,18.11c0.19-0.1,0.46-0.17,0.58-0.34C5.72,17.72,5.6,17.7,5.55,17.7c-0.09,0-0.17,0.09-0.23,0.11
					c-0.05,0.02-0.14,0-0.19,0.03c-0.11,0.07-0.18,0.21-0.28,0.31v0.07h0.16C5.14,18.22,5.12,18.15,5.2,18.11z"/>
			</g>
		</g>
		<g>
			<g>
				<path class="st0" d="M5.71,18.19c0.09-0.07,0.14-0.13,0.2-0.15c-0.02-0.07-0.03-0.07-0.08-0.07c-0.05,0-0.24,0.08-0.36,0.14
					v0.09c0.04,0.02,0.07,0.06,0.09,0.06C5.61,18.22,5.66,18.22,5.71,18.19z"/>
			</g>
		</g>
		<g>
			<g>
				<path class="st0" d="M13.43,17.99c-0.08,0-0.22-0.02-0.27-0.02c-0.05,0-0.13,0.03-0.21,0.07c0.05,0.06,0.02,0.14,0.15,0.18
					c0.12-0.12,0.23-0.07,0.35-0.18C13.43,18.01,13.43,17.99,13.43,17.99z"/>
			</g>
		</g>
		<g>
			<g>
				<path class="st0" d="M3.85,18.27c0.02-0.06,0.13-0.15,0.13-0.2v-0.08H3.85c-0.08,0.08-0.26,0.19-0.26,0.33v0.25
					c0,0.05,0.04,0.1,0.07,0.16C3.77,18.59,3.77,18.47,3.85,18.27z"/>
			</g>
		</g>
		<g>
			<g>
				<path class="st0" d="M5.91,18.47c0.05-0.04,0.08-0.1,0.14-0.12v-0.09c-0.09,0.04-0.16,0.12-0.25,0.16
					C5.85,18.43,5.88,18.43,5.91,18.47z"/>
			</g>
		</g>
		<g>
			<g>
				<path class="st0" d="M4.15,18.46c0-0.05-0.04-0.1-0.04-0.14H4c-0.05,0.09-0.12,0.3-0.12,0.35c0,0,0.04,0.07,0.05,0.18
					C4.01,18.75,4.15,18.59,4.15,18.46z"/>
			</g>
		</g>
		<g>
			<g>
				<path class="st0" d="M12.63,18.53c0.03,0,0.04,0.02,0.04,0.02c0.04-0.02,0.03-0.06,0.08-0.06h0.28c0.05,0,0.12-0.06,0.18-0.06
					c-0.11-0.1-0.11-0.11-0.19-0.11c-0.09,0-0.33,0.05-0.42,0.12C12.6,18.46,12.62,18.5,12.63,18.53z"/>
			</g>
		</g>
		<g>
			<g>
				<path class="st0" d="M6.17,18.55v0.09c0.05-0.02,0.1-0.04,0.17-0.06c0-0.02-0.03-0.05-0.07-0.05
					C6.21,18.53,6.2,18.55,6.17,18.55z"/>
			</g>
		</g>
		<g>
			<g>
				<path class="st0" d="M4.25,19.02c0,0.11-0.01,0.11,0.11,0.16c0.02-0.07,0.08-0.18,0.08-0.29c0-0.06,0.01-0.09-0.11-0.13
					C4.28,18.86,4.25,18.97,4.25,19.02z"/>
			</g>
		</g>
		<g>
			<g>
				<path class="st0" d="M6.46,18.85c0.05-0.02,0.04-0.06,0.02-0.06C6.46,18.8,6.46,18.83,6.46,18.85z"/>
			</g>
		</g>
		<g>
			<g>
				<path class="st0" d="M6.72,19.01c0-0.03,0.04-0.04,0.04-0.07H6.67c0,0.03-0.04,0.04-0.04,0.07H6.72z"/>
			</g>
		</g>
		<g>
			<g>
				<path class="st0" d="M6.99,19.17c-0.1-0.05-0.12-0.03-0.15-0.02C6.92,19.2,6.96,19.18,6.99,19.17z"/>
			</g>
		</g>
		<g>
			<g>
				<path class="st0" d="M4.44,19.32v0.09c0.03,0,0.06-0.02,0.09-0.02c0.02-0.04,0.02-0.09,0-0.13C4.5,19.28,4.47,19.32,4.44,19.32z
					"/>
			</g>
		</g>
		<g>
			<g>
				<path class="st0" d="M14.05,19.36c-0.02-0.02-0.02-0.04-0.02-0.04c-0.1,0-0.24-0.02-0.28-0.02c-0.05,0-0.11,0.06-0.17,0.06
					c0.09,0.1,0.06,0.17,0.19,0.17C13.78,19.53,14.01,19.42,14.05,19.36z"/>
			</g>
		</g>
		<g>
			<g>
				<path class="st0" d="M4.76,19.64v-0.07C4.73,19.57,4.71,19.58,4.76,19.64z"/>
			</g>
		</g>
		<g>
			<g>
				<path class="st0" d="M13.66,19.77c-0.12-0.05-0.33-0.09-0.38-0.09c-0.08,0-0.08-0.01-0.16,0.09c0.12,0.03,0.06,0.08,0.16,0.08
					C13.34,19.85,13.54,19.8,13.66,19.77z"/>
			</g>
		</g>
		<g>
			<g>
				<path class="st0" d="M13.22,20.18c-0.04-0.08-0.16-0.05-0.2-0.06c-0.01,0-0.18-0.15-0.23-0.15h-0.16
					c-0.02,0.04-0.02,0.07-0.02,0.12c0,0.14,0.13,0.15,0.26,0.15C12.91,20.24,13.1,20.18,13.22,20.18z"/>
			</g>
		</g>
		<g>
			<g>
				<path class="st0" d="M12.24,20.34c-0.02,0.04-0.02,0.08-0.06,0.11c0.04,0.03,0.04,0.06,0.06,0.1c0.04,0,0.1,0.02,0.15,0.02
					c0.18,0,0.15-0.07,0.4-0.08c-0.08-0.08-0.22-0.15-0.34-0.15H12.24z"/>
			</g>
		</g>
		<g>
			<g>
				<path class="st0" d="M12.25,22.95c-0.05,0-0.11,0.06-0.11,0.11h0.09c0.04-0.04,0.12-0.06,0.18-0.11H12.25z"/>
			</g>
		</g>
		<g>
			<g>
				<path class="st0" d="M6.73,23.36c0,0.08-0.02,0.18,0.01,0.27c0.1-0.17,0.17-0.31,0.32-0.35V23.2l-0.1-0.02
					C6.83,23.24,6.87,23.36,6.73,23.36z"/>
			</g>
		</g>
		<g>
			<g>
				<path class="st0" d="M11.68,23.56c0.12,0.07,0.1,0.06,0.18,0.06c0.37,0,0.13-0.2,0.58-0.23V23.3h-0.09
					c-0.22,0.09-0.5,0.01-0.68,0.18V23.56z"/>
			</g>
		</g>
		<g>
			<g>
				<path class="st0" d="M6.96,23.57c-0.04,0.06-0.08,0.1-0.12,0.12v0.15c0.03,0,0.05,0.02,0.05,0.02c0.06-0.04,0.08-0.19,0.2-0.2
					c-0.02-0.03-0.04-0.06-0.04-0.09H6.96z"/>
			</g>
		</g>
		<g>
			<g>
				<path class="st0" d="M7,24.05v0.13c0.14-0.05,0.22-0.19,0.32-0.28c-0.05-0.01-0.07-0.04-0.11-0.04
					C7.13,23.91,7.07,23.99,7,24.05z"/>
			</g>
		</g>
		<g>
			<g>
				<path class="st0" d="M7.15,24.44h0.11c0.02-0.04,0.08-0.07,0.08-0.12c0-0.05-0.02-0.06-0.02-0.08
					C7.23,24.3,7.18,24.38,7.15,24.44z"/>
			</g>
		</g>
		<g>
			<g>
				<path class="st0" d="M7.43,24.71c0-0.04,0.04-0.08,0.06-0.17c-0.05,0-0.05-0.04-0.1-0.04c-0.05,0-0.06,0.04-0.1,0.06v0.13
					C7.31,24.7,7.33,24.72,7.43,24.71z"/>
			</g>
		</g>
		<g>
			<g>
				<path class="st0" d="M7.65,24.88c-0.04-0.03-0.07-0.07-0.09-0.07l-0.02,0.13h0.07C7.61,24.92,7.62,24.89,7.65,24.88z"/>
			</g>
		</g>
		<g>
			<g>
				<path class="st0" d="M7.79,25.16c-0.02,0-0.03,0.03-0.02,0.06C7.81,25.2,7.81,25.16,7.79,25.16z"/>
			</g>
		</g>
	</g>
	<g>
		<rect x="0.45" y="33.12" class="st1" width="17.32" height="0.69"/>
	</g>
	<g>
		<rect x="0.45" y="62.94" class="st1" width="17.32" height="0.69"/>
	</g>
	<g id="Text_Block">
		<path class="st1" d="M0.64,42.32l2.26-4.86c0.02-0.04,0.07-0.08,0.12-0.08h0.07c0.05,0,0.1,0.04,0.12,0.08l2.26,4.86
			c0.04,0.09-0.01,0.19-0.12,0.19h-0.8c-0.13,0-0.19-0.04-0.25-0.18l-0.26-0.57H2.07l-0.26,0.58C1.78,42.42,1.7,42.5,1.55,42.5H0.76
			C0.65,42.5,0.59,42.41,0.64,42.32z M3.6,40.77l-0.55-1.19H3.05l-0.54,1.19H3.6z"/>
		<path class="st1" d="M8.08,37.58c0-0.07,0.06-0.14,0.14-0.14h0.86c0.07,0,0.14,0.07,0.14,0.14v3.86h1.72
			c0.08,0,0.14,0.07,0.14,0.14v0.79c0,0.07-0.06,0.14-0.14,0.14H8.21c-0.08,0-0.14-0.07-0.14-0.14V37.58z"/>
		<path class="st1" d="M14.08,37.58c0-0.07,0.06-0.14,0.14-0.14h1.68c0.85,0,1.55,0.58,1.55,1.34c0,0.56-0.5,0.96-0.84,1.14
			c0.38,0.16,0.97,0.51,0.97,1.18c0,0.81-0.71,1.39-1.57,1.39h-1.79c-0.08,0-0.14-0.07-0.14-0.14V37.58z M15.77,39.5
			c0.27,0,0.51-0.23,0.51-0.52c0-0.29-0.23-0.49-0.51-0.49h-0.56v1.01H15.77z M15.86,41.47c0.28,0,0.52-0.23,0.52-0.53
			c0-0.29-0.31-0.51-0.59-0.51h-0.58v1.03H15.86z"/>
		<path class="st1" d="M20.67,37.58c0-0.07,0.06-0.14,0.14-0.14h2.99c0.08,0,0.14,0.07,0.14,0.14v0.79c0,0.07-0.06,0.14-0.14,0.14
			h-2v0.9h1.65c0.07,0,0.14,0.06,0.14,0.14v0.79c0,0.08-0.06,0.14-0.14,0.14H21.8v0.97h2c0.08,0,0.14,0.07,0.14,0.14v0.79
			c0,0.07-0.06,0.14-0.14,0.14h-2.99c-0.08,0-0.14-0.07-0.14-0.14V37.58z"/>
		<path class="st1" d="M27.21,37.58c0-0.07,0.06-0.14,0.14-0.14h2.16c0.87,0,1.57,0.7,1.57,1.56c0,0.66-0.44,1.2-1.07,1.45
			l0.99,1.83c0.05,0.09,0,0.21-0.12,0.21h-0.96c-0.06,0-0.1-0.04-0.12-0.07l-0.96-1.91h-0.5v1.84c0,0.07-0.06,0.14-0.14,0.14h-0.86
			c-0.08,0-0.14-0.07-0.14-0.14V37.58z M29.42,39.61c0.3,0,0.55-0.27,0.55-0.58s-0.25-0.55-0.55-0.55h-1.07v1.13H29.42z"/>
		<path class="st1" d="M34.87,38.51h-1.03c-0.08,0-0.14-0.06-0.14-0.14v-0.79c0-0.07,0.06-0.14,0.14-0.14h3.21
			c0.08,0,0.14,0.07,0.14,0.14v0.79c0,0.07-0.06,0.14-0.14,0.14h-1.03v3.86c0,0.07-0.07,0.14-0.14,0.14h-0.87
			c-0.07,0-0.14-0.07-0.14-0.14V38.51z"/>
		<path class="st1" d="M1.29,46.29c0-0.09,0.07-0.17,0.17-0.17H2.3c0.09,0,0.17,0.08,0.17,0.17v1.9l1.6-2
			c0.03-0.04,0.09-0.07,0.14-0.07h0.91c0.14,0,0.21,0.16,0.13,0.27L3.57,48.5l1.84,2.4c0.08,0.11,0,0.27-0.14,0.27h-1
			c-0.05,0-0.12-0.03-0.13-0.05l-1.67-2.27V51c0,0.09-0.08,0.17-0.17,0.17H1.46c-0.1,0-0.17-0.08-0.17-0.17V46.29z"/>
		<path class="st1" d="M10.44,46.04c1.44,0,2.6,1.16,2.6,2.61c0,1.44-1.16,2.59-2.6,2.59c-1.44,0-2.59-1.15-2.59-2.59
			C7.85,47.21,8.99,46.04,10.44,46.04z M10.44,50.09c0.79,0,1.44-0.65,1.44-1.44c0-0.79-0.65-1.45-1.44-1.45
			C9.65,47.2,9,47.86,9,48.65C9,49.44,9.65,50.09,10.44,50.09z"/>
		<path class="st1" d="M16.23,46.25c0-0.07,0.06-0.14,0.14-0.14h2.99c0.08,0,0.14,0.07,0.14,0.14v0.79c0,0.07-0.06,0.14-0.14,0.14
			h-2v0.9H19c0.07,0,0.14,0.07,0.14,0.14V49c0,0.08-0.06,0.14-0.14,0.14h-1.65v0.98h2c0.08,0,0.14,0.06,0.14,0.14v0.79
			c0,0.07-0.06,0.14-0.14,0.14h-2.99c-0.08,0-0.14-0.06-0.14-0.14V46.25z"/>
		<path class="st1" d="M24.87,46.04c0.72,0,1.26,0.22,1.75,0.67c0.06,0.06,0.06,0.14,0.01,0.2l-0.56,0.58
			c-0.05,0.05-0.13,0.05-0.18,0c-0.27-0.24-0.62-0.37-0.98-0.37c-0.82,0-1.42,0.68-1.42,1.49c0,0.8,0.61,1.47,1.42,1.47
			c0.34,0,0.71-0.12,0.97-0.35c0.05-0.04,0.14-0.04,0.19,0.01l0.56,0.6c0.05,0.05,0.04,0.14-0.01,0.2c-0.49,0.48-1.11,0.7-1.76,0.7
			c-1.44,0-2.61-1.15-2.61-2.59C22.26,47.21,23.42,46.04,24.87,46.04z"/>
		<path class="st1" d="M29.66,46.25c0-0.07,0.06-0.14,0.14-0.14h0.86c0.08,0,0.14,0.07,0.14,0.14v1.82h2.07v-1.82
			c0-0.07,0.06-0.14,0.14-0.14h0.86c0.07,0,0.14,0.07,0.14,0.14v4.78c0,0.07-0.07,0.14-0.14,0.14h-0.86c-0.08,0-0.14-0.06-0.14-0.14
			v-1.9h-2.07v1.9c0,0.07-0.06,0.14-0.14,0.14h-0.86c-0.07,0-0.14-0.06-0.14-0.14V46.25z"/>
		<path class="st1" d="M37.54,46.25c0-0.07,0.06-0.14,0.14-0.14h0.86c0.07,0,0.14,0.07,0.14,0.14v3.86h1.72
			c0.08,0,0.14,0.06,0.14,0.14v0.79c0,0.07-0.06,0.14-0.14,0.14h-2.72c-0.08,0-0.14-0.06-0.14-0.14V46.25z"/>
		<path class="st1" d="M43.55,46.25c0-0.07,0.06-0.14,0.14-0.14h0.87c0.07,0,0.14,0.07,0.14,0.14v4.78c0,0.07-0.06,0.14-0.14,0.14
			h-0.87c-0.07,0-0.14-0.06-0.14-0.14V46.25z"/>
		<path class="st1" d="M48.09,46.17c0-0.07,0.07-0.13,0.14-0.13h0.18l2.88,2.77h0.01v-2.56c0-0.07,0.06-0.14,0.14-0.14h0.87
			c0.07,0,0.14,0.07,0.14,0.14v4.86c0,0.07-0.07,0.13-0.14,0.13h-0.12c-0.02,0-0.08-0.02-0.09-0.04l-2.85-2.87h-0.01v2.69
			c0,0.07-0.06,0.14-0.14,0.14h-0.86c-0.07,0-0.14-0.06-0.14-0.14L48.09,46.17z"/>
		<path class="st1" d="M1.08,58.86c0.04-0.04,0.07-0.09,0.11-0.14c0.07-0.09,0.15-0.15,0.25-0.07c0.05,0.04,0.58,0.55,1.22,0.55
			c0.59,0,0.97-0.37,0.97-0.79c0-0.5-0.43-0.79-1.26-1.14c-0.79-0.35-1.27-0.67-1.27-1.5c0-0.49,0.39-1.29,1.54-1.29
			c0.71,0,1.23,0.37,1.23,0.37c0.04,0.02,0.13,0.11,0.04,0.25c-0.03,0.04-0.06,0.09-0.09,0.14c-0.06,0.1-0.14,0.13-0.25,0.07
			c-0.05-0.03-0.51-0.33-0.95-0.33c-0.77,0-1,0.49-1,0.79c0,0.48,0.37,0.77,0.98,1.02c0.98,0.4,1.6,0.77,1.6,1.6
			c0,0.75-0.72,1.3-1.56,1.3c-0.85,0-1.43-0.5-1.52-0.58C1.06,59.06,0.99,59,1.08,58.86z"/>
		<path class="st1" d="M8.13,55.05H6.88c-0.08,0-0.14-0.07-0.14-0.14V54.7c0-0.07,0.06-0.14,0.14-0.14h3.06
			c0.08,0,0.14,0.07,0.14,0.14v0.21c0,0.07-0.06,0.14-0.14,0.14H8.68v4.43c0,0.07-0.07,0.14-0.14,0.14H8.27
			c-0.07,0-0.14-0.07-0.14-0.14V55.05z"/>
		<path class="st1" d="M13.04,54.7c0-0.07,0.06-0.14,0.14-0.14h0.29c0.07,0,0.14,0.07,0.14,0.14v4.78c0,0.07-0.07,0.14-0.14,0.14
			h-0.29c-0.07,0-0.14-0.07-0.14-0.14V54.7z"/>
		<path class="st1" d="M17.28,54.7c0-0.07,0.06-0.14,0.14-0.14h2.85c0.08,0,0.14,0.07,0.14,0.14v0.21c0,0.07-0.06,0.14-0.14,0.14
			h-2.43v1.98h2.07c0.07,0,0.14,0.07,0.14,0.14v0.21c0,0.07-0.07,0.14-0.14,0.14h-2.07v1.97c0,0.07-0.06,0.14-0.14,0.14h-0.28
			c-0.08,0-0.14-0.07-0.14-0.14V54.7z"/>
		<path class="st1" d="M24.29,55.05h-1.26c-0.08,0-0.14-0.07-0.14-0.14V54.7c0-0.07,0.06-0.14,0.14-0.14h3.06
			c0.08,0,0.14,0.07,0.14,0.14v0.21c0,0.07-0.06,0.14-0.14,0.14h-1.26v4.43c0,0.07-0.06,0.14-0.14,0.14h-0.27
			c-0.07,0-0.14-0.07-0.14-0.14V55.05z"/>
		<path class="st1" d="M29.13,54.7c0-0.07,0.06-0.14,0.14-0.14h0.27c0.08,0,0.14,0.07,0.14,0.14v3.01c0,0.82,0.51,1.47,1.36,1.47
			c0.85,0,1.37-0.63,1.37-1.45V54.7c0-0.07,0.06-0.14,0.14-0.14h0.27c0.07,0,0.14,0.07,0.14,0.14v3.06c0,1.1-0.78,1.94-1.92,1.94
			c-1.13,0-1.91-0.84-1.91-1.94V54.7z"/>
		<path class="st1" d="M36.53,54.62c0-0.07,0.06-0.13,0.14-0.13h0.18l3.26,4.06c0.01,0,0.01,0,0.01,0V54.7
			c0-0.07,0.06-0.14,0.14-0.14h0.25c0.07,0,0.14,0.07,0.14,0.14v4.86c0,0.07-0.06,0.13-0.14,0.13h-0.13l-3.31-4.14h-0.01v3.93
			c0,0.07-0.06,0.14-0.14,0.14h-0.25c-0.07,0-0.14-0.07-0.14-0.14V54.62z"/>
		<path class="st1" d="M46.42,54.49c0.73,0,1.26,0.25,1.75,0.67c0.06,0.06,0.06,0.14,0.01,0.2c-0.07,0.07-0.14,0.14-0.2,0.2
			c-0.06,0.07-0.11,0.07-0.19-0.01C47.42,55.23,46.9,55,46.42,55c-1.14,0-2.01,0.95-2.01,2.07c0,1.11,0.87,2.09,2.01,2.09
			c0.79,0,1.3-0.3,1.3-0.3v-1.01h-0.83c-0.08,0-0.14-0.06-0.14-0.13v-0.27c0-0.08,0.06-0.14,0.14-0.14h1.25
			c0.07,0,0.13,0.07,0.13,0.14v1.65c0,0.04-0.03,0.09-0.06,0.12c0,0-0.74,0.48-1.78,0.48c-1.45,0-2.61-1.15-2.61-2.59
			C43.82,55.65,44.98,54.49,46.42,54.49z"/>
	</g>
</g>
</svg>
