<?xml version="1.0" encoding="utf-8"?>
<!-- Generator: Adobe Illustrator 28.0.0, SVG Export Plug-In . SVG Version: 6.00 Build 0)  -->
<svg version="1.1" id="Ebene_1" xmlns="http://www.w3.org/2000/svg" xmlns:xlink="http://www.w3.org/1999/xlink" x="0px" y="0px"
	 viewBox="0 0 494.8 360.8" style="enable-background:new 0 0 494.8 360.8;" xml:space="preserve">
<style type="text/css">
	.st0{fill:#FFFFFF;}
</style>
<g>
	<path class="st0" d="M210.8,96.8c5.5-0.6,9.5-5.6,8.9-11.1c-0.4-3.5,0.6-6.9,2.8-9.6s5.3-4.4,8.7-4.8c3.5-0.4,6.9,0.6,9.6,2.8
		c2.7,2.2,4.4,5.3,4.8,8.7l1.8,16.7c-0.1-0.6-5.9-1.2-6.5-1.3c-11.1-1-22.1,3.6-29.1,12.3c-5.5,6.9-8.1,15.6-7.1,24.4
		c1,8.7,5.4,16.8,12.3,22.3c14.1,11.3,35.5,8.9,46.7-5.1c5-6.2,7.5-13.9,7.2-21.8c0-0.4-5.3-49.6-5.3-49.6
		c-1-8.8-5.3-16.7-12.3-22.3c-6.9-5.5-15.6-8.1-24.4-7.1c-8.8,1-16.7,5.3-22.3,12.3c-5.5,6.9-8.1,15.6-7.1,24.4
		C200.2,93.4,205.3,97.4,210.8,96.8z M247.9,139.4c-2.1,2.7-5.2,4.4-8.6,4.8c-0.1,0-0.1,0-0.2,0c-7.1,0.8-13.6-4.4-14.4-11.5
		c-0.4-3.5,0.6-6.9,2.8-9.6s5.2-4.4,8.6-4.8c0.1,0,0.1,0,0.2,0c3.5-0.4,6.9,0.6,9.6,2.8c2.6,2,4.2,4.9,4.7,8.1l0.1,1.3
		C250.9,133.7,249.9,136.8,247.9,139.4z M123.5,228.2c5.5-0.8,9.3-6,8.5-11.5c-0.5-3.4,0.3-6.9,2.4-9.7c2.1-2.8,5.1-4.6,8.6-5.1
		s6.9,0.3,9.7,2.4c2.8,2.1,4.6,5.1,5.1,8.5l2.4,16.6c-0.1-0.6-5.9-1-6.6-1c-11.1-0.6-21.9,4.4-28.6,13.4c-5.3,7.1-7.5,15.9-6.1,24.7
		c1.3,8.7,6.1,16.6,13.1,21.8c14.5,10.7,35.8,7.5,46.5-6.9c4.8-6.4,7-14.2,6.4-22.1c0-0.4-7.1-49.3-7.1-49.3
		c-1.3-8.8-6-16.5-13.1-21.8c-7.1-5.3-15.9-7.5-24.7-6.1c-8.8,1.3-16.5,6-21.8,13.1s-7.5,15.9-6.1,24.7
		C112.8,225.3,118,229.1,123.5,228.2z M162.2,269.3c-2,2.8-5,4.6-8.4,5.1c-0.1,0-0.1,0-0.2,0c-7.1,1.1-13.8-3.9-14.8-11
		c-0.5-3.4,0.3-6.9,2.4-9.7c2-2.8,5-4.6,8.4-5.1c0.1,0,0.1,0,0.2,0c3.5-0.5,6.9,0.3,9.7,2.4c2.6,1.9,4.4,4.7,5,7.9l0.2,1.3
		C165,263.6,164.2,266.7,162.2,269.3z M243.1,279.6c-0.6,0-1.1,0-1.7-0.1c-12.9-2.2-24.1-9.3-31.6-20c-7.5-10.7-10.5-23.6-8.3-36.5
		s9.3-24.1,20-31.6s23.6-10.5,36.5-8.3c5.5,0.9,9.2,6.2,8.2,11.6c-0.9,5.5-6.2,9.2-11.6,8.2c-7.6-1.3-15.2,0.4-21.4,4.9
		c-6.3,4.4-10.4,11-11.7,18.6s0.4,15.2,4.9,21.4c4.4,6.3,11,10.4,18.6,11.7c5.5,0.9,9.2,6.2,8.2,11.6
		C252.2,276.1,247.9,279.6,243.1,279.6z M70.2,123.9c-19.9-2.5-34.3-20.4-32.3-40.5C39.9,63,58.1,48,78.5,50c5.5,0.5,9.6,5.5,9.1,11
		s-5.5,9.6-11,9.1C67.3,69.2,58.9,76,58,85.4c-0.9,9.3,5.9,17.7,15.3,18.6c0.3,0,0.7,0.1,1,0.2c19.9,2.5,34.3,20.4,32.3,40.5
		c-1,9.9-5.7,18.8-13.4,25.1c-6.7,5.5-15,8.5-23.5,8.5c-1.2,0-2.5-0.1-3.7-0.2c-5.5-0.5-9.6-5.5-9.1-11s5.5-9.6,11-9.1
		c4.5,0.4,8.9-0.9,12.5-3.8c3.5-2.9,5.7-7,6.1-11.5c0.9-9.3-5.9-17.7-15.3-18.6C70.9,124,70.5,124,70.2,123.9z M389.4,141.8
		c2.1-5.2,8-7.6,13.1-5.6c7.5,3,16-0.6,19-8c3-7.5-0.6-16-8-19c-0.3-0.1-0.6-0.3-0.9-0.4c-17.1-7.5-25.3-27.4-18.2-44.9
		c7.2-17.8,27.5-26.4,45.3-19.2c5.2,2.1,7.6,8,5.6,13.1c-2.1,5.2-8,7.6-13.1,5.6c-7.5-3-16,0.6-19,8c-3,7.5,0.6,16,8,19
		c0.3,0.1,0.6,0.3,0.9,0.4c17.1,7.5,25.3,27.4,18.2,44.9c-5.5,13.5-18.5,21.7-32.3,21.7c-4.3,0-8.8-0.8-13-2.5
		C389.8,152.8,387.4,147,389.4,141.8z M115.6,299.4c-0.1,8.9-3.6,17.2-10,23.4c-6.3,6.1-14.5,9.5-23.2,9.5c-0.1,0-0.3,0-0.4,0
		c-8.9-0.1-17.2-3.6-23.4-10c-6.1-6.3-9.5-14.5-9.5-23.3v-0.1v-0.1c0,0,0,0,0-0.1l0,0c0.1-11.5,10.3-82.7,11.5-90.9
		c0.8-5.5,5.9-9.3,11.4-8.5s9.3,5.9,8.5,11.4c-4.4,30.3-11.3,81.1-11.3,88.2l0,0l0,0c0,3.5,1.3,6.8,3.7,9.3s5.7,3.9,9.2,3.9h0.1
		c3.4,0,6.7-1.3,9.1-3.7c2.5-2.4,3.9-5.7,3.9-9.2c0.1-5.5,4.6-10,10.1-10h0.1C111.2,289.2,115.6,293.8,115.6,299.4z M457,289.3
		c-2.3,16.6-16.6,28.7-32.9,28.7c-1.5,0-3-0.1-4.5-0.3c-8.8-1.2-16.6-5.8-21.9-12.8c-5.4-7.1-7.6-15.8-6.4-24.6l12.3-88.7
		c0.8-5.5,5.9-9.4,11.4-8.6c5.5,0.8,9.4,5.9,8.6,11.4l-4.4,31.5l15.7,2.3c5.5,0.8,9.3,5.9,8.5,11.4c-0.7,5-5,8.7-10,8.7
		c-0.5,0-1,0-1.4-0.1l-15.6-2.2l-5.2,37.2c-0.5,3.4,0.4,6.9,2.5,9.6s5.2,4.6,8.6,5c7.1,1,13.7-4,14.7-11.1c0.8-5.5,5.8-9.4,11.4-8.6
		C453.9,278.7,457.7,283.8,457,289.3z M188.1,130.9c-0.6,8.8-4.7,16.9-11.4,22.7c-6.1,5.3-13.7,8.1-21.7,8.1c-0.8,0-1.6,0-2.4-0.1
		c-8.8-0.6-16.9-4.7-22.7-11.4c-5.8-6.7-8.7-15.3-8-24.1l6.4-89.3c0.4-5.6,5.3-9.7,10.8-9.3c5.6,0.4,9.7,5.2,9.3,10.8L146.1,70
		l15.8,1.2c5.6,0.4,9.7,5.3,9.3,10.8c-0.4,5.3-4.8,9.3-10,9.3c-0.3,0-0.5,0-0.8,0l-15.7-1.2l-2.7,37.5c-0.2,3.5,0.9,6.8,3.2,9.5
		c2.3,2.6,5.5,4.2,8.9,4.5c3.5,0.2,6.8-0.9,9.5-3.2c2.6-2.3,4.2-5.5,4.5-8.9c0.4-5.6,5.2-9.7,10.8-9.3
		C184.3,120.5,188.5,125.3,188.1,130.9z M372.4,294.4c0.4,5.6-3.8,10.4-9.3,10.8s-10.4-3.8-10.8-9.3l-3.5-48.2
		c-0.4-4.9-2.6-9.4-6.3-12.6c-3.7-3.2-8.5-4.8-13.4-4.4c-4.9,0.4-9.4,2.6-12.6,6.3c-3.1,3.6-4.7,8.1-4.4,12.8l0.9,13.1
		c0.8,11.8,1.7,23.5,2.5,35.3c0,0.5,0,0.9,0,1.4c0.2,17.4-13.2,32.3-30.8,33.6c-0.8,0.1-1.6,0.1-2.5,0.1c-8,0-15.6-2.8-21.7-8.1
		c-6.7-5.8-10.8-13.9-11.4-22.7c-0.4-5.6,3.8-10.4,9.3-10.8c5.5-0.4,10.4,3.8,10.8,9.3c0.5,7.2,6.8,12.6,14,12.1
		c3.5-0.3,6.6-1.8,8.9-4.5c2.3-2.6,3.4-6,3.1-9.5c0-0.1,0-0.1,0-0.2c-0.5-6.5-7.9-112-8.5-119.9c-0.4-5.6,3.8-10.4,9.4-10.8
		c5.6-0.4,10.4,3.8,10.8,9.4l2.7,38.7c5.3-3.4,11.4-5.4,17.9-5.9c10.3-0.7,20.2,2.6,28,9.3s12.5,16.1,13.2,26.4L372.4,294.4z
		 M385.2,172.8c-0.5,5.2-4.9,9.4-10,9.1c-16.6-0.8-32.7-15.8-30.9-35.7l4.6-47.8c0.5-4.9-1-9.7-4.1-13.5c-3.1-3.8-7.5-6.1-12.4-6.6
		s-9.7,1-13.5,4.1s-6.1,7.5-6.6,12.4l-4.6,48.1c-0.5,5.5-5.5,9.6-11,9.1s-9.6-5.5-9.1-11l4.6-48.1c1-10.3,5.9-19.5,13.8-26.1
		s18-9.6,28.2-8.6c21.2,2,36.7,20.9,34.7,42.1l-4.5,47.1c0,0.1,0,0.1,0,0.2c-0.7,7.2,4.6,13.5,11.7,14.2
		C381.6,162.3,385.7,167.2,385.2,172.8z"/>
</g>
</svg>
