<?xml version="1.0" encoding="utf-8"?>
<!-- Generator: Adobe Illustrator 28.0.0, SVG Export Plug-In . SVG Version: 6.00 Build 0)  -->
<svg version="1.1" id="Ebene_1" xmlns="http://www.w3.org/2000/svg" xmlns:xlink="http://www.w3.org/1999/xlink" x="0px" y="0px"
	 viewBox="0 0 776.8 375.2" style="enable-background:new 0 0 776.8 375.2;" xml:space="preserve">
<style type="text/css">
	.st0{fill:#FFFFFF;}
</style>
<path class="st0" d="M187.2,116.3v17.4c0,27.5-16,41.1-41.9,41.1s-41.9-13.6-41.9-41.1V91c0-27.5,16-41.1,41.9-41.1
	s41.9,13.6,41.9,41.1v15.8h-34.8V89.5c0-8.4-2.8-11.1-7.1-11.1s-7.1,2.7-7.1,11.1v45.8c0,8.2,2.7,11.1,7.1,11.1s7.1-2.8,7.1-11.1
	v-19H187.2z"/>
<path class="st0" d="M243.7,125h-14.2v46.6h-34.8V53.1h34.8v43.5h14.2V53.1h34.8v118.5h-34.8V125z"/>
<path class="st0" d="M297.2,53.1h55L365,171.6h-32.5l-1.3-15.8h-13l-1.3,15.8h-32.5L297.2,53.1z M329.1,129l-4.4-59.2l-4.4,59.2
	H329.1L329.1,129z"/>
<path class="st0" d="M370.7,53.1h43.1c21.3,0,36.7,10.7,36.7,30.8v4.3c0,12-5.5,20.7-14.5,25.8l16.9,57.7h-36.5l-11.7-58.5v58.5h-34
	L370.7,53.1L370.7,53.1z M404.7,80v27.6h3.6c4.9,0,8.1-3.9,8.1-13.1v-3.2c0-8.4-3.2-11.4-8.1-11.4C408.3,80,404.7,80,404.7,80z"/>
<path class="st0" d="M521,171.6h-62.3V53.1h34.8v90.1H521V171.6z"/>
<path class="st0" d="M527.5,53.1h63.8v28.4h-29.9v15.8h26.7v28.4h-26.7v17.4h29.9v28.4h-63.8V53.1L527.5,53.1z"/>
<path class="st0" d="M634.1,50c19.9,0,35.7,10.3,35.7,31.6V91H639v-9c0-4.6-1.9-6.8-4.9-6.8c-2.7,0-4.6,1.6-4.6,4.6
	c0,7.6,4,9.6,12.8,16.8l12.3,10c10,8.1,16.8,17.7,16.8,33.5c0,23.2-16.6,34.8-37.1,34.8s-37.1-11.2-37.1-31.6v-11.1h31.6v9.9
	c0,4.6,2.2,7.4,5.5,7.4s5.4-2.1,5.4-5.5c0-7.4-4.6-9-13.8-16.4l-11.9-9.6c-10.1-8.2-16.1-17.5-16.1-34.1
	C597.9,59.6,614.1,50,634.1,50L634.1,50z"/>
<path class="st0" d="M201.3,321.6h-54l-12.6-113.7v113.7h-30.1V184.8h53.5l13.1,112.1V184.8h30.1V321.6z"/>
<path class="st0" d="M307.1,245.9v75.7h-25.6V309c-6.8,10.8-17.7,16.2-31.9,16.2c-24.3,0-39.2-15.7-39.2-47.4v-49.3
	c0-31.8,18.4-47.4,48.4-47.4s48.4,15.7,48.4,47.4v8.2H267v-10c0-9.7-3.3-12.8-8.2-12.8c-4.9,0-8.2,3.1-8.2,12.8v52.9
	c0,9.5,3.1,12.8,8.2,12.8c5.1,0,8.2-3.3,8.2-12.8v-4.6h-9.1v-29.2H307.1L307.1,245.9z"/>
<path class="st0" d="M356.2,184.8v95.8c0,8.8,2.7,11.9,7.3,11.9s7.3-3.1,7.3-11.9v-95.8h40.1v94c0,31.2-18.1,46.5-47.5,46.5
	S316,309.9,316,278.7v-94L356.2,184.8L356.2,184.8z"/>
<path class="st0" d="M420.6,184.8h73.7v32.8h-34.5v18.2h30.8v32.9h-30.8v20.1h34.5v32.9h-73.7V184.8L420.6,184.8z"/>
<path class="st0" d="M575.2,321.6h-71.9V184.8h40.2v104h31.8V321.6z"/>
<path class="st0" d="M595.1,184.8h63.5l14.8,136.9h-37.6l-1.5-18.2h-15l-1.5,18.2h-37.6L595.1,184.8L595.1,184.8z M632,272.4
	l-5.1-68.4l-5.1,68.4H632z"/>
</svg>
