<?xml version="1.0" encoding="utf-8"?>
<!-- Generator: Adobe Illustrator 28.0.0, SVG Export Plug-In . SVG Version: 6.00 Build 0)  -->
<svg version="1.1" id="Ebene_1" xmlns="http://www.w3.org/2000/svg" xmlns:xlink="http://www.w3.org/1999/xlink" x="0px" y="0px"
	 viewBox="0 0 541.9 61.4" style="enable-background:new 0 0 541.9 61.4;" xml:space="preserve">
<style type="text/css">
	.st0{fill:#FFFFFF;}
	.st1{fill:none;}
	.st2{fill:none;stroke:#FFFFFF;stroke-miterlimit:10;}
</style>
<g>
	<path class="st0" d="M212.6,21.7c-0.5-4-2.9-5.9-7.7-5.9c-4.1,0-6.7,1.8-6.7,4.6c0,2.4,1.6,3.8,4.9,4.4l7.1,1.2
		c7.6,1.3,11.7,5.4,11.7,11.5c0,7.8-6.3,12.8-16.3,12.8c-10.6,0-16.7-5.1-16.8-14.1h8.4c0.5,5.2,3.1,7.4,8.7,7.4
		c4.3,0,7.4-2.3,7.4-5.4c0-2.5-1.7-4-4.9-4.6l-6.5-1.2c-8.3-1.6-12.1-5.1-12.1-11.5c0-7.3,5.8-11.9,15.3-11.9
		c9.3,0,15.1,4.7,15.3,12.6h-7.8V21.7z M245.8,10c8.7,0,13.6,3.7,13.6,10.1c0,3.5-1.7,6.1-5.5,8.2c4.9,1.8,7,4.9,7,10.1
		c0,7-5.5,11.4-14.2,11.4H228V10H245.8z M244.6,25.8c4.2,0,6.7-1.7,6.7-4.5c0-3.2-2.2-4.7-6.8-4.7h-8.1v9.2H244.6z M244.9,42.9
		c4.9,0,7.4-1.7,7.4-5.3c0-3.7-2.4-5.4-7.8-5.4h-8.1v10.7H244.9z M284.9,10c8.7,0,13.6,3.7,13.6,10.1c0,3.5-1.7,6.1-5.5,8.2
		c4.9,1.8,7,4.9,7,10.1c0,7-5.5,11.4-14.2,11.4h-18.9V10H284.9z M283.7,25.8c4.2,0,6.7-1.7,6.7-4.5c0-3.2-2.2-4.7-6.8-4.7h-8.3v9.2
		H283.7z M284.1,42.9c4.9,0,7.4-1.7,7.4-5.3c0-3.7-2.4-5.4-7.8-5.4h-8.3v10.7H284.1z"/>
	<path class="st0" d="M352.2,35.7c-0.6,9.1-7.3,14.8-17.2,14.8c-11.2,0-18.6-8.1-18.6-20.6c0-12.4,7.6-20.8,18.7-20.8
		c9.6,0,16,5.3,16.7,13.7h-8.3c-1-4.5-3.7-6.7-8.4-6.7c-6.3,0-10.4,5.4-10.4,13.7s4,13.7,10.2,13.7c5.1,0,8-2.5,8.9-7.9h8.4V35.7z
		 M366.3,17.1v9.3h17.6v6.9h-17.6v16.3H358V10h27.7v7.1H366.3z M401.2,17.1v9.3H419v6.9h-17.8v16.3h-8.3V10h27.9v7.1H401.2z"/>
	<path class="st0" d="M448,17.1v9.3h17.8v6.9H448v16.3h-8.3V10h27.9v7.1H448z M483.3,17.1v9.3H501v6.9h-17.7v16.3H475V10h27.8v7.1
		H483.3z M531.3,21.7c-0.5-4-2.8-5.9-7.7-5.9c-4.1,0-6.7,1.8-6.7,4.6c0,2.4,1.6,3.8,4.9,4.4l7.1,1.2c7.6,1.3,11.7,5.4,11.7,11.5
		c0,7.8-6.3,12.8-16.3,12.8c-10.6,0-16.6-5.1-16.8-14.1h8.4c0.5,5.2,3.1,7.4,8.7,7.4c4.3,0,7.4-2.3,7.4-5.4c0-2.5-1.7-4-4.9-4.6
		l-6.5-1.2c-8.3-1.6-12.1-5.1-12.1-11.5c0-7.3,5.8-11.9,15.3-11.9c9.3,0,15.1,4.7,15.4,12.6h-7.9V21.7z"/>
</g>
<rect x="0.5" y="0.5" class="st1" width="541.4" height="60.9"/>
<g>
	<rect x="0.5" y="0.5" class="st2" width="170" height="56.7"/>
	<polygon class="st0" points="104.4,47.7 115.4,47.7 100.6,33.2 118.9,33.2 118.9,47.7 127.6,47.7 127.6,33.2 146,33.2 131.2,47.7 
		142.2,47.7 161,28.9 142.2,10 131.2,10 146,24.5 127.6,24.5 127.6,10 118.9,10 118.9,24.5 100.6,24.5 115.4,10 104.4,10 85.5,28.9 
			"/>
</g>
</svg>
