<?xml version="1.0" encoding="utf-8"?>
<!-- Generator: Adobe Illustrator 28.0.0, SVG Export Plug-In . SVG Version: 6.00 Build 0)  -->
<svg version="1.1" id="Ebene_1" xmlns="http://www.w3.org/2000/svg" xmlns:xlink="http://www.w3.org/1999/xlink" x="0px" y="0px"
	 viewBox="0 0 91 50" style="enable-background:new 0 0 91 50;" xml:space="preserve">
<style type="text/css">
	.st0{fill:#FFFFFF;}
</style>
<path class="st0" d="M46.7,21.6c0-2.6-1-4.7-3.2-6.4s-5.1-2.5-8.6-2.5h-6.3c0.7,1.9,1.2,4.2,1.2,6.9c0,0,0,21.6,0,24.5h4.6
	c0-2.8,0.1-14.4,0.1-14.4c3.4,4.5,5.8,7.5,7.1,9.1c1.3,1.6,3.1,3.3,5.3,5.3h4.3c-4.6-5.2-8.1-9.8-10.3-14
	C44.8,28,46.7,25.2,46.7,21.6z M39.9,26.5c-1.3,1-3,1.9-5.5,2.7v-14c2.2,0.2,3.9,1,5.3,2.1c1.3,1.3,2,2.8,2,4.7
	C41.7,24,41.1,25.4,39.9,26.5z M67,6.6H46.4c0-0.1,0-0.4,0-0.5c0-2.4,1.4-5.6,1.4-5.6s-0.4,0.1-1,0.3s-1,0.6-1,0.6s-1.5,2-2,5.3H24
	v42.9h43V6.6z M65.1,47.6H25.9v-39h17.7c0,0.2,0,0.4,0,0.6c0,3,1.9,5.6,1.9,5.6s0.4-1.3,1.2-2.3c0.7-0.9,1.7-1.7,1.7-1.7
	s-0.9-1-1.4-2.2h18L65.1,47.6L65.1,47.6z"/>
</svg>
