<?xml version="1.0" encoding="UTF-8"?>
<svg id="Ebene_1" xmlns="http://www.w3.org/2000/svg" version="1.1" viewBox="0 0 291.6 161.8">
  <!-- Generator: Adobe Illustrator 29.2.1, SVG Export Plug-In . SVG Version: 2.1.0 Build 116)  -->
  <defs>
    <style>
      .st0 {
        fill: #fff;
      }
    </style>
  </defs>
  <path class="st0" d="M104.4,0v82.2h82.2V0h-82.2ZM169.5,44l-4.9,4.9-19.1,19.1-19.1-19.1-4.9-4.9c-5.3-5.3-5.3-13.8,0-19.1s13.8-5.3,19.1,0l4.9,4.9,4.9-4.9c5.3-5.3,13.8-5.3,19.1,0h0c5.3,5.3,5.3,13.8,0,19.1Z"/>
  <g>
    <polygon class="st0" points="0 111 10.6 111 10.6 128 18.8 128 18.8 111 29.5 111 29.5 104.5 0 104.5 0 111"/>
    <path class="st0" d="M57.9,127.5c2.5-.9,4.4-2.3,5.7-4.2,1.3-1.9,1.9-4.2,1.9-7.1s-.6-5.2-1.9-7.1c-1.3-1.9-3.2-3.3-5.7-4.2-2.5-.9-5.6-1.4-9.3-1.4s-6.8.5-9.3,1.4c-2.5.9-4.4,2.3-5.7,4.2s-1.9,4.2-1.9,7.1.6,5.2,1.9,7.1,3.2,3.3,5.7,4.2c2.5.9,5.6,1.4,9.3,1.4s6.8-.5,9.3-1.4ZM40.8,116.3c0-2,.6-3.6,1.9-4.7,1.3-1.1,3.2-1.6,5.8-1.6s4.6.5,5.9,1.6c1.3,1.1,1.9,2.6,1.9,4.7s-.6,3.6-1.9,4.7c-1.3,1.1-3.3,1.6-5.9,1.6s-4.5-.5-5.8-1.6c-1.3-1.1-1.9-2.6-1.9-4.7Z"/>
    <path class="st0" d="M76.3,127.8c2.2.7,4.9,1,8.2,1s6-.3,8.2-1c2.2-.7,3.9-1.8,5-3.4,1.2-1.6,1.8-3.8,1.8-6.6v-13.3h-8.2v13.1c0,1.8-.6,3-1.7,3.7-1.2.7-2.8,1.1-5,1.1s-3.9-.4-5-1.1c-1.2-.7-1.7-2-1.7-3.7v-13.1h-8.2v13.3c0,2.8.6,5,1.8,6.6,1.2,1.6,2.9,2.8,5,3.4Z"/>
    <path class="st0" d="M112.4,120.8h8.8l4.4,7.2h9.6l-5.7-8.7v-.3c1.6-.4,2.8-1.1,3.7-2.1.9-1,1.3-2.5,1.3-4.6s-.7-4.6-2.2-5.9c-1.5-1.3-3.9-1.9-7.2-1.9h-20.9v23.6h8.2v-7.2ZM112.4,110.7h10.3c.9,0,1.6.2,2,.6.4.4.6.9.6,1.7s-.2,1.4-.6,1.7c-.4.4-1.1.6-2,.6h-10.3v-4.6Z"/>
    <rect class="st0" x="138.6" y="104.5" width="8.2" height="23.6"/>
    <path class="st0" d="M170.6,123c-.9.4-2.3.5-4.3.5s-3.4-.2-4.4-.7c-1-.5-1.6-1.3-1.8-2.6h-9.6c.1,2.3.7,4.1,1.9,5.3,1.2,1.2,2.8,2.1,5,2.6,2.2.5,5.1.7,8.6.7s6.6-.2,8.8-.7c2.2-.4,4-1.3,5.1-2.4,1.2-1.2,1.8-2.9,1.8-5s-.7-4.1-2.2-5.2c-1.4-1.1-3.6-1.8-6.5-2l-9.6-.8c-1.1,0-1.9-.3-2.4-.5-.5-.3-.7-.6-.7-1.2s.4-1.2,1.2-1.6,2.1-.5,3.9-.5,3.1.2,4.1.6c.9.4,1.5,1.1,1.7,2.1h9.5c0-2-.7-3.7-1.9-4.8-1.2-1.2-2.9-2-5-2.4-2.2-.5-4.9-.7-8.1-.7s-5.9.2-8,.7c-2.2.5-3.8,1.2-5,2.4-1.2,1.1-1.8,2.7-1.8,4.6s.3,2.8,1,3.8c.7,1,1.6,1.7,2.9,2.2,1.3.5,2.9.8,4.8,1l9.2.9c1,.1,1.8.3,2.3.6s.8.7.8,1.4-.4,1.4-1.3,1.7Z"/>
    <polygon class="st0" points="193.4 111.6 193.6 111.6 200.5 128 206.8 128 213.6 111.8 213.8 111.8 213.8 128 222.1 128 222.1 104.5 209 104.5 203.8 117.9 203.6 117.9 198.3 104.5 185.6 104.5 185.6 128 193.4 128 193.4 111.6"/>
    <path class="st0" d="M248.5,117.6c0,1.8-.6,3-1.7,3.7-1.2.7-2.8,1.1-5,1.1s-3.9-.4-5-1.1c-1.2-.7-1.7-2-1.7-3.7v-13.1h-8.2v13.3c0,2.8.6,5,1.8,6.6,1.2,1.6,2.9,2.8,5,3.4,2.2.7,4.9,1,8.2,1s6-.3,8.2-1c2.2-.7,3.9-1.8,5-3.4,1.2-1.6,1.8-3.8,1.8-6.6v-13.3h-8.2v13.1Z"/>
    <path class="st0" d="M289.4,115.5c-1.4-1.1-3.6-1.8-6.5-2l-9.6-.8c-1.1,0-1.9-.3-2.4-.5-.5-.3-.7-.6-.7-1.2s.4-1.2,1.2-1.6,2.1-.5,3.9-.5,3.1.2,4.1.6c.9.4,1.5,1.1,1.7,2.1h9.5c0-2-.7-3.7-1.9-4.8-1.2-1.2-2.9-2-5-2.4-2.2-.5-4.9-.7-8.1-.7s-5.9.2-8,.7c-2.2.5-3.8,1.2-5,2.4-1.2,1.1-1.8,2.7-1.8,4.6s.3,2.8,1,3.8c.7,1,1.6,1.7,2.9,2.2,1.3.5,2.9.8,4.8,1l9.2.9c1,.1,1.8.3,2.3.6s.8.7.8,1.4-.4,1.4-1.3,1.7-2.3.5-4.3.5-3.4-.2-4.4-.7c-1-.5-1.6-1.3-1.8-2.6h-9.6c.1,2.3.7,4.1,1.9,5.3,1.2,1.2,2.8,2.1,5,2.6,2.2.5,5.1.7,8.6.7s6.6-.2,8.8-.7c2.2-.4,4-1.3,5.1-2.4,1.2-1.2,1.8-2.9,1.8-5s-.7-4.1-2.2-5.2Z"/>
  </g>
  <g>
    <path class="st0" d="M54.1,137.5l-11.9,23.6h9.1l1.7-3.5h13.2l1.7,3.5h9.1l-11.9-23.6h-11ZM55.6,151.9l3.8-7.9h.2l3.8,7.9h-7.8Z"/>
    <polygon class="st0" points="107.6 137.5 103.8 152.2 103.6 152.2 99.7 137.5 90.8 137.5 86.9 152.2 86.7 152.2 82.9 137.5 73.9 137.5 81.1 161 91.2 161 95.1 146.6 95.3 146.6 99.3 161 109.2 161 116.5 137.5 107.6 137.5"/>
    <path class="st0" d="M125.5,137.5l-11.9,23.6h9.1l1.7-3.5h13.2l1.7,3.5h9.1l-11.9-23.6h-11ZM127,151.9l3.8-7.9h.2l3.8,7.9h-7.8Z"/>
    <path class="st0" d="M175.6,152c1.6-.4,2.8-1.1,3.7-2.1.9-1,1.3-2.5,1.3-4.6s-.7-4.6-2.2-5.9c-1.5-1.3-3.9-1.9-7.2-1.9h-20.9v23.6h8.2v-7.2h8.8l4.4,7.2h9.6l-5.7-8.7v-.3ZM170.9,147.7c-.4.4-1.1.6-2,.6h-10.3v-4.6h10.3c.9,0,1.6.2,2,.6.4.4.6.9.6,1.7s-.2,1.4-.6,1.7Z"/>
    <path class="st0" d="M209.4,138.7c-1.9-.8-4.4-1.2-7.4-1.2h-17.4v23.6h17.4c3,0,5.4-.4,7.4-1.2,1.9-.8,3.4-2,4.4-3.8,1-1.7,1.5-4,1.5-6.8s-.5-5.1-1.5-6.8c-1-1.7-2.5-3-4.4-3.8ZM204.6,153.6c-1.1.9-2.6,1.3-4.7,1.3h-7v-11.4h7c2.1,0,3.7.4,4.7,1.3,1.1.9,1.6,2.3,1.6,4.3s-.5,3.4-1.6,4.3Z"/>
    <path class="st0" d="M247.3,148.5c-1.4-1.1-3.6-1.8-6.5-2l-9.6-.8c-1.1,0-1.9-.3-2.4-.5-.5-.3-.7-.6-.7-1.2s.4-1.2,1.2-1.6,2.1-.5,3.9-.5,3.1.2,4.1.6c.9.4,1.5,1.1,1.7,2.1h9.5c0-2-.7-3.7-1.9-4.8-1.2-1.2-2.9-2-5-2.4-2.2-.5-4.9-.7-8.1-.7s-5.9.2-8,.7c-2.2.5-3.8,1.2-5,2.4-1.2,1.1-1.8,2.7-1.8,4.6s.3,2.8,1,3.8c.7,1,1.6,1.7,2.9,2.2,1.3.5,2.9.8,4.8,1l9.2.9c1,.1,1.8.3,2.3.6s.8.7.8,1.4-.4,1.4-1.3,1.7-2.3.5-4.3.5-3.4-.2-4.4-.7c-1-.5-1.6-1.3-1.8-2.6h-9.6c.1,2.3.7,4.1,1.9,5.3,1.2,1.2,2.8,2.1,5,2.6,2.2.5,5.1.7,8.6.7s6.6-.2,8.8-.7c2.2-.4,4-1.3,5.1-2.4,1.2-1.2,1.8-2.9,1.8-5s-.7-4.1-2.2-5.2Z"/>
  </g>
</svg>