<?xml version="1.0" encoding="utf-8"?>
<!-- Generator: Adobe Illustrator 24.3.0, SVG Export Plug-In . SVG Version: 6.00 Build 0)  -->
<svg version="1.1" id="Layer_1" xmlns="http://www.w3.org/2000/svg" xmlns:xlink="http://www.w3.org/1999/xlink" x="0px" y="0px"
	 viewBox="0 0 954 954" style="enable-background:new 0 0 954 954;" xml:space="preserve">
<style type="text/css">
	.st0{fill:#FEFEFE;}
	.st1{fill:#2EC940;}
</style>
<g>
	<g>
		<path class="st0" d="M954,954c-318,0-636,0-954,0C0,636,0,318,0,0c318,0,636,0,954,0C954,318,954,636,954,954z M372.6,163.6
			c0.3,0.7,0.6,1.4,0.9,2c1.5,0.7,3.2,2.2,4.6,2c10.8-2,21.4-5.2,32.2-6.3c11.8-1.3,24.2-2.9,35.6-0.7c17.4,3.4,35.3,7.3,50.1,18.3
			c8,6,16,12.1,23.3,18.9c8.2,7.6,13.6,17.4,19.1,27c8.6,14.9,15.1,30.7,19.1,47.2c3.9,16,6.4,32.5,8.1,48.9c1.4,14,1.5,28.2,1,42.3
			c-0.4,11-2.3,22-3.9,32.9c-1.6,11.2-2.8,22.4-5.3,33.4c-3.5,15.1-7.5,30.1-12.2,44.8c-5.4,17-11.3,33.9-18,50.5
			c-6.7,16.4-14,32.6-22.5,48.1c-8.9,16.2-19.3,31.7-29.6,47.2c-8.2,12.4-16.9,24.5-26.1,36.2c-7.7,9.8-16.2,19-25,27.9
			c-12.7,12.7-25.1,25.8-39.1,36.8c-16.2,12.7-34.2,23.3-51.3,34.8c-1.3,0.9-2.5,1.8-4.5,3.3c2,1.1,3.1,1.9,4.4,2.5
			c5,2.1,10,4.1,14.9,6.3c5.3,2.4,10.7,3.1,16,0.3c4.8-2.5,9.7-4.9,14.1-8.1c13.2-9.6,26.5-19.1,39.2-29.4
			c11.9-9.6,23.1-20,34.4-30.4c4.3-4,7.8-8.9,11.6-13.4c9.5-11.1,19.5-21.9,28.4-33.6c10.5-13.9,20.4-28.2,29.8-42.8
			c9.8-15.2,19.7-30.5,28.1-46.5c9.4-18,17.7-36.6,25.7-55.3c5.8-13.6,11.3-27.4,15.4-41.5c5.2-17.7,9.1-35.7,13-53.7
			c2.5-11.7,4.4-23.5,6.1-35.3c1.1-7.6,1.4-15.4,2.1-23.1c1-10.4,2.9-20.8,2.8-31.1c-0.1-14-1.7-27.9-2.9-41.9
			c-1.1-13.4-3.6-26.4-7.4-39.4c-4.2-14.2-9.5-27.6-16.8-40.2c-6.6-11.4-13.9-22.6-22.2-32.8c-5.3-6.6-12.4-11.7-19.3-16.8
			c-9.5-7-19.9-12.7-31.3-16c-17.6-5.1-35.4-9-53.9-6.9c-10.4,1.2-20.8,2.2-31.1,4c-5.1,0.9-9.9,3.3-14.9,4.9
			c-7.7,2.4-15.4,4.6-23.5,7.1c-1.2-4.2-4.1-2.2-6.9-0.1c-10.8,8.4-21.9,16.6-32.4,25.4c-12.1,10.2-23.9,20.6-35.4,31.5
			c-6.5,6.1-12.1,13.1-18,19.8c-6,6.9-12.1,13.7-17.8,20.9c-6.5,8.4-12.7,17-18.8,25.7c-9.5,13.6-19.3,27.1-28.2,41.2
			c-7.4,11.9-13.9,24.5-20.3,37c-8,15.6-16.1,31.2-23.1,47.3c-7.3,16.7-14,33.8-19.6,51.2c-6.8,21.1-12.7,42.5-18.1,64
			c-3.3,13.3-4.9,27-7.2,40.5c-1,6.1,1.3,8.6,7.5,8.7c2.8,0,5.7,0.2,8.5,0c7-0.5,12.6-3,13.4-10.6c0.9-8.6,2.9-17.1,4.6-25.6
			c1.9-9.4,3.5-19,6-28.2c3.6-13.5,7.5-26.9,11.8-40.2c4.9-15.1,9.9-30.2,15.6-45c6.8-17.6,14.3-34.9,21.8-52.2
			c4.3-9.8,9-19.5,14.3-28.9c6.5-11.6,13.7-22.8,20.8-34c11.4-17.9,22.3-36.1,34.6-53.3c9.1-12.7,19.7-24.4,30-36.2
			C347.2,190.9,360,177.3,372.6,163.6z M390,781.8c1,0.7,1.9,1.8,3,2.2c5.9,2.3,12,4.2,17.7,6.8c6.4,3,12.3,1.9,18.1-1.1
			c2-1,3.7-2.6,5.6-3.9c7.9-5.1,16.2-9.7,23.6-15.4c14.1-10.8,28.2-21.7,41.3-33.6c13-11.8,25.5-24.3,37.2-37.5
			c11.7-13.2,22.3-27.5,33-41.6c10.1-13.4,19.9-26.9,29.1-40.9c9.7-14.8,18.7-30,27.5-45.3c7.4-12.9,14.8-26,21.1-39.5
			c7.6-16,14.1-32.5,21-48.9c4-9.6,8.3-19.1,11.4-29c5.5-17.7,10.5-35.6,15.2-53.5c2.5-9.3,4.1-18.8,5.8-28.3
			c1.9-9.9,3.7-19.9,5.1-29.9c1.3-9.2,2.1-18.6,3.1-27.8c1.4-13.6,3.2-27.2,3.9-40.9c0.9-18-0.3-36-3.9-53.8
			c-1.3-6.6-1.7-13.4-3.5-19.8c-4.8-16.4-10.1-32.6-15.6-48.7c-3.1-9-8.6-16.8-15.9-22.8c-7.1-5.9-14.9-11.1-22.8-16
			c-8.4-5.2-17.1-9.9-26-14.2c-9.3-4.5-18.7-8.9-28.4-12.4c-5.6-2-12.3-1.1-17.6-3.5c-9.7-4.5-19.8-4.4-29.9-4.5
			c-15.8-0.2-31.3,0.4-47.1,4.4c-14,3.5-27.8,7.2-40.5,13.5c-15,7.5-28.8,17.2-43,26.2c-1,0.6-0.8,3-1.4,5.3
			c8.7-3.8,15.8-7.4,23.2-10.2c19.3-7,38.8-14.1,59.5-15c19.4-0.8,38.7-1.1,57.7,5.6c17,6,32.7,14.2,45.2,26.9
			c9.3,9.4,17.7,20.1,24.9,31.2c14,21.5,20.5,46.1,26,70.8c2.5,11.5,3.5,23.4,4,35.2c0.7,16.4,0.3,32.9,0.1,49.3
			c-0.3,17.9-2.1,35.6-5.7,53.3c-4.6,22.9-9.7,45.6-17.1,67.8c-5.8,17.3-11.4,34.7-17.3,52c-3,8.7-6.1,17.4-9.9,25.8
			c-6.4,14.2-13,28.2-20,42c-5.8,11.4-11.7,22.9-18.5,33.7c-9.3,14.9-19.4,29.3-29.5,43.7c-6.8,9.6-13.6,19.3-21.4,28.1
			c-12,13.5-24.7,26.5-37.4,39.4c-8.5,8.7-17,17.3-26.2,25.2c-11.5,9.9-23.4,19.3-35.5,28.5C410,768.1,400,774.7,390,781.8z
			 M763.4,243.9c-0.9,12.7-1.7,24.1-2.5,35.4c-0.6,8.4-0.7,16.8-2.2,25.1c-3.2,18.5-6.7,37-11,55.3c-4.8,20.4-10,40.8-16.2,60.9
			c-5.9,19.1-12.8,38-19.8,56.7c-9.5,25.5-21,50.1-34,73.9c-9.5,17.5-19.1,35-29.7,51.8c-11.6,18.4-24.1,36.2-36.8,53.9
			c-7.3,10.2-15.5,19.6-23.6,29.2c-7.3,8.7-14.4,17.6-22.4,25.7c-15,15-30.5,29.6-46,44.2c-7.7,7.2-15.3,14.6-23.9,20.6
			c-12.9,9-25,19.2-39.7,25.4c-1.1,0.5-2.5,2.1-2.5,3.2c0,0.9,1.8,2.1,3,2.5c7.7,3.1,15.4,6.2,23.3,9c5.8,2.1,11.7,2.2,17-1.4
			c5.6-3.8,11-7.6,16.4-11.6c11.1-8.4,22.4-16.7,33.2-25.4c11.5-9.3,22.8-18.8,33.7-28.7c7-6.3,13.2-13.5,19.6-20.5
			c10.2-11.2,20.5-22.3,30-34c10.2-12.5,19.9-25.4,29.4-38.4c9.8-13.5,19.2-27.4,28.5-41.3c7.9-11.9,15.6-23.9,22.8-36.1
			c8-13.5,15.4-27.4,22.9-41.3c2.6-4.9,4.8-10,7.1-15.1c6.8-14.6,13.9-29,20.4-43.7c4.6-10.4,8.5-21.1,12.4-31.7
			c6.7-18.2,13.2-36.4,19.5-54.8c2.8-8,4.9-16.2,7.2-24.3c3.6-12.5,6.7-25.1,2.5-38.1c-3.6-11.2-7.2-22.5-11.9-33.2
			c-7.5-17.1-15.9-33.9-24-50.7C765.8,245.7,764.8,245.1,763.4,243.9z M397.7,670.8c0.3,0.3,0.5,0.7,0.8,1c1.6-0.6,3.7-0.8,4.8-2
			c3.7-3.8,7.2-7.8,10.4-12c9.6-12.7,19.6-25.2,28.5-38.5c10.5-15.7,20.4-31.9,29.7-48.4c6.3-11.1,11.3-23,16.5-34.7
			c5.2-11.7,10-23.6,14.6-35.6c2.1-5.4,3.1-11.2,4.7-16.7c3.5-12.3,7.3-24.6,10.3-37c2.2-9.3,3.6-18.9,4.9-28.5
			c2-15,4.2-30,5.1-45.1c1-18.4,0.1-36.7-3.9-54.8c-1.6-7.5-2.5-15.1-4.5-22.5c-4-14.6-9-29-16.6-42.2c-5-8.6-10.3-17-16.6-24.6
			c-8.5-10.3-18.3-19.4-29.9-26.2c-7-4.2-14.1-8.5-21.5-11.7c-5-2.1-10.8-2-16.2-3.3c-6.3-1.5-12.5-4.4-18.8-4.7
			c-10.6-0.5-21.3-0.2-31.8,1.2c-12.4,1.7-19.1,10.6-22.8,22c-0.3,0.9,1.3,3.4,2.3,3.5c6.9,1,13.8,1.2,20.6,2.3
			c9,1.5,18.1,3,26.7,5.7c23,7.1,39.9,22.5,54.3,41.3c14,18.3,22.6,39.1,27.6,61c4.4,19.3,6.3,39.3,7.6,59.1
			c0.8,11.2-1.4,22.7-2.8,34c-2,15.5-4.2,31.1-7.1,46.5c-1.9,10.2-4.6,20.2-7.8,30.1c-5.3,16.2-10.7,32.4-17,48.3
			c-4.2,10.5-9.9,20.3-14.9,30.4c-3.9,7.9-8.6,15.5-11.6,23.8c-2.8,7.6-3.5,15.9-5.5,23.9c-3.8,15.3-7.8,30.6-15.9,44.4
			C400.2,663.8,399.1,667.4,397.7,670.8z M426.1,508.8c0.6,0.1,1.3,0.2,1.9,0.2c1.3-1.9,3.1-3.5,3.7-5.6c2.3-7.4,4.6-14.9,6.3-22.4
			c2.9-13,6-26.1,7.8-39.3c1.8-12.6,2.8-25.3,3.1-38c0.4-19.7-1.2-39.1-5.4-58.5c-3.6-16.8-9.6-32.4-17.2-47.4
			c-8.1-15.9-18.8-30.3-33.3-41.3c-9-6.9-18.7-12.8-29.4-16.6c-4.8-1.7-10-2.7-14.5-5c-8.1-4.2-16.9-5.5-22.2,2.6
			c-7.7,11.8-15.8,23.4-22.9,35.6c-9.6,16.3-18.8,32.9-27.4,49.7c-9.7,19-19.1,38.3-27.6,57.8c-7,15.8-13.4,32-18.6,48.5
			c-7.8,24.7-14.9,49.6-21.4,74.7c-3.9,15.3-6.2,31.1-9.1,46.7c-1.2,6.5,0.6,8.5,6.3,8.4c5.8-0.1,11.6-0.1,17.4,0
			c5.9,0.2,8.9-2.3,9.5-8.1c0.3-2.6,0.5-5.2,1.1-7.7c3.6-15.5,7.1-30.9,11-46.3c4.2-17.1,8.2-34.3,13.3-51.1c3.7-12.3,9-24,13.5-36
			c1.1-3,1.5-6.3,2.5-9.3c3.8-11.4,8.2-22.6,11.6-34.1c2.4-8.2,3.3-16.9,5.2-25.3c2-8.7,4.5-17.3,6.9-25.9c1.6-6,3.4-7.7,8.7-4.6
			c15.5,8.9,30.2,19,42.4,32.3c4.1,4.5,8.6,8.6,12.9,12.8c0.5-0.2,1-0.4,1.5-0.7c-0.3-2.2-0.1-4.7-0.9-6.6
			c-10.1-22.5-22.4-43.1-44.7-55.9c-7.3-4.2-8.6-7.4-5.9-15.6c1.4-4.2,4.2-7.9,5.6-12c1.4-4.3,3.9-4.3,7.2-3.2
			c21.9,7.5,39.6,20.4,52.9,39.7c13.2,19.2,22.5,40.3,26.8,62.8c3.4,17.7,3.1,36.1,4.4,54.2c0.1,1-0.4,2-0.3,3
			c0.5,6.7-0.1,13.7,2,19.9c5.9,17.9,11.3,35.8,13.4,54.6C424.5,500,425.4,504.4,426.1,508.8z M826.1,436.6c-0.5,0-1,0-1.4,0
			c-0.4,0.8-1,1.6-1.3,2.4c-10.8,23.5-21,47.3-32.4,70.6c-11.5,23.3-23.4,46.4-36.4,68.9c-11,19.2-23.1,37.7-35.6,55.9
			c-14.1,20.4-28.8,40.6-44.2,60c-11.3,14.2-23.9,27.5-36.5,40.5c-13.5,13.9-27.5,27.4-41.6,40.6c-9.3,8.8-19,17.2-29.1,25.2
			c-9.6,7.6-19.8,14.4-29.6,21.6c-4.1,3-8.1,6.2-12.4,9.6c1,0.6,1.4,0.9,1.8,1c10,4,20.1,7.9,30.1,12c3.4,1.4,6.5,1.8,9.7-0.5
			c10.4-7.4,21.1-14.2,31.1-22c15.8-12.3,32-24.3,46.4-38.1c18.1-17.2,34.9-35.8,51.7-54.3c11.3-12.4,21.9-25.5,32.5-38.5
			c7.3-8.9,14.6-17.8,21.1-27.3c12.9-18.4,25.4-37,37.7-55.7c8.2-12.5,15.7-25.3,23.3-38.1c6.6-11.2,12.9-22.6,19.2-33.9
			c1.3-2.3,2.8-4.8,2.8-7.2c-0.3-15.5-0.6-30.9-1.5-46.3c-0.6-11-2.1-22-3.4-33C827.5,445.6,826.8,441.1,826.1,436.6z M822.6,633.2
			c-0.6-0.1-1.2-0.2-1.8-0.3C760,720,691.7,800.1,602.6,860.7c1.5,0.9,2.6,1.8,3.9,2.3c10.1,4,20.3,7.9,30.4,11.8
			c7.3,2.8,13.8,1,19.7-3.7c5.9-4.7,11.9-9.2,17.7-14c11.7-9.5,23.6-18.9,35.1-28.8c8.1-6.9,15.8-14.4,23.5-21.8
			c10.1-9.7,20.3-19.3,30-29.4c9.4-9.9,18.5-20.1,27.2-30.6c4.1-5,7.9-10.6,10.4-16.5c3.3-7.7,5.6-16,7.6-24.1
			c5.2-21.1,10.1-42.3,14.8-63.5C823.6,639.5,822.7,636.3,822.6,633.2z M318.8,194.9c-0.3-0.5-0.7-0.9-1-1.4
			c-2.6,1.4-5.5,2.6-7.9,4.3c-11.5,8.6-22.9,17.2-34.2,26.1c-6.8,5.4-14,10.5-19.9,16.8c-13.8,14.8-27.1,30-40.2,45.4
			c-7.4,8.7-14.7,17.7-21.2,27.2c-8.7,12.6-16.9,25.6-24.7,38.7c-6.9,11.6-13.6,23.3-19.4,35.5c-6.3,13.2-11.2,27-17.3,40.3
			c-9.3,20.1-15.1,41.3-21,62.4c-2.3,8.3-3.7,16.9-5.3,25.4c-2.4,12.8-4.5,25.7-6.7,38.5c-0.6,3.4,1.4,5,4.5,5.1
			c5,0.1,10,0.3,15-0.1c3.6-0.2,6.3-2.3,6.5-6.3c0.8-13.2,2.6-26.1,5.7-39.1c5-20.7,9.6-41.5,17.1-61.4
			c5.5-14.5,10.3-29.4,16.4-43.6c7.6-17.8,15.8-35.5,24.6-52.7c6.8-13.1,14.8-25.6,22.8-38.1c7.6-11.9,15.7-23.4,23.9-34.9
			c13.4-18.7,28.2-36.3,44.6-52.5c8.7-8.6,17.1-17.4,25.9-25.9C310.7,201,314.9,198.1,318.8,194.9z M235.6,255.8
			c-0.3-0.8-0.6-1.5-0.8-2.3c-1.6,0.3-3.2,0.4-4.7,1c-13.9,5.7-24.4,16-34.6,26.5c-7.8,7.9-15.1,16.3-22.5,24.6
			c-7.1,7.9-14.5,15.7-21,24.1c-6.2,8-11.8,16.5-17.2,25.1c-8.5,13.6-17,27.1-24.6,41.1c-6.1,11.2-10.7,23.2-16.4,34.6
			c-9.8,19.6-15.9,40.6-21.6,61.5c-4.1,15.1-7,30.5-10,45.9c-1,5.1-0.8,10.5-1.1,15.8c-0.2,3.3,1.2,5.4,4.9,5.4
			c1.6,0,3.3,0.5,4.9,0.7c5.5,0.6,10.4-1.3,11.2-4.6c0.8-3.2,1.4-6.5,2-9.7c2.7-14.6,5.2-29.3,8.2-43.8c3.8-18.7,9.5-36.9,16.6-54.5
			c5.3-13.2,10.7-26.4,16.4-39.5c8.8-20.5,19.1-40.2,32.2-58.4c7.6-10.7,14.2-22.1,22.2-32.5c9.6-12.5,20-24.4,30.6-36.1
			C218.2,272,227.1,264,235.6,255.8z M409.6,129.1c-5.6,2.9-11.5,5.5-14.4,11.7C400.6,137.7,407.3,136.3,409.6,129.1z"/>
		<path class="st1" d="M372.6,163.6c-12.6,13.7-25.4,27.3-37.7,41.3c-10.4,11.8-21,23.4-30,36.2c-12.3,17.3-23.3,35.4-34.6,53.3
			c-7.1,11.2-14.3,22.5-20.8,34c-5.3,9.3-9.9,19-14.3,28.9c-7.6,17.3-15,34.6-21.8,52.2c-5.7,14.8-10.7,29.9-15.6,45
			c-4.3,13.3-8.3,26.7-11.8,40.2c-2.5,9.3-4.1,18.8-6,28.2c-1.7,8.5-3.7,17-4.6,25.6c-0.8,7.7-6.4,10.1-13.4,10.6
			c-2.8,0.2-5.7,0.1-8.5,0c-6.2-0.1-8.5-2.7-7.5-8.7c2.3-13.5,3.8-27.2,7.2-40.5c5.4-21.5,11.3-42.9,18.1-64
			c5.6-17.4,12.3-34.4,19.6-51.2c7-16.1,15.1-31.7,23.1-47.3c6.4-12.5,12.8-25.1,20.3-37c8.8-14.1,18.6-27.6,28.2-41.2
			c6.1-8.7,12.3-17.3,18.8-25.7c5.6-7.2,11.7-14,17.8-20.9c5.9-6.7,11.5-13.7,18-19.8c11.5-10.8,23.3-21.3,35.4-31.5
			c10.5-8.8,21.5-17,32.4-25.4c2.7-2.1,5.7-4.1,6.9,0.1c8.1-2.4,15.8-4.7,23.5-7.1c5-1.6,9.8-4,14.9-4.9c10.3-1.8,20.7-2.9,31.1-4
			c18.5-2.1,36.3,1.8,53.9,6.9c11.4,3.3,21.8,9.1,31.3,16c6.9,5,14.1,10.2,19.3,16.8c8.2,10.3,15.6,21.4,22.2,32.8
			c7.3,12.6,12.7,26,16.8,40.2c3.9,13.1,6.3,26,7.4,39.4c1.1,14,2.7,27.9,2.9,41.9c0.1,10.4-1.8,20.8-2.8,31.1
			c-0.7,7.7-1,15.4-2.1,23.1c-1.7,11.8-3.5,23.7-6.1,35.3c-3.9,18-7.8,36-13,53.7c-4.1,14.1-9.6,28-15.4,41.5
			c-8,18.7-16.2,37.3-25.7,55.3c-8.4,16-18.2,31.3-28.1,46.5c-9.5,14.6-19.3,29-29.8,42.8c-8.8,11.7-18.9,22.4-28.4,33.6
			c-3.8,4.5-7.3,9.4-11.6,13.4c-11.2,10.4-22.5,20.8-34.4,30.4c-12.7,10.3-26,19.8-39.2,29.4c-4.4,3.1-9.3,5.5-14.1,8.1
			c-5.3,2.8-10.7,2.1-16-0.3c-4.9-2.2-10-4.2-14.9-6.3c-1.3-0.5-2.4-1.4-4.4-2.5c2-1.4,3.2-2.4,4.5-3.3
			c17.2-11.5,35.1-22.1,51.3-34.8c14.1-11,26.5-24.1,39.1-36.8c8.8-8.8,17.3-18.1,25-27.9c9.2-11.6,17.9-23.8,26.1-36.2
			c10.3-15.4,20.7-30.9,29.6-47.2c8.5-15.5,15.8-31.7,22.5-48.1c6.8-16.5,12.6-33.5,18-50.5c4.7-14.7,8.7-29.7,12.2-44.8
			c2.5-11,3.8-22.2,5.3-33.4c1.5-10.9,3.5-21.9,3.9-32.9c0.5-14.1,0.5-28.3-1-42.3c-1.7-16.4-4.2-32.9-8.1-48.9
			c-4-16.5-10.5-32.3-19.1-47.2c-5.6-9.7-11-19.4-19.1-27c-7.3-6.8-15.3-13-23.3-18.9c-14.8-11-32.7-14.9-50.1-18.3
			c-11.4-2.3-23.8-0.6-35.6,0.7c-10.8,1.2-21.4,4.3-32.2,6.3c-1.4,0.3-3.1-1.3-4.6-2C373.2,164.9,372.9,164.2,372.6,163.6z"/>
		<path class="st1" d="M390,781.8c10-7.1,20-13.7,29.5-20.9c12.1-9.2,24-18.6,35.5-28.5c9.1-7.9,17.7-16.5,26.2-25.2
			c12.7-12.9,25.4-25.9,37.4-39.4c7.8-8.8,14.6-18.5,21.4-28.1c10.1-14.4,20.1-28.8,29.5-43.7c6.8-10.8,12.7-22.3,18.5-33.7
			c7-13.9,13.7-27.9,20-42c3.8-8.4,6.9-17.1,9.9-25.8c5.9-17.3,11.5-34.6,17.3-52c7.4-22.2,12.5-44.9,17.1-67.8
			c3.6-17.7,5.4-35.4,5.7-53.3c0.2-16.4,0.6-32.9-0.1-49.3c-0.5-11.8-1.5-23.7-4-35.2c-5.5-24.7-12-49.3-26-70.8
			c-7.3-11.1-15.6-21.8-24.9-31.2c-12.6-12.7-28.2-20.9-45.2-26.9c-18.9-6.7-38.3-6.4-57.7-5.6c-20.7,0.9-40.2,7.9-59.5,15
			c-7.4,2.7-14.5,6.3-23.2,10.2c0.5-2.3,0.4-4.7,1.4-5.3c14.2-9,28.1-18.7,43-26.2c12.6-6.3,26.5-10,40.5-13.5
			c15.8-4,31.3-4.5,47.1-4.4c10.1,0.1,20.2,0,29.9,4.5c5.3,2.4,12,1.5,17.6,3.5c9.7,3.5,19.1,7.8,28.4,12.4
			c8.9,4.3,17.6,9.1,26,14.2c7.9,4.9,15.6,10.1,22.8,16c7.3,6,12.8,13.8,15.9,22.8c5.5,16.1,10.8,32.4,15.6,48.7
			c1.9,6.4,2.2,13.2,3.5,19.8c3.6,17.8,4.8,35.8,3.9,53.8c-0.7,13.7-2.5,27.3-3.9,40.9c-0.9,9.3-1.7,18.6-3.1,27.8
			c-1.4,10-3.3,20-5.1,29.9c-1.8,9.5-3.4,19-5.8,28.3c-4.7,17.9-9.7,35.8-15.2,53.5c-3.1,9.9-7.4,19.4-11.4,29
			c-6.8,16.4-13.4,32.8-21,48.9c-6.4,13.5-13.7,26.5-21.1,39.5c-8.8,15.3-17.8,30.6-27.5,45.3c-9.2,14-19.1,27.5-29.1,40.9
			c-10.6,14.2-21.2,28.4-33,41.6c-11.6,13.2-24.1,25.7-37.2,37.5c-13.2,11.9-27.2,22.8-41.3,33.6c-7.4,5.7-15.7,10.3-23.6,15.4
			c-1.9,1.2-3.6,2.9-5.6,3.9c-5.8,3-11.7,4-18.1,1.1c-5.7-2.7-11.8-4.5-17.7-6.8C391.9,783.6,391,782.5,390,781.8z"/>
		<path class="st1" d="M763.4,243.9c1.4,1.3,2.4,1.8,2.8,2.6c8.1,16.9,16.5,33.6,24,50.7c4.7,10.7,8.3,22,11.9,33.2
			c4.2,12.9,1.1,25.6-2.5,38.1c-2.3,8.1-4.5,16.3-7.2,24.3c-6.3,18.3-12.9,36.6-19.5,54.8c-3.9,10.7-7.9,21.3-12.4,31.7
			c-6.5,14.7-13.5,29.2-20.4,43.7c-2.4,5-4.5,10.2-7.1,15.1c-7.5,13.8-14.9,27.7-22.9,41.3c-7.2,12.3-14.9,24.3-22.8,36.1
			c-9.3,13.9-18.7,27.7-28.5,41.3c-9.5,13.1-19.2,26-29.4,38.4c-9.6,11.7-19.9,22.8-30,34c-6.3,7-12.6,14.2-19.6,20.5
			c-10.9,9.9-22.2,19.5-33.7,28.7c-10.8,8.8-22.1,17-33.2,25.4c-5.4,4-10.8,7.9-16.4,11.6c-5.3,3.6-11.2,3.5-17,1.4
			c-7.8-2.8-15.5-5.9-23.3-9c-1.2-0.5-3-1.7-3-2.5c0-1.1,1.3-2.8,2.5-3.2c14.7-6.2,26.8-16.4,39.7-25.4c8.6-6,16.3-13.4,23.9-20.6
			c15.5-14.5,31-29.1,46-44.2c8-8,15.1-16.9,22.4-25.7c8-9.6,16.3-19.1,23.6-29.2c12.7-17.7,25.2-35.5,36.8-53.9
			c10.6-16.8,20.2-34.3,29.7-51.8c13-23.9,24.5-48.5,34-73.9c7-18.8,14-37.6,19.8-56.7c6.1-20.1,11.4-40.4,16.2-60.9
			c4.3-18.3,7.7-36.8,11-55.3c1.4-8.2,1.5-16.7,2.2-25.1C761.8,267.9,762.5,256.6,763.4,243.9z"/>
		<path class="st1" d="M397.7,670.8c1.4-3.4,2.5-7,4.3-10.1c8-13.9,12.1-29.1,15.9-44.4c2-7.9,2.7-16.2,5.5-23.9
			c3-8.2,7.7-15.9,11.6-23.8c5-10.1,10.8-20,14.9-30.4c6.3-15.9,11.8-32.1,17-48.3c3.2-9.8,5.9-19.9,7.8-30.1
			c2.9-15.4,5.1-30.9,7.1-46.5c1.5-11.3,3.6-22.8,2.8-34c-1.4-19.8-3.3-39.8-7.6-59.1c-5-21.9-13.6-42.7-27.6-61
			c-14.4-18.8-31.3-34.2-54.3-41.3c-8.7-2.7-17.8-4.2-26.7-5.7c-6.8-1.1-13.8-1.3-20.6-2.3c-1-0.1-2.6-2.6-2.3-3.5
			c3.6-11.4,10.3-20.3,22.8-22c10.5-1.4,21.2-1.7,31.8-1.2c6.3,0.3,12.5,3.2,18.8,4.7c5.4,1.2,11.2,1.2,16.2,3.3
			c7.5,3.2,14.5,7.5,21.5,11.7c11.6,6.8,21.4,15.9,29.9,26.2c6.3,7.6,11.6,16.1,16.6,24.6c7.6,13.2,12.5,27.6,16.6,42.2
			c2,7.4,2.9,15,4.5,22.5c4,18.1,4.9,36.5,3.9,54.8c-0.8,15.1-3.1,30.1-5.1,45.1c-1.3,9.5-2.6,19.1-4.9,28.5
			c-3,12.5-6.8,24.7-10.3,37c-1.6,5.6-2.6,11.4-4.7,16.7c-4.6,12-9.5,23.8-14.6,35.6c-5.2,11.7-10.2,23.6-16.5,34.7
			c-9.3,16.5-19.2,32.7-29.7,48.4c-8.9,13.3-18.9,25.8-28.5,38.5c-3.2,4.2-6.7,8.2-10.4,12c-1.1,1.2-3.2,1.4-4.8,2
			C398.2,671.4,397.9,671.1,397.7,670.8z"/>
		<path class="st1" d="M426.1,508.8c-0.7-4.4-1.6-8.8-2.1-13.3c-2.1-18.8-7.5-36.7-13.4-54.6c-2-6.2-1.4-13.2-2-19.9
			c-0.1-1,0.4-2,0.3-3c-1.3-18.1-0.9-36.5-4.4-54.2c-4.4-22.5-13.6-43.6-26.8-62.8c-13.3-19.2-31-32.2-52.9-39.7
			c-3.3-1.1-5.8-1.1-7.2,3.2c-1.4,4.2-4.2,7.9-5.6,12c-2.7,8.2-1.4,11.4,5.9,15.6c22.3,12.8,34.6,33.4,44.7,55.9
			c0.9,2,0.6,4.4,0.9,6.6c-0.5,0.2-1,0.4-1.5,0.7c-4.3-4.3-8.8-8.4-12.9-12.8c-12.2-13.3-26.8-23.4-42.4-32.3
			c-5.3-3.1-7.1-1.4-8.7,4.6c-2.4,8.6-4.8,17.2-6.9,25.9c-2,8.4-2.8,17.1-5.2,25.3c-3.4,11.5-7.7,22.7-11.6,34.1
			c-1,3.1-1.4,6.3-2.5,9.3c-4.4,12-9.8,23.8-13.5,36c-5.1,16.9-9.1,34-13.3,51.1c-3.8,15.4-7.4,30.9-11,46.3
			c-0.6,2.5-0.8,5.2-1.1,7.7c-0.6,5.8-3.6,8.3-9.5,8.1c-5.8-0.2-11.6-0.2-17.4,0c-5.7,0.1-7.5-1.9-6.3-8.4
			c2.8-15.6,5.1-31.4,9.1-46.7c6.5-25.1,13.6-50,21.4-74.7c5.2-16.5,11.6-32.7,18.6-48.5c8.6-19.6,17.9-38.8,27.6-57.8
			c8.6-16.8,17.8-33.4,27.4-49.7c7.1-12.2,15.2-23.8,22.9-35.6c5.3-8.1,14-6.8,22.2-2.6c4.5,2.3,9.7,3.3,14.5,5
			c10.7,3.9,20.4,9.7,29.4,16.6c14.5,11,25.2,25.3,33.3,41.3c7.6,15,13.6,30.6,17.2,47.4c4.2,19.4,5.8,38.8,5.4,58.5
			c-0.3,12.7-1.3,25.4-3.1,38c-1.9,13.2-4.9,26.3-7.8,39.3c-1.7,7.6-4,15-6.3,22.4c-0.6,2-2.4,3.7-3.7,5.6
			C427.4,509,426.7,508.9,426.1,508.8z"/>
		<path class="st1" d="M826.1,436.6c0.7,4.5,1.4,9,1.9,13.6c1.2,11,2.7,22,3.4,33c0.9,15.4,1.3,30.9,1.5,46.3c0,2.4-1.6,5-2.8,7.2
			c-6.3,11.4-12.6,22.7-19.2,33.9c-7.6,12.8-15.2,25.7-23.3,38.1c-12.3,18.8-24.9,37.4-37.7,55.7c-6.6,9.4-13.8,18.4-21.1,27.3
			c-10.6,13-21.2,26.1-32.5,38.5c-16.8,18.5-33.6,37.1-51.7,54.3c-14.5,13.8-30.6,25.8-46.4,38.1c-10,7.8-20.7,14.7-31.1,22
			c-3.2,2.3-6.3,1.9-9.7,0.5c-10-4.1-20.1-8-30.1-12c-0.4-0.2-0.8-0.5-1.8-1c4.3-3.4,8.3-6.6,12.4-9.6c9.9-7.2,20.1-14,29.6-21.6
			c10-8,19.7-16.4,29.1-25.2c14.1-13.3,28.2-26.7,41.6-40.6c12.6-13.1,25.2-26.3,36.5-40.5c15.4-19.5,30.1-39.6,44.2-60
			c12.6-18.2,24.7-36.8,35.6-55.9c12.9-22.5,24.9-45.6,36.4-68.9c11.4-23.2,21.7-47,32.4-70.6c0.4-0.8,0.9-1.6,1.3-2.4
			C825.1,436.6,825.6,436.6,826.1,436.6z"/>
		<path class="st1" d="M822.6,633.2c0.2,3.1,1,6.3,0.3,9.1c-4.7,21.2-9.6,42.4-14.8,63.5c-2,8.2-4.3,16.4-7.6,24.1
			c-2.5,5.9-6.3,11.5-10.4,16.5c-8.7,10.5-17.8,20.8-27.2,30.6c-9.7,10.1-19.9,19.7-30,29.4c-7.7,7.4-15.4,14.9-23.5,21.8
			c-11.5,9.8-23.3,19.2-35.1,28.8c-5.8,4.7-11.8,9.3-17.7,14c-5.9,4.7-12.4,6.5-19.7,3.7c-10.1-3.9-20.3-7.9-30.4-11.8
			c-1.3-0.5-2.5-1.5-3.9-2.3C691.7,800.1,760,720,820.8,632.9C821.4,633,822,633.1,822.6,633.2z"/>
		<path class="st1" d="M318.8,194.9c-3.9,3.2-8.1,6.2-11.7,9.7c-8.8,8.5-17.2,17.3-25.9,25.9c-16.4,16.2-31.2,33.8-44.6,52.5
			c-8.2,11.5-16.3,23-23.9,34.9c-8,12.4-16,25-22.8,38.1c-8.9,17.2-17,34.9-24.6,52.7c-6.1,14.3-10.9,29.1-16.4,43.6
			c-7.6,20-12.1,40.7-17.1,61.4c-3.2,12.9-4.9,25.9-5.7,39.1c-0.2,3.9-2.9,6-6.5,6.3c-5,0.3-10,0.2-15,0.1c-3.1-0.1-5.1-1.6-4.5-5.1
			c2.2-12.9,4.3-25.7,6.7-38.5c1.6-8.5,3-17,5.3-25.4c5.9-21.2,11.7-42.4,21-62.4c6.1-13.3,11-27.1,17.3-40.3
			c5.8-12.1,12.5-23.9,19.4-35.5c7.8-13.1,16-26.1,24.7-38.7c6.5-9.4,13.7-18.4,21.2-27.2c13.1-15.4,26.4-30.6,40.2-45.4
			c5.9-6.3,13.1-11.4,19.9-16.8c11.3-8.8,22.7-17.5,34.2-26.1c2.4-1.8,5.3-2.9,7.9-4.3C318.1,193.9,318.4,194.4,318.8,194.9z"/>
		<path class="st1" d="M235.6,255.8c-8.5,8.3-17.5,16.2-25.5,25c-10.6,11.6-21,23.6-30.6,36.1c-8,10.4-14.6,21.8-22.2,32.5
			c-13.1,18.2-23.3,37.9-32.2,58.4c-5.6,13.1-11,26.3-16.4,39.5c-7.1,17.7-12.8,35.9-16.6,54.5c-3,14.6-5.5,29.2-8.2,43.8
			c-0.6,3.2-1.2,6.5-2,9.7c-0.8,3.3-5.7,5.2-11.2,4.6c-1.6-0.2-3.3-0.7-4.9-0.7c-3.7,0-5.1-2-4.9-5.4c0.3-5.3,0.1-10.6,1.1-15.8
			c3-15.4,5.9-30.8,10-45.9c5.7-21,11.8-41.9,21.6-61.5c5.7-11.4,10.3-23.4,16.4-34.6c7.7-14,16.2-27.6,24.6-41.1
			c5.4-8.6,11-17.1,17.2-25.1c6.5-8.4,13.9-16.2,21-24.1c7.4-8.3,14.8-16.6,22.5-24.6c10.2-10.5,20.7-20.8,34.6-26.5
			c1.4-0.6,3.1-0.7,4.7-1C235.1,254.2,235.4,255,235.6,255.8z"/>
		<path class="st1" d="M409.6,129.1c-2.3,7.2-8.9,8.7-14.4,11.7C398.1,134.5,404,132,409.6,129.1z"/>
	</g>
</g>
</svg>
