<svg id="Layer_1" data-name="Layer 1" xmlns="http://www.w3.org/2000/svg" viewBox="0 0 514 514"><defs><style>.cls-1{fill:#fff;}</style></defs><path class="cls-1" d="M41,163.89H555v514H41Zm176.69,409a11.79,11.79,0,0,0,1.5,1c3.49,1.43,7,2.87,10.5,4.23,3.33,1.29,6.5.52,9.36-1.28,5.17-3.26,10.44-6.41,15.29-10.12,8.11-6.21,16.26-12.43,23.74-19.37a214.75,214.75,0,0,0,18.57-20.14c6.75-8.08,13.15-16.47,19.36-25a194.68,194.68,0,0,0,11-17.16c5.55-9.56,11.11-19.15,16.06-29A208.59,208.59,0,0,0,353,432.62c3.78-10.6,7.13-21.36,10.31-32.16a150.63,150.63,0,0,0,3.32-16q1.49-8.22,2.59-16.5c.52-3.93.72-7.9,1.07-11.86.56-6.38,1.6-12.76,1.58-19.15,0-7-.93-14-1.61-21a108.7,108.7,0,0,0-1.85-13.6,113.86,113.86,0,0,0-12.67-32.6c-5.47-9.32-12.3-17.57-21.17-23.81-9.49-6.67-20.2-10.22-31.74-11.56a88,88,0,0,0-22.93.69c-9.61,1.41-18.74,4.57-27.7,8.26-1-2.2-1.83-2.46-3.72-1.06-3.13,2.31-6.36,4.51-9.34,7-6.35,5.31-12.71,10.61-18.78,16.23a213.45,213.45,0,0,0-16.95,16.95C196,291,189,299.86,182.27,308.91c-5.1,6.89-9.65,14.2-14.22,21.47-4,6.45-8,13-11.58,19.68-3.74,7-7.2,14.18-10.39,21.45-3.82,8.72-7.45,17.54-10.75,26.47-2.51,6.82-4.63,13.82-6.47,20.86-2.57,9.76-4.78,19.62-7,29.46-1,4.27-1.58,8.61-2.41,12.9a3.23,3.23,0,0,0,3.19,4,39.68,39.68,0,0,0,6.72,0c3.52-.35,5.16-1.93,5.75-5.44.63-3.72.82-7.53,1.65-11.2q2.76-12.09,6-24C145,416.26,147,408,150,400c4.68-12.63,9.87-25.08,15.18-37.47,3.17-7.38,6.75-14.6,10.55-21.68s7.91-13.84,12.12-20.6c4.48-7.22,8.92-14.5,13.95-21.33,6.09-8.28,12.51-16.35,19.27-24.08s14-14.78,21-22.13c.1-.1.32-.08.48-.11l.57,2c6.31-1.23,12.38-3,18.55-3.45,7.31-.59,14.89-1.15,22,.15A66,66,0,0,1,310,261.91a70.34,70.34,0,0,1,18.78,19.56,103,103,0,0,1,12.08,27.6c1.26,4.36,2,8.89,3,13.34a99.19,99.19,0,0,1,2.47,21.85c0,10.67.2,21.34-2.12,31.89-1.75,8-2.73,16.1-4.44,24.07-1.43,6.69-3.14,13.35-5.22,19.86-2.7,8.45-5.77,16.78-8.89,25.08a147.84,147.84,0,0,1-6.32,14.76c-3.32,6.59-6.88,13.08-10.67,19.41-4.81,8-9.62,16.12-15.05,23.73a248.41,248.41,0,0,1-23.88,29.33,226.86,226.86,0,0,1-25.83,23.25,169.85,169.85,0,0,1-23.16,15A27.82,27.82,0,0,0,217.69,572.84Zm32.7,12.61c4.41,1.73,8.17,3.14,11.88,4.7,3.54,1.49,6.72,1.52,10-.95,3-2.28,6.5-4,9.63-6.11,4.68-3.21,9.37-6.43,13.81-10,4.95-3.93,9.81-8,14.36-12.4q10.31-10,20.08-20.47c3.63-3.89,6.79-8.23,10.12-12.4,4.09-5.14,8.28-10.23,12.17-15.52,3.41-4.63,6.56-9.46,9.68-14.3,5.15-8,10.39-15.88,15.19-24.05,3.84-6.54,7.21-13.36,10.55-20.17,3.73-7.61,7.39-15.25,10.69-23.05,2.91-6.86,5.58-13.87,7.8-21,3.33-10.63,6.31-21.38,9.15-32.15,1.27-4.83,1.85-9.84,2.73-14.77,1.07-6.05,2.23-12.1,3.16-18.17.55-3.65.71-7.36,1.09-11,.72-6.88,1.88-13.75,2.12-20.65.33-9.51.06-19-2-28.45-1.49-6.84-1.81-13.9-4.34-20.58-2.37-6.3-4.14-12.83-6.37-19.19a27.13,27.13,0,0,0-9.11-12.16,136.94,136.94,0,0,0-27.21-16.81,100.76,100.76,0,0,0-34.77-9.25,98.23,98.23,0,0,0-37.1,4,110.48,110.48,0,0,0-27.31,12.61c-3.43,2.21-6.78,4.53-10.09,6.91-.54.39-.65,1.37-1,2.08a21.93,21.93,0,0,0,2.42.13,4.56,4.56,0,0,0,1.21-.53c5.69-2.4,11.26-5.19,17.12-7.08,7.16-2.31,14.3-5,22-5s15.71-.62,23.43.24c7.21.8,14,3.63,20.48,7.26a70,70,0,0,1,20.28,17.35,92.85,92.85,0,0,1,17.2,33.44,140.13,140.13,0,0,1,4.05,19.57,221.28,221.28,0,0,1,2.09,24.65,232.86,232.86,0,0,1-1,24.05c-.55,6.73-1.46,13.45-2.67,20.08-1.33,7.27-3,14.48-4.85,21.63-2.15,8.42-4.24,16.88-7,25.09-3.34,9.82-7.36,19.42-11.17,29.07a149.16,149.16,0,0,1-6,14.06c-4.83,9.33-9.66,18.69-15.13,27.65-6.1,10-12.76,19.59-19.48,29.16a179.47,179.47,0,0,1-11.58,14.27c-4.78,5.51-9.56,11.06-14.77,16.15-6.48,6.34-13.15,12.55-20.2,18.23-9.27,7.46-19,14.34-28.53,21.48C252.37,583.81,251.6,584.47,250.39,585.45Zm-14-229.53c0-1.42.27-2.38,0-3.1-1.58-3.7-3-7.55-5-10.95-5.13-8.33-10.75-16.3-20-20.81-3.16-1.55-4.12-3.62-2.95-6.92.92-2.57,2.61-4.86,3.46-7.45.73-2.2,2.07-2.3,3.7-1.76a55.16,55.16,0,0,1,19.6,11.42c9.85,8.78,16.16,20,20.39,32.28,3.2,9.3,5.28,18.87,5.09,28.81-.11,5.43,0,10.86,0,16.28a13.19,13.19,0,0,0,.35,3.44c1.26,4.47,2.69,8.89,3.93,13.37,2.31,8.32,4.53,16.67,4.91,25.37,0,.76.62,1.5,1.2,2.83,1-1.44,1.85-2.29,2.16-3.31,1.26-4.11,2.54-8.23,3.44-12.42,1.26-5.93,2.4-11.9,3.23-17.9,1.09-7.9,2.26-15.82,2.61-23.77a100.05,100.05,0,0,0-2.6-29.65c-1.34-5.18-2.61-10.4-4.35-15.45a76.17,76.17,0,0,0-17.15-28.67,58.89,58.89,0,0,0-26.42-16c-1.41-.4-2.77-1-4.19-1.4-5.84-1.51-8.18-1.61-10.81,2.51-4.8,7.52-9.87,14.89-14.3,22.63-6.58,11.49-13,23.09-18.91,35a313.35,313.35,0,0,0-13,29.79q-7.12,19-12.9,38.56a320.12,320.12,0,0,0-9.23,42.5c-.48,3.14.56,4.24,3.61,4.08a76,76,0,0,1,8.8,0c3.08.19,4.68-1,5.26-3.92,1.5-7.67,2.89-15.38,4.72-23,2.08-8.62,4.49-17.17,7-25.69,2.14-7.42,4.38-14.81,6.86-22.11,3.16-9.32,6.88-18.45,9.84-27.83,2-6.24,3-12.78,4.48-19.19.72-3.17,1.41-6.35,2.14-9.51.69-3,2-3.84,4.62-2.21a178.27,178.27,0,0,1,16.25,11C227,346.56,231.26,351.09,236.42,355.92Zm216.24-59.86-.66.48c-.45,5.76-.85,11.53-1.36,17.29-.48,5.35-.78,10.74-1.66,16-1.59,9.63-3.43,19.23-5.39,28.8-1.22,5.92-2.73,11.79-4.36,17.61-2.37,8.46-4.66,17-7.55,25.26-3.23,9.28-7,18.37-10.69,27.5-2,5-4,10-6.43,14.77-4.84,9.51-9.9,18.92-15,28.28-3.47,6.35-6.94,12.72-10.91,18.76-6.13,9.3-12.4,18.54-19.14,27.4-7.48,9.83-15.16,19.58-23.5,28.68-7.65,8.35-16.22,15.88-24.53,23.62a199.55,199.55,0,0,1-34.91,25.58,9.38,9.38,0,0,0-1.6,1.61,7.4,7.4,0,0,0,1.72,1.38c4.16,1.68,8.33,3.37,12.56,4.87,3,1.08,6.13,1.15,8.91-.79,6.89-4.82,13.94-9.44,20.55-14.62,7.89-6.2,15.81-12.47,22.94-19.49,9.14-9,17.72-18.56,26.13-28.23,6.07-7,11.66-14.41,17.16-21.86,5-6.84,9.79-13.9,14.47-21,5.22-7.91,10.41-15.85,15.23-24,4.32-7.31,8.42-14.77,12.07-22.43Q446,432,454.6,412c2.64-6.12,4.5-12.58,6.7-18.9,2.27-6.48,4.58-12.94,6.74-19.46,1.19-3.59,2.09-7.27,3.15-10.89,2-6.74,3.65-13.57,1.39-20.51-2.1-6.45-4.38-12.87-7-19.12-3.35-7.94-7.11-15.71-10.75-23.54A34.74,34.74,0,0,0,452.66,296.06ZM255.44,525.26l.32.62a8.71,8.71,0,0,0,2.44-1.36c2.79-3.08,5.68-6.11,8.14-9.44C273.1,506,280,496.92,286.2,487.45a178.24,178.24,0,0,0,12.28-22.19c4.76-10.19,9.26-20.55,13-31.14a283.56,283.56,0,0,0,8.17-29.29c1.56-6.57,2.27-13.36,3.2-20.06.86-6.15,2-12.31,2.17-18.49.3-9.68.47-19.41-2.09-29-1.67-6.25-2.76-12.66-4.32-18.94a69.14,69.14,0,0,0-13.22-27.13,106,106,0,0,0-14.71-15.31c-7.94-6.52-17.54-10.12-27.64-11.76a97.64,97.64,0,0,0-18.64-1A28.58,28.58,0,0,0,233.75,266c-4.53,2.06-5.66,6.76-7.33,10.81,4.44.58,8.45,1.19,12.48,1.62a61.58,61.58,0,0,1,19.32,5,59.85,59.85,0,0,1,17.27,11.8c11.48,11.33,18,25.49,22.29,40.74a97.28,97.28,0,0,1,2.5,13.16c.81,5.89,1.83,11.83,1.82,17.75A163.1,163.1,0,0,1,300.43,387c-1.05,8.27-2.25,16.53-3.81,24.72A136.7,136.7,0,0,1,292.14,429q-4.31,13-9.41,25.7c-2.26,5.6-5.2,10.93-7.87,16.37-1.83,3.72-4.28,7.24-5.47,11.15-2.36,7.71-3.67,15.74-6.11,23.42C261.16,512.34,258.09,518.73,255.44,525.26ZM485.56,399.73l-.65,0a13.87,13.87,0,0,0-.81,1.33c-3.59,7.85-7.13,15.73-10.77,23.56-3.52,7.59-7,15.21-10.79,22.66-3.69,7.25-7.73,14.32-11.7,21.43-3.33,5.94-6.62,11.92-10.24,17.69q-7.49,11.91-15.47,23.49c-4.58,6.66-9.22,13.31-14.26,19.62-6.53,8.18-13.34,16.15-20.3,24-5.09,5.73-10.45,11.25-16,16.57-6.41,6.19-13,12.25-19.76,18-6.55,5.56-13.44,10.73-20.26,16-3.62,2.78-7.4,5.35-11.62,8.38,6.45,2.39,12.31,4.47,18.08,6.74a6.75,6.75,0,0,0,6.93-1.08c9.06-6.78,18.15-13.53,27.06-20.51A192,192,0,0,0,389.66,585a445,445,0,0,0,45-49.84c5.51-7.2,11-14.41,16.29-21.77,4.08-5.68,7.95-11.52,11.69-17.43,4.87-7.69,9.54-15.51,14.23-23.3,2.43-4,4.84-8.08,7.08-12.22,1.89-3.49,4.38-7,5-10.71.83-4.67.24-9.64,0-14.46-.28-5.06-.94-10.1-1.37-15.15-.4-4.85-.67-9.7-1.1-14.54C486.35,403.62,485.89,401.68,485.56,399.73ZM212.15,269.26l-.21-.4a5.13,5.13,0,0,0-.87.36c-5,3.36-10.15,6.53-14.94,10.17s-9.49,7.8-14.07,11.89a145.33,145.33,0,0,0-11.39,10.94c-5.48,6.09-10.72,12.41-15.8,18.85s-10.06,12.86-14.58,19.63a231.87,231.87,0,0,0-13,21.62c-4.71,9-9,18.32-13,27.67a197.81,197.81,0,0,0-8.07,21.71c-3.23,10.83-6,21.81-8.6,32.81-1.3,5.47-1.91,11.1-2.69,16.69-.26,1.83-.41,4,2.47,4,2.6,0,5.22.17,7.8-.05,2-.17,3.26-1.34,3.58-3.62.94-6.86,1.84-13.74,3.2-20.52,1.31-6.53,3.09-13,4.81-19.39,1.2-4.48,2.44-9,4-13.33,3-8.35,6-16.7,9.45-24.89s6.8-16.11,10.9-23.79c4.49-8.43,9.75-16.45,14.72-24.62a216.66,216.66,0,0,1,21.6-29.65q10.13-11.6,20.71-22.8C202.62,277.91,207.48,273.68,212.15,269.26ZM73.36,460.43c.86,1.81-.29,4.14,2.47,4.75a9.4,9.4,0,0,0,4,.34c1.74-.42,4.28.69,5.08-1.89a56.26,56.26,0,0,0,1.24-6.23c1.43-7.49,2.58-15.06,4.37-22.47,2.1-8.7,4.47-17.35,7.25-25.85,2.23-6.82,5.16-13.41,7.92-20.05a130.09,130.09,0,0,1,5.53-12c3.78-7,7.7-14,11.82-20.77q4.61-7.63,9.86-14.87c3.81-5.26,7.9-10.32,12-15.37,3-3.72,6.1-7.41,9.38-10.9,3.95-4.22,8.17-8.19,12.19-12.35.46-.48.41-1.46.59-2.21a6.9,6.9,0,0,0-2.07.31,56.77,56.77,0,0,0-15.1,11.57c-6.47,6.76-13.27,13.23-19.38,20.29a209.14,209.14,0,0,0-14.57,19.32A271.63,271.63,0,0,0,101,375.7a244.18,244.18,0,0,0-12.32,26.57c-3.47,8.78-6.15,17.9-8.84,27-1.32,4.44-1.88,9.1-2.82,13.65C75.84,448.74,74.59,454.58,73.36,460.43Zm291.5,167.13a14.44,14.44,0,0,0,2,1.19c6.08,2.34,12.11,4.87,18.32,6.83a8.89,8.89,0,0,0,6.33-.85,85.09,85.09,0,0,0,10.37-7.27c6.39-5,12.81-9.93,18.95-15.2,5.39-4.61,10.48-9.56,15.57-14.51,5.3-5.17,10.47-10.46,15.61-15.78,3.77-3.89,7.53-7.81,11-11.93,3.3-3.88,7.2-7.38,8.68-12.56,2.77-9.71,5.75-19.38,8.34-29.14,1.41-5.33,2.12-10.85,3.29-16.25.54-2.48,2.17-4.9-.56-7.46C450.17,551.79,413.46,595.21,364.86,627.56ZM260.93,233.79l-8.14,6.05C256,240.17,260.25,237,260.93,233.79Z" transform="translate(-41 -163.89)"/><path d="M217.69,572.84a27.82,27.82,0,0,1,3-2.18,169.85,169.85,0,0,0,23.16-15,226.86,226.86,0,0,0,25.83-23.25,248.41,248.41,0,0,0,23.88-29.33c5.43-7.61,10.24-15.69,15.05-23.73,3.79-6.33,7.35-12.82,10.67-19.41a147.84,147.84,0,0,0,6.32-14.76c3.12-8.3,6.19-16.63,8.89-25.08,2.08-6.51,3.79-13.17,5.22-19.86,1.71-8,2.69-16.11,4.44-24.07,2.32-10.55,2.07-21.22,2.12-31.89a99.19,99.19,0,0,0-2.47-21.85c-1-4.45-1.7-9-3-13.34a103,103,0,0,0-12.08-27.6A70.34,70.34,0,0,0,310,261.91a66,66,0,0,0-26.31-10.66c-7.12-1.3-14.7-.74-22-.15-6.17.49-12.24,2.22-18.55,3.45l-.57-2c-.16,0-.38,0-.48.11-7,7.35-14.34,14.47-21,22.13s-13.18,15.8-19.27,24.08c-5,6.83-9.47,14.11-13.95,21.33-4.21,6.76-8.35,13.58-12.12,20.6s-7.38,14.3-10.55,21.68c-5.31,12.39-10.5,24.84-15.18,37.47-3,8-5,16.27-7.21,24.49q-3.25,12-6,24c-.83,3.67-1,7.48-1.65,11.2-.59,3.51-2.23,5.09-5.75,5.44a39.68,39.68,0,0,1-6.72,0,3.23,3.23,0,0,1-3.19-4c.83-4.29,1.44-8.63,2.41-12.9,2.23-9.84,4.44-19.7,7-29.46,1.84-7,4-14,6.47-20.86,3.3-8.93,6.93-17.75,10.75-26.47,3.19-7.27,6.65-14.45,10.39-21.45,3.58-6.71,7.54-13.23,11.58-19.68,4.57-7.27,9.12-14.58,14.22-21.47C189,299.86,196,291,203.37,282.45a213.45,213.45,0,0,1,16.95-16.95c6.07-5.62,12.43-10.92,18.78-16.23,3-2.49,6.21-4.69,9.34-7,1.89-1.4,2.67-1.14,3.72,1.06,9-3.69,18.09-6.85,27.7-8.26a88,88,0,0,1,22.93-.69c11.54,1.34,22.25,4.89,31.74,11.56,8.87,6.24,15.7,14.49,21.17,23.81a113.86,113.86,0,0,1,12.67,32.6,108.7,108.7,0,0,1,1.85,13.6c.68,7,1.59,14,1.61,21,0,6.39-1,12.77-1.58,19.15-.35,4-.55,7.93-1.07,11.86q-1.1,8.28-2.59,16.5a150.63,150.63,0,0,1-3.32,16c-3.18,10.8-6.53,21.56-10.31,32.16a208.59,208.59,0,0,1-9.87,23.44c-4.95,9.87-10.51,19.46-16.06,29a194.68,194.68,0,0,1-11,17.16c-6.21,8.5-12.61,16.89-19.36,25a214.75,214.75,0,0,1-18.57,20.14c-7.48,6.94-15.63,13.16-23.74,19.37-4.85,3.71-10.12,6.86-15.29,10.12-2.86,1.8-6,2.57-9.36,1.28-3.52-1.36-7-2.8-10.5-4.23A11.79,11.79,0,0,1,217.69,572.84Zm26.36-319.68c6.58-1.2,12.87-2.66,19.25-3.43a69.11,69.11,0,0,1,43.47,9c12.14,6.91,20.81,17.21,27,29.54,8.77,17.4,12.78,36.06,13.53,55.44a195.59,195.59,0,0,1-2.67,37.74,285.7,285.7,0,0,1-16.88,61.26,291.33,291.33,0,0,1-32.13,59.14A254.73,254.73,0,0,1,262,541.54a189.94,189.94,0,0,1-33.6,25.83c-2.8,1.67-5.58,3.39-8.77,5.31,3.94,1.63,7.36,3.11,10.84,4.46a8.37,8.37,0,0,0,7.48-.94,220.39,220.39,0,0,0,39.29-29.45,258.46,258.46,0,0,0,26.84-30,320.16,320.16,0,0,0,29.52-44.55c5.13-9.54,9.72-19.37,14.21-29.23a235.62,235.62,0,0,0,14.85-44.55c2.3-9.92,4.12-20,5.48-30.1,2.16-16.07,3.38-32.19,1.8-48.48-1.91-19.74-7.38-38.11-18.5-54.62-9.24-13.71-21.51-23.51-37.7-27.69a78.87,78.87,0,0,0-28.53-2.05,116.6,116.6,0,0,0-30.55,8c-1.83.73-3.44,1.8-4.76-1.28-8,6.42-16,12.38-23.47,18.87a215,215,0,0,0-31,32.4c-8,10.56-16.11,21.08-23.42,32.11a346.42,346.42,0,0,0-45.13,104.09c-2.34,10-4.08,20.18-6,30.29-.64,3.33,0,4,3.31,4.07h3.77c4.32,0,5.77-1.3,6.51-5.49.87-4.93,1.55-9.91,2.73-14.77,2.73-11.22,5.5-22.43,8.64-33.53a314.94,314.94,0,0,1,23.57-59.08c6.62-12.79,13.94-25.24,21.43-37.55a233.79,233.79,0,0,1,15.8-22.72c7.39-9.44,15.25-18.53,23.16-27.55C233.6,259,238,255.05,242.16,251c.43-.42,1.22-.46,1.85-.68.09.64.23,1.28.26,1.92A3.16,3.16,0,0,1,244.05,253.16Z" transform="translate(-41 -163.89)"/><path d="M250.39,585.45c1.21-1,2-1.64,2.79-2.25,9.53-7.14,19.26-14,28.53-21.48,7.05-5.68,13.72-11.89,20.2-18.23,5.21-5.09,10-10.64,14.77-16.15a179.47,179.47,0,0,0,11.58-14.27c6.72-9.57,13.38-19.2,19.48-29.16,5.47-9,10.3-18.32,15.13-27.65a149.16,149.16,0,0,0,6-14.06c3.81-9.65,7.83-19.25,11.17-29.07,2.8-8.21,4.89-16.67,7-25.09,1.83-7.15,3.52-14.36,4.85-21.63,1.21-6.63,2.12-13.35,2.67-20.08a232.86,232.86,0,0,0,1-24.05,221.28,221.28,0,0,0-2.09-24.65,140.13,140.13,0,0,0-4.05-19.57,92.85,92.85,0,0,0-17.2-33.44A70,70,0,0,0,352,227.27c-6.45-3.63-13.27-6.46-20.48-7.26-7.72-.86-15.61-.2-23.43-.24s-14.87,2.65-22,5c-5.86,1.89-11.43,4.68-17.12,7.08a4.56,4.56,0,0,1-1.21.53,21.93,21.93,0,0,1-2.42-.13c.31-.71.42-1.69,1-2.08,3.31-2.38,6.66-4.7,10.09-6.91a110.48,110.48,0,0,1,27.31-12.61,98.23,98.23,0,0,1,37.1-4,100.76,100.76,0,0,1,34.77,9.25,136.94,136.94,0,0,1,27.21,16.81,27.13,27.13,0,0,1,9.11,12.16c2.23,6.36,4,12.89,6.37,19.19,2.53,6.68,2.85,13.74,4.34,20.58,2.06,9.45,2.33,18.94,2,28.45-.24,6.9-1.4,13.77-2.12,20.65-.38,3.68-.54,7.39-1.09,11-.93,6.07-2.09,12.12-3.16,18.17-.88,4.93-1.46,9.94-2.73,14.77-2.84,10.77-5.82,21.52-9.15,32.15-2.22,7.11-4.89,14.12-7.8,21-3.3,7.8-7,15.44-10.69,23.05-3.34,6.81-6.71,13.63-10.55,20.17-4.8,8.17-10,16.09-15.19,24.05-3.12,4.84-6.27,9.67-9.68,14.3-3.89,5.29-8.08,10.38-12.17,15.52-3.33,4.17-6.49,8.51-10.12,12.4q-9.78,10.49-20.08,20.47c-4.55,4.39-9.41,8.47-14.36,12.4-4.44,3.53-9.13,6.75-13.81,10-3.13,2.15-6.61,3.83-9.63,6.11-3.27,2.47-6.45,2.44-10,.95C258.56,588.59,254.8,587.18,250.39,585.45Zm2.15-.32c4.13,1.62,8,3.27,11.94,4.63a7.83,7.83,0,0,0,7.15-1.28c5.12-3.47,10.35-6.76,15.43-10.3a198.07,198.07,0,0,0,32.55-28c9-9.71,17.55-19.88,25.76-30.27A380.39,380.39,0,0,0,380,467.18a364.4,364.4,0,0,0,21.33-46.36,353.78,353.78,0,0,0,17.15-62.36c1.95-10.72,3.35-21.59,4.3-32.45a168.26,168.26,0,0,0-.59-38.58,174.32,174.32,0,0,0-11.46-42.69A25.78,25.78,0,0,0,403,234.21a132.92,132.92,0,0,0-30.72-18.59,99.26,99.26,0,0,0-58.41-6.43c-15.4,2.89-29.26,9.41-42.11,18.23-1.73,1.18-3.46,2.38-5.18,3.57a3.3,3.3,0,0,0,2.16-.28c7.17-2.8,14.25-5.86,21.52-8.34a84.51,84.51,0,0,1,40.33-3.54c20.79,3.16,36.13,14.77,47.56,32,8,12.07,12.72,25.44,15.4,39.55a198.48,198.48,0,0,1,3,42.52,211.62,211.62,0,0,1-4.14,37.31,400.66,400.66,0,0,1-17,58.49,349.78,349.78,0,0,1-18.88,42.16,307.07,307.07,0,0,1-43,61.87,304.17,304.17,0,0,1-47.22,42.62C261.79,578.64,257.25,581.79,252.54,585.13Z" transform="translate(-41 -163.89)"/><path d="M236.42,355.92c-5.16-4.83-9.42-9.36-14.24-13.17a178.27,178.27,0,0,0-16.25-11c-2.59-1.63-3.93-.78-4.62,2.21-.73,3.16-1.42,6.34-2.14,9.51-1.45,6.41-2.51,12.95-4.48,19.19-3,9.38-6.68,18.51-9.84,27.83-2.48,7.3-4.72,14.69-6.86,22.11-2.46,8.52-4.87,17.07-7,25.69-1.83,7.6-3.22,15.31-4.72,23-.58,2.95-2.18,4.11-5.26,3.92a76,76,0,0,0-8.8,0c-3,.16-4.09-.94-3.61-4.08a320.12,320.12,0,0,1,9.23-42.5q5.77-19.49,12.9-38.56a313.35,313.35,0,0,1,13-29.79c5.9-11.86,12.33-23.46,18.91-35,4.43-7.74,9.5-15.11,14.3-22.63,2.63-4.12,5-4,10.81-2.51,1.42.37,2.78,1,4.19,1.4a58.89,58.89,0,0,1,26.42,16,76.17,76.17,0,0,1,17.15,28.67c1.74,5,3,10.27,4.35,15.45a100.05,100.05,0,0,1,2.6,29.65c-.35,7.95-1.52,15.87-2.61,23.77-.83,6-2,12-3.23,17.9-.9,4.19-2.18,8.31-3.44,12.42-.31,1-1.19,1.87-2.16,3.31-.58-1.33-1.17-2.07-1.2-2.83-.38-8.7-2.6-17-4.91-25.37-1.24-4.48-2.67-8.9-3.93-13.37a13.19,13.19,0,0,1-.35-3.44c0-5.42-.1-10.85,0-16.28.19-9.94-1.89-19.51-5.09-28.81-4.23-12.32-10.54-23.5-20.39-32.28a55.16,55.16,0,0,0-19.6-11.42c-1.63-.54-3-.44-3.7,1.76-.85,2.59-2.54,4.88-3.46,7.45-1.17,3.3-.21,5.37,2.95,6.92,9.2,4.51,14.82,12.48,20,20.81,2.09,3.4,3.47,7.25,5,10.95C236.69,353.54,236.42,354.5,236.42,355.92Zm35.3,80c.16-.41.43-.95.6-1.52A207.94,207.94,0,0,0,281,388.56c1.23-18.38-.35-36.3-7-53.63a79.3,79.3,0,0,0-16.13-26.45c-8.91-9.45-20.1-14.74-32.51-17.92-3.51-.9-5.84.06-7.73,3-3.57,5.58-7.42,11-10.84,16.66-4.81,8-9.64,16-13.89,24.24-5.48,10.68-10.84,21.46-15.44,32.53-5.59,13.47-10.61,27.19-15.34,41-2.95,8.63-5.17,17.53-7.26,26.42s-3.62,17.9-5.38,26.86c-.39,2,.44,2.8,2.47,2.74,3-.09,5.92,0,8.88,0,3.31,0,4.16-.62,4.73-3.82a400.79,400.79,0,0,1,11.61-48.84c2.36-7.61,5-15.14,7.51-22.69,3.11-9.35,6.54-18.6,9.28-28.05,2.54-8.76,4.31-17.74,6.52-26.6,1.07-4.27,3-5.31,6.54-2.9,7.05,4.73,13.89,9.79,20.63,15,2.75,2.1,5,4.82,7.54,7.26l.57-.53c-5.6-12.2-12.26-23.58-24.41-30.64-4.59-2.67-5.45-4.83-3.4-9.74.82-2,1.91-3.84,2.82-5.79,1.52-3.25,2.16-3.6,5.6-2.46a54.93,54.93,0,0,1,23.22,15.05c11.16,12,17.37,26.6,20.53,42.52a119.91,119.91,0,0,1,1.74,29.43,28,28,0,0,0,2.19,13.12,25.54,25.54,0,0,1,1.54,4.87C267.67,418,269.67,426.89,271.72,435.89Z" transform="translate(-41 -163.89)"/><path d="M452.66,296.06a34.74,34.74,0,0,1,2.16,3.53c3.64,7.83,7.4,15.6,10.75,23.54,2.63,6.25,4.91,12.67,7,19.12,2.26,6.94.59,13.77-1.39,20.51-1.06,3.62-2,7.3-3.15,10.89-2.16,6.52-4.47,13-6.74,19.46-2.2,6.32-4.06,12.78-6.7,18.9q-8.61,19.94-17.92,39.56c-3.65,7.66-7.75,15.12-12.07,22.43-4.82,8.15-10,16.09-15.23,24-4.68,7.1-9.43,14.16-14.47,21-5.5,7.45-11.09,14.88-17.16,21.86-8.41,9.67-17,19.25-26.13,28.23-7.13,7-15.05,13.29-22.94,19.49-6.61,5.18-13.66,9.8-20.55,14.62-2.78,1.94-5.88,1.87-8.91.79-4.23-1.5-8.4-3.19-12.56-4.87a7.4,7.4,0,0,1-1.72-1.38,9.38,9.38,0,0,1,1.6-1.61,199.55,199.55,0,0,0,34.91-25.58c8.31-7.74,16.88-15.27,24.53-23.62,8.34-9.1,16-18.85,23.5-28.68,6.74-8.86,13-18.1,19.14-27.4,4-6,7.44-12.41,10.91-18.76,5.13-9.36,10.19-18.77,15-28.28C417,439,419,434,421,429c3.66-9.13,7.46-18.22,10.69-27.5,2.89-8.29,5.18-16.8,7.55-25.26,1.63-5.82,3.14-11.69,4.36-17.61,2-9.57,3.8-19.17,5.39-28.8.88-5.3,1.18-10.69,1.66-16,.51-5.76.91-11.53,1.36-17.29Zm.31,2.52c-.23,2.68-.39,4.61-.56,6.54-.68,7.66-1,15.39-2.14,23-1.64,10.7-3.46,21.4-6,31.91-3.38,13.81-7.12,27.58-11.5,41.1a365.1,365.1,0,0,1-24.93,58.23c-4.86,9.18-9.87,18.33-15.53,27-9,13.79-18.22,27.48-28.06,40.68s-21,24.88-32.89,36.14a248,248,0,0,1-37.68,29.76c-2.3,1.46-4.55,3-7.4,4.89,5.66,2,10.68,4.12,15.89,5.54,1.69.46,4.23-.33,5.75-1.42,10.61-7.63,21.35-15.12,31.49-23.35,17.05-13.84,31.65-30.17,45-47.52q13-16.92,25-34.66c6.4-9.5,12.3-19.36,17.87-29.37,5.48-9.85,10.38-20,15.33-30.17a408.59,408.59,0,0,0,19.65-48.82c3-8.9,5.55-18,8.33-26.94,2.28-7.38,3-14.89.16-22.16-4.23-10.84-8.9-21.51-13.48-32.21C456.15,304.17,454.65,301.76,453,298.58Z" transform="translate(-41 -163.89)"/><path d="M255.44,525.26c2.65-6.53,5.72-12.92,7.84-19.62,2.44-7.68,3.75-15.71,6.11-23.42,1.19-3.91,3.64-7.43,5.47-11.15,2.67-5.44,5.61-10.77,7.87-16.37q5.11-12.69,9.41-25.7a136.7,136.7,0,0,0,4.48-17.26c1.56-8.19,2.76-16.45,3.81-24.72a163.1,163.1,0,0,0,1.67-20.18c0-5.92-1-11.86-1.82-17.75a97.28,97.28,0,0,0-2.5-13.16c-4.32-15.25-10.81-29.41-22.29-40.74a59.85,59.85,0,0,0-17.27-11.8,61.58,61.58,0,0,0-19.32-5c-4-.43-8-1-12.48-1.62,1.67-4.05,2.8-8.75,7.33-10.81a28.58,28.58,0,0,1,10.65-2.86,97.64,97.64,0,0,1,18.64,1c10.1,1.64,19.7,5.24,27.64,11.76a106,106,0,0,1,14.71,15.31,69.14,69.14,0,0,1,13.22,27.13c1.56,6.28,2.65,12.69,4.32,18.94,2.56,9.55,2.39,19.28,2.09,29-.19,6.18-1.31,12.34-2.17,18.49-.93,6.7-1.64,13.49-3.2,20.06a283.56,283.56,0,0,1-8.17,29.29c-3.74,10.59-8.24,20.95-13,31.14a178.24,178.24,0,0,1-12.28,22.19c-6.22,9.47-13.1,18.52-19.86,27.63-2.46,3.33-5.35,6.36-8.14,9.44a8.71,8.71,0,0,1-2.44,1.36ZM228.21,276l2.27.33c5.67.78,11.43,1.15,17,2.42,20.35,4.63,33.89,17.77,43.26,35.74,7.13,13.71,10.58,28.53,11.75,43.81,1,13.53-.08,27-2.18,40.43a228,228,0,0,1-11.57,44.08,229.11,229.11,0,0,1-16.84,36,22.76,22.76,0,0,0-2,5.49c-2.33,8.35-4.4,16.78-6.95,25.06-1.52,4.91-3.76,9.59-5.68,14.37a8.42,8.42,0,0,0,2.22-1.91,259.46,259.46,0,0,0,24.42-32.71,228.83,228.83,0,0,0,18.88-35.86c3.95-9.79,7.59-19.73,10.85-29.77a219.69,219.69,0,0,0,10.12-52.88,139.94,139.94,0,0,0-6.69-54.31c-4.64-13.87-11.67-26.13-22.69-35.9-15.84-14-34.53-18.16-55-15.53A13.31,13.31,0,0,0,228.21,276Z" transform="translate(-41 -163.89)"/><path d="M485.56,399.73c.33,1.95.79,3.89,1,5.86.43,4.84.7,9.69,1.1,14.54.43,5.05,1.09,10.09,1.37,15.15.27,4.82.86,9.79,0,14.46-.67,3.75-3.16,7.22-5,10.71-2.24,4.14-4.65,8.19-7.08,12.22-4.69,7.79-9.36,15.61-14.23,23.3-3.74,5.91-7.61,11.75-11.69,17.43-5.29,7.36-10.78,14.57-16.29,21.77a445,445,0,0,1-45,49.84A192,192,0,0,1,375,597.56c-8.91,7-18,13.73-27.06,20.51a6.75,6.75,0,0,1-6.93,1.08c-5.77-2.27-11.63-4.35-18.08-6.74,4.22-3,8-5.6,11.62-8.38,6.82-5.25,13.71-10.42,20.26-16,6.79-5.76,13.35-11.82,19.76-18,5.52-5.32,10.88-10.84,16-16.57,7-7.83,13.77-15.8,20.3-24,5-6.31,9.68-13,14.26-19.62q8-11.6,15.47-23.49c3.62-5.77,6.91-11.75,10.24-17.69,4-7.11,8-14.18,11.7-21.43,3.8-7.45,7.27-15.07,10.79-22.66,3.64-7.83,7.18-15.71,10.77-23.56a13.87,13.87,0,0,1,.81-1.33ZM325.64,611.79a18.17,18.17,0,0,0,2.17,1.26c4.17,1.62,8.4,3.12,12.54,4.81a6.82,6.82,0,0,0,6.88-.59c1.26-.86,2.61-1.58,3.85-2.46,12.2-8.53,24-17.54,34.76-27.89,8.3-8,16.62-16,24.39-24.56,8.26-9.06,16-18.59,23.75-28.1,12.07-14.83,22.72-30.67,32.82-46.87,5.83-9.34,11.22-19,16.9-28.4,3.05-5.09,5-10.29,4.45-16.47-1-10.87-1.52-21.78-2.3-32.67-.16-2.36-.59-4.7-1-7.65-.65,1.1-1,1.6-1.26,2.15-6,13-11.87,26.09-18.18,38.95q-7.33,14.94-15.67,29.4c-5.91,10.23-12,20.36-18.66,30.15-7.58,11.19-15.48,22.2-23.81,32.83a358.11,358.11,0,0,1-37.55,40.63,376.52,376.52,0,0,1-35.63,29.38C331.41,607.66,328.67,609.61,325.64,611.79Z" transform="translate(-41 -163.89)"/><path d="M212.15,269.26c-4.67,4.42-9.53,8.65-14,13.3q-10.6,11.18-20.71,22.8A216.66,216.66,0,0,0,155.89,335c-5,8.17-10.23,16.19-14.72,24.62-4.1,7.68-7.55,15.74-10.9,23.79s-6.45,16.54-9.45,24.89c-1.57,4.36-2.81,8.85-4,13.33-1.72,6.43-3.5,12.86-4.81,19.39-1.36,6.78-2.26,13.66-3.2,20.52-.32,2.28-1.55,3.45-3.58,3.62-2.58.22-5.2.09-7.8.05-2.88,0-2.73-2.19-2.47-4,.78-5.59,1.39-11.22,2.69-16.69,2.62-11,5.37-22,8.6-32.81A197.81,197.81,0,0,1,114.31,390c4-9.35,8.31-18.64,13-27.67a231.87,231.87,0,0,1,13-21.62c4.52-6.77,9.53-13.24,14.58-19.63s10.32-12.76,15.8-18.85a145.33,145.33,0,0,1,11.39-10.94c4.58-4.09,9.19-8.18,14.07-11.89s9.94-6.81,14.94-10.17a5.13,5.13,0,0,1,.87-.36Zm-9.75,7A9.68,9.68,0,0,0,201,277c-6.08,4.88-12.65,9.26-18.09,14.76-9.74,9.85-19.24,20-28,30.74a246.41,246.41,0,0,0-18.66,26.9,237.67,237.67,0,0,0-14.63,27.17c-5.64,12.56-10.78,25.38-15.24,38.4-3.39,9.87-5.54,20.19-7.91,30.38-1.19,5.13-1.63,10.43-2.42,15.65-.32,2.1.3,3.26,2.68,3.11,2.15-.14,4.34.15,6.43-.2a3.51,3.51,0,0,0,2.28-2.28c1.68-9,2.9-18,4.76-26.92a249.28,249.28,0,0,1,13.82-44c4.43-10.75,9.27-21.37,14.52-31.74a298.57,298.57,0,0,1,23.55-38.14,325.57,325.57,0,0,1,28.5-34.26C195.82,283.11,199.07,279.73,202.4,276.24Z" transform="translate(-41 -163.89)"/><path d="M73.36,460.43c1.23-5.85,2.48-11.69,3.69-17.55.94-4.55,1.5-9.21,2.82-13.65,2.69-9.06,5.37-18.18,8.84-27A244.18,244.18,0,0,1,101,375.7a271.63,271.63,0,0,1,14.88-23.64,209.14,209.14,0,0,1,14.57-19.32c6.11-7.06,12.91-13.53,19.38-20.29A56.77,56.77,0,0,1,165,300.88a6.9,6.9,0,0,1,2.07-.31c-.18.75-.13,1.73-.59,2.21-4,4.16-8.24,8.13-12.19,12.35-3.28,3.49-6.36,7.18-9.38,10.9-4.09,5.05-8.18,10.11-12,15.37q-5.24,7.22-9.86,14.87C118.9,363.09,115,370,111.2,377a130.09,130.09,0,0,0-5.53,12c-2.76,6.64-5.69,13.23-7.92,20.05-2.78,8.5-5.15,17.15-7.25,25.85-1.79,7.41-2.94,15-4.37,22.47a56.26,56.26,0,0,1-1.24,6.23c-.8,2.58-3.34,1.47-5.08,1.89a9.4,9.4,0,0,1-4-.34C73.07,464.57,74.22,462.24,73.36,460.43Zm91.88-157.11-.82-1.07c-2,1.36-4.29,2.46-6,4.12-7.73,7.33-15.6,14.54-22.87,22.31-15.17,16.19-27.27,34.58-37.16,54.39a228.29,228.29,0,0,0-18.65,51.4c-1.95,8.62-3.2,17.4-4.69,26.12-.35,2,.11,3.72,2.75,3.94,4.73.4,6.18-.26,6.67-3.33.34-2.11.69-4.23,1-6.36a227.49,227.49,0,0,1,10.13-42.23A265.3,265.3,0,0,1,155.25,313C158.45,309.62,161.9,306.52,165.24,303.32Z" transform="translate(-41 -163.89)"/><path d="M364.86,627.56c48.6-32.35,85.31-75.77,118-122.93,2.73,2.56,1.1,5,.56,7.46-1.17,5.4-1.88,10.92-3.29,16.25-2.59,9.76-5.57,19.43-8.34,29.14-1.48,5.18-5.38,8.68-8.68,12.56-3.51,4.12-7.27,8-11,11.93-5.14,5.32-10.31,10.61-15.61,15.78-5.09,5-10.18,9.9-15.57,14.51-6.14,5.27-12.56,10.23-18.95,15.2a85.09,85.09,0,0,1-10.37,7.27,8.89,8.89,0,0,1-6.33.85c-6.21-2-12.24-4.49-18.32-6.83A14.44,14.44,0,0,1,364.86,627.56ZM483.19,507.62l-.89-.42c-32,46-68,88.23-115.38,120.28,1.49.64,2.26,1,3.05,1.31,4.52,1.72,9.07,3.37,13.56,5.16,3.47,1.37,6.66,1.13,9.63-1.17,7.65-5.93,15.49-11.63,22.9-17.84,16.59-13.91,31.67-29.38,46.1-45.5,3.26-3.65,7.09-7,8.45-12C474.29,544,478,530.54,481.5,517,482.31,514,482.64,510.76,483.19,507.62Z" transform="translate(-41 -163.89)"/><path d="M260.93,233.79c-.68,3.17-4.92,6.38-8.14,6.05Z" transform="translate(-41 -163.89)"/><path class="cls-1" d="M244.05,253.16a3.16,3.16,0,0,0,.22-.93c0-.64-.17-1.28-.26-1.92-.63.22-1.42.26-1.85.68-4.18,4.06-8.56,8-12.39,12.33-7.91,9-15.77,18.11-23.16,27.55a233.79,233.79,0,0,0-15.8,22.72c-7.49,12.31-14.81,24.76-21.43,37.55a314.94,314.94,0,0,0-23.57,59.08c-3.14,11.1-5.91,22.31-8.64,33.53-1.18,4.86-1.86,9.84-2.73,14.77-.74,4.19-2.19,5.45-6.51,5.49h-3.77c-3.3,0-4-.74-3.31-4.07,2-10.11,3.69-20.27,6-30.29A346.42,346.42,0,0,1,172,325.56c7.31-11,15.41-21.55,23.42-32.11a215,215,0,0,1,31-32.4c7.49-6.49,15.45-12.45,23.47-18.87,1.32,3.08,2.93,2,4.76,1.28a116.6,116.6,0,0,1,30.55-8,78.87,78.87,0,0,1,28.53,2.05c16.19,4.18,28.46,14,37.7,27.69,11.12,16.51,16.59,34.88,18.5,54.62,1.58,16.29.36,32.41-1.8,48.48-1.36,10.1-3.18,20.18-5.48,30.1a235.62,235.62,0,0,1-14.85,44.55c-4.49,9.86-9.08,19.69-14.21,29.23a320.16,320.16,0,0,1-29.52,44.55,258.46,258.46,0,0,1-26.84,30A220.39,220.39,0,0,1,238,576.2a8.37,8.37,0,0,1-7.48.94c-3.48-1.35-6.9-2.83-10.84-4.46,3.19-1.92,6-3.64,8.77-5.31A189.94,189.94,0,0,0,262,541.54a254.73,254.73,0,0,0,33.64-39.74,291.33,291.33,0,0,0,32.13-59.14,285.7,285.7,0,0,0,16.88-61.26,195.59,195.59,0,0,0,2.67-37.74c-.75-19.38-4.76-38-13.53-55.44-6.21-12.33-14.88-22.63-27-29.54a69.11,69.11,0,0,0-43.47-9C256.92,250.5,250.63,252,244.05,253.16Z" transform="translate(-41 -163.89)"/><path class="cls-1" d="M252.54,585.13c4.71-3.34,9.25-6.49,13.71-9.75a304.17,304.17,0,0,0,47.22-42.62,307.07,307.07,0,0,0,43-61.87,349.78,349.78,0,0,0,18.88-42.16,400.66,400.66,0,0,0,17-58.49,211.62,211.62,0,0,0,4.14-37.31,198.48,198.48,0,0,0-3-42.52c-2.68-14.11-7.41-27.48-15.4-39.55-11.43-17.26-26.77-28.87-47.56-32a84.51,84.51,0,0,0-40.33,3.54c-7.27,2.48-14.35,5.54-21.52,8.34a3.3,3.3,0,0,1-2.16.28c1.72-1.19,3.45-2.39,5.18-3.57,12.85-8.82,26.71-15.34,42.11-18.23a99.26,99.26,0,0,1,58.41,6.43A132.92,132.92,0,0,1,403,234.21a25.78,25.78,0,0,1,7.69,10.53,174.32,174.32,0,0,1,11.46,42.69,168.26,168.26,0,0,1,.59,38.58c-.95,10.86-2.35,21.73-4.3,32.45a353.78,353.78,0,0,1-17.15,62.36A364.4,364.4,0,0,1,380,467.18a380.39,380.39,0,0,1-34.62,52.75c-8.21,10.39-16.76,20.56-25.76,30.27a198.07,198.07,0,0,1-32.55,28c-5.08,3.54-10.31,6.83-15.43,10.3a7.83,7.83,0,0,1-7.15,1.28C260.53,588.4,256.67,586.75,252.54,585.13Z" transform="translate(-41 -163.89)"/><path class="cls-1" d="M271.72,435.89c-2.05-9-4.05-17.89-6.11-26.76a25.54,25.54,0,0,0-1.54-4.87,28,28,0,0,1-2.19-13.12,119.91,119.91,0,0,0-1.74-29.43c-3.16-15.92-9.37-30.49-20.53-42.52a54.93,54.93,0,0,0-23.22-15.05c-3.44-1.14-4.08-.79-5.6,2.46-.91,1.95-2,3.81-2.82,5.79-2.05,4.91-1.19,7.07,3.4,9.74,12.15,7.06,18.81,18.44,24.41,30.64l-.57.53c-2.5-2.44-4.79-5.16-7.54-7.26-6.74-5.16-13.58-10.22-20.63-15-3.58-2.41-5.47-1.37-6.54,2.9-2.21,8.86-4,17.84-6.52,26.6-2.74,9.45-6.17,18.7-9.28,28.05-2.52,7.55-5.15,15.08-7.51,22.69a400.79,400.79,0,0,0-11.61,48.84c-.57,3.2-1.42,3.81-4.73,3.82-3,0-5.92-.07-8.88,0-2,.06-2.86-.76-2.47-2.74,1.76-9,3.29-18,5.38-26.86s4.31-17.79,7.26-26.42c4.73-13.8,9.75-27.52,15.34-41,4.6-11.07,10-21.85,15.44-32.53,4.25-8.27,9.08-16.26,13.89-24.24,3.42-5.67,7.27-11.08,10.84-16.66,1.89-2.95,4.22-3.91,7.73-3,12.41,3.18,23.6,8.47,32.51,17.92A79.3,79.3,0,0,1,274,334.93c6.66,17.33,8.24,35.25,7,53.63a207.94,207.94,0,0,1-8.71,45.81C272.15,434.94,271.88,435.48,271.72,435.89Z" transform="translate(-41 -163.89)"/><path class="cls-1" d="M453,298.58c1.68,3.18,3.18,5.59,4.28,8.17,4.58,10.7,9.25,21.37,13.48,32.21,2.85,7.27,2.12,14.78-.16,22.16-2.78,9-5.33,18-8.33,26.94a408.59,408.59,0,0,1-19.65,48.82c-4.95,10.13-9.85,20.32-15.33,30.17-5.57,10-11.47,19.87-17.87,29.37q-11.94,17.7-25,34.66c-13.38,17.35-28,33.68-45,47.52-10.14,8.23-20.88,15.72-31.49,23.35-1.52,1.09-4.06,1.88-5.75,1.42-5.21-1.42-10.23-3.51-15.89-5.54,2.85-1.89,5.1-3.43,7.4-4.89a248,248,0,0,0,37.68-29.76c11.86-11.26,23.14-23.06,32.89-36.14s19.06-26.89,28.06-40.68c5.66-8.69,10.67-17.84,15.53-27a365.1,365.1,0,0,0,24.93-58.23c4.38-13.52,8.12-27.29,11.5-41.1,2.56-10.51,4.38-21.21,6-31.91,1.16-7.59,1.46-15.32,2.14-23C452.58,303.19,452.74,301.26,453,298.58Z" transform="translate(-41 -163.89)"/><path class="cls-1" d="M228.21,276a13.31,13.31,0,0,1,11.12-11.17c20.52-2.63,39.21,1.49,55,15.53,11,9.77,18.05,22,22.69,35.9a139.94,139.94,0,0,1,6.69,54.31,219.69,219.69,0,0,1-10.12,52.88c-3.26,10-6.9,20-10.85,29.77a228.83,228.83,0,0,1-18.88,35.86,259.46,259.46,0,0,1-24.42,32.71,8.42,8.42,0,0,1-2.22,1.91c1.92-4.78,4.16-9.46,5.68-14.37,2.55-8.28,4.62-16.71,6.95-25.06a22.76,22.76,0,0,1,2-5.49,229.11,229.11,0,0,0,16.84-36,228,228,0,0,0,11.57-44.08c2.1-13.39,3.21-26.9,2.18-40.43-1.17-15.28-4.62-30.1-11.75-43.81-9.37-18-22.91-31.11-43.26-35.74-5.56-1.27-11.32-1.64-17-2.42Z" transform="translate(-41 -163.89)"/><path class="cls-1" d="M325.64,611.79c3-2.18,5.77-4.13,8.48-6.1a376.52,376.52,0,0,0,35.63-29.38,358.11,358.11,0,0,0,37.55-40.63c8.33-10.63,16.23-21.64,23.81-32.83,6.62-9.79,12.75-19.92,18.66-30.15q8.33-14.43,15.67-29.4c6.31-12.86,12.14-26,18.18-38.95.26-.55.61-1.05,1.26-2.15.38,2.95.81,5.29,1,7.65.78,10.89,1.29,21.8,2.3,32.67.57,6.18-1.4,11.38-4.45,16.47-5.68,9.44-11.07,19.06-16.9,28.4-10.1,16.2-20.75,32-32.82,46.87-7.74,9.51-15.49,19-23.75,28.1-7.77,8.51-16.09,16.55-24.39,24.56-10.72,10.35-22.56,19.36-34.76,27.89-1.24.88-2.59,1.6-3.85,2.46a6.82,6.82,0,0,1-6.88.59c-4.14-1.69-8.37-3.19-12.54-4.81A18.17,18.17,0,0,1,325.64,611.79Z" transform="translate(-41 -163.89)"/><path class="cls-1" d="M202.4,276.24c-3.33,3.49-6.58,6.87-9.8,10.29a325.57,325.57,0,0,0-28.5,34.26,298.57,298.57,0,0,0-23.55,38.14c-5.25,10.37-10.09,21-14.52,31.74a249.28,249.28,0,0,0-13.82,44c-1.86,8.91-3.08,18-4.76,26.92a3.51,3.51,0,0,1-2.28,2.28c-2.09.35-4.28.06-6.43.2-2.38.15-3-1-2.68-3.11.79-5.22,1.23-10.52,2.42-15.65,2.37-10.19,4.52-20.51,7.91-30.38,4.46-13,9.6-25.84,15.24-38.4a237.67,237.67,0,0,1,14.63-27.17,246.41,246.41,0,0,1,18.66-26.9c8.78-10.72,18.28-20.89,28-30.74,5.44-5.5,12-9.88,18.09-14.76A9.68,9.68,0,0,1,202.4,276.24Z" transform="translate(-41 -163.89)"/><path class="cls-1" d="M165.24,303.32c-3.34,3.2-6.79,6.3-10,9.63a265.3,265.3,0,0,0-59.71,99.66,227.49,227.49,0,0,0-10.13,42.23c-.28,2.13-.63,4.25-1,6.36-.49,3.07-1.94,3.73-6.67,3.33-2.64-.22-3.1-1.9-2.75-3.94,1.49-8.72,2.74-17.5,4.69-26.12a228.29,228.29,0,0,1,18.65-51.4c9.89-19.81,22-38.2,37.16-54.39,7.27-7.77,15.14-15,22.87-22.31,1.74-1.66,4-2.76,6-4.12Z" transform="translate(-41 -163.89)"/><path class="cls-1" d="M483.19,507.62c-.55,3.14-.88,6.34-1.69,9.42-3.55,13.5-7.21,27-10.89,40.44-1.36,5-5.19,8.31-8.45,12-14.43,16.12-29.51,31.59-46.1,45.5-7.41,6.21-15.25,11.91-22.9,17.84-3,2.3-6.16,2.54-9.63,1.17-4.49-1.79-9-3.44-13.56-5.16-.79-.3-1.56-.67-3.05-1.31,47.39-32.05,83.39-74.25,115.38-120.28Z" transform="translate(-41 -163.89)"/></svg>